STARTFONT 2.1
COMMENT This font was automatically resized by bdfresize-1.4
COMMENT   mag_x = 2/5, mag_y = 2/5, blackness = 4
FONT -CBS-Song-Medium-R-Normal-Fantizi-16-160-75-75-C-160-CNS11643.1992-3
SIZE 16 80 80
FONTBOUNDINGBOX 16 16 0 -2
STARTPROPERTIES 23
FONTNAME_REGISTRY ""
FOUNDRY "CBS"
FAMILY_NAME "Song"
WEIGHT_NAME "Medium"
SLANT "R"
SETWIDTH_NAME "Normal"
ADD_STYLE_NAME "Fantizi"
PIXEL_SIZE 16
POINT_SIZE 160
RESOLUTION_X 75
RESOLUTION_Y 75
SPACING "C"
AVERAGE_WIDTH 160
CHARSET_REGISTRY "CNS11643.1992"
CHARSET_ENCODING "3"
COPYRIGHT "March 1994 by Central Bureau of Standards, Ministry of Economy, ROC"
WEIGHT 19329
RESOLUTION 110
X_HEIGHT 34
QUAD_WIDTH 40
DEFAULT_CHAR 32382
FONT_ASCENT 14
FONT_DESCENT 2
ENDPROPERTIES
CHARS 6149
STARTCHAR 2121
ENCODING 8481
SWIDTH 362 0
DWIDTH 16 0
BBX 16 16 0 -2
BITMAP
0180
0180
0180
0180
0180
0180
0180
0180
0180
0180
0180
0180
0180
0180
0180
0100
ENDCHAR
STARTCHAR 2122
ENCODING 8482
SWIDTH 362 0
DWIDTH 16 0
BBX 16 16 0 -2
BITMAP
0000
0000
0000
0000
0000
0C00
0700
0380
01C0
00E0
0060
0000
0000
0000
0000
0000
ENDCHAR
STARTCHAR 2123
ENCODING 8483
SWIDTH 362 0
DWIDTH 16 0
BBX 16 16 0 -2
BITMAP
00C0
00C0
0080
0080
0080
0080
0080
0080
0180
0180
0180
0300
0300
0600
0C00
1800
ENDCHAR
STARTCHAR 2124
ENCODING 8484
SWIDTH 362 0
DWIDTH 16 0
BBX 16 16 0 -2
BITMAP
01C0
0180
0180
0180
0180
0180
0180
0180
0180
0180
0180
0180
0180
0180
0F80
0300
ENDCHAR
STARTCHAR 2125
ENCODING 8485
SWIDTH 362 0
DWIDTH 16 0
BBX 16 16 0 -2
BITMAP
0002
7FFF
0180
0180
0180
0180
0180
0180
0180
0180
0180
0180
0180
0180
0180
0100
ENDCHAR
STARTCHAR 2126
ENCODING 8486
SWIDTH 362 0
DWIDTH 16 0
BBX 16 16 0 -2
BITMAP
0100
0180
0180
0180
0180
0180
0180
0180
0180
0180
0180
0180
0180
0180
0182
FFFF
ENDCHAR
STARTCHAR 2127
ENCODING 8487
SWIDTH 362 0
DWIDTH 16 0
BBX 16 16 0 -2
BITMAP
4006
7FFE
4006
4006
4006
4006
4006
4006
4006
4006
4006
4006
4006
4006
401E
4006
ENDCHAR
STARTCHAR 2128
ENCODING 8488
SWIDTH 362 0
DWIDTH 16 0
BBX 16 16 0 -2
BITMAP
0000
0000
0000
0000
0000
4003
FFFF
C006
8004
0000
0000
0000
0000
0000
0000
0000
ENDCHAR
STARTCHAR 2129
ENCODING 8489
SWIDTH 362 0
DWIDTH 16 0
BBX 16 16 0 -2
BITMAP
0000
FFFF
6000
6000
6000
6000
6000
6000
6000
6000
6000
6000
6000
7FFE
3FFF
0000
ENDCHAR
STARTCHAR 212a
ENCODING 8490
SWIDTH 362 0
DWIDTH 16 0
BBX 16 16 0 -2
BITMAP
0C38
0C18
0818
0818
0818
0818
0818
0818
0818
0818
08F8
0830
0800
0800
0800
0800
ENDCHAR
STARTCHAR 212b
ENCODING 8491
SWIDTH 362 0
DWIDTH 16 0
BBX 16 16 0 -2
BITMAP
0000
0000
0080
01C0
0180
0300
0300
0600
0610
0C18
180C
33FE
7F86
3006
0000
0000
ENDCHAR
STARTCHAR 212c
ENCODING 8492
SWIDTH 362 0
DWIDTH 16 0
BBX 16 16 0 -2
BITMAP
0180
0180
0380
0640
0C30
1998
318F
6186
8180
0180
0180
0180
0180
0180
0180
0100
ENDCHAR
STARTCHAR 212d
ENCODING 8493
SWIDTH 362 0
DWIDTH 16 0
BBX 16 16 0 -2
BITMAP
1800
1000
3006
3FFE
2080
4080
C080
0080
0080
0080
0080
0080
0080
0080
0780
0180
ENDCHAR
STARTCHAR 212e
ENCODING 8494
SWIDTH 362 0
DWIDTH 16 0
BBX 16 16 0 -2
BITMAP
0210
0118
0998
0890
0C30
0C30
0420
0260
03C0
01C0
0180
03C0
0670
0C3C
380F
6002
ENDCHAR
STARTCHAR 212f
ENCODING 8495
SWIDTH 362 0
DWIDTH 16 0
BBX 16 16 0 -2
BITMAP
0180
0300
0300
1E30
1FF0
1830
1830
1830
1830
1830
1830
1030
3031
3031
603F
C01F
ENDCHAR
STARTCHAR 2130
ENCODING 8496
SWIDTH 362 0
DWIDTH 16 0
BBX 16 16 0 -2
BITMAP
00C0
10C0
18C0
18C0
10C0
3080
31C0
3FC0
0140
0320
0230
0610
0418
080C
3007
6002
ENDCHAR
STARTCHAR 2131
ENCODING 8497
SWIDTH 362 0
DWIDTH 16 0
BBX 16 16 0 -2
BITMAP
0000
3FFC
0000
0000
0002
7FFF
0C00
0800
1818
180C
0008
0008
0018
0018
01F0
0060
ENDCHAR
STARTCHAR 2132
ENCODING 8498
SWIDTH 362 0
DWIDTH 16 0
BBX 16 16 0 -2
BITMAP
0100
0180
0180
0380
0340
0660
0620
0C30
1818
380F
7007
C000
8000
0002
7FFE
0000
ENDCHAR
STARTCHAR 2133
ENCODING 8499
SWIDTH 362 0
DWIDTH 16 0
BBX 16 16 0 -2
BITMAP
00C0
00C0
6080
4080
40C0
41C0
41C0
41E0
4120
4330
4218
460E
4C06
5000
7FFF
3FFF
ENDCHAR
STARTCHAR 2134
ENCODING 8500
SWIDTH 362 0
DWIDTH 16 0
BBX 16 16 0 -2
BITMAP
0300
0180
6180
4080
4180
41C0
41C0
4140
4360
4230
4618
4C1E
580E
5000
7FFF
3FFF
ENDCHAR
STARTCHAR 2135
ENCODING 8501
SWIDTH 362 0
DWIDTH 16 0
BBX 16 16 0 -2
BITMAP
0180
0100
0100
0100
1FF0
1830
1830
1830
1830
1830
1830
1030
3031
3031
603F
C01F
ENDCHAR
STARTCHAR 2136
ENCODING 8502
SWIDTH 362 0
DWIDTH 16 0
BBX 16 16 0 -2
BITMAP
0018
3FF8
0318
0318
0318
3318
1B18
0E18
0618
0718
07D8
0CF8
0C38
181F
31F6
C060
ENDCHAR
STARTCHAR 2137
ENCODING 8503
SWIDTH 362 0
DWIDTH 16 0
BBX 16 16 0 -2
BITMAP
1870
1860
1860
1860
1B60
1B60
1960
1960
1960
1160
3160
3161
2361
6363
DE7F
843E
ENDCHAR
STARTCHAR 2138
ENCODING 8504
SWIDTH 362 0
DWIDTH 16 0
BBX 16 16 0 -2
BITMAP
0C30
0C30
0C20
0C20
0C20
0C20
0C33
0C30
0C20
0C20
0C20
0C20
0C20
0C20
0C20
0C20
ENDCHAR
STARTCHAR 2139
ENCODING 8505
SWIDTH 362 0
DWIDTH 16 0
BBX 16 16 0 -2
BITMAP
0700
0600
0600
0400
0FF0
0C30
1C20
3660
2360
01C0
0180
01C0
0370
0E3C
381F
6006
ENDCHAR
STARTCHAR 213a
ENCODING 8506
SWIDTH 362 0
DWIDTH 16 0
BBX 16 16 0 -2
BITMAP
0700
0600
0600
0400
2FF0
3C30
1820
1C60
3660
63C0
01C0
01C0
0370
0E3C
381F
6006
ENDCHAR
STARTCHAR 213b
ENCODING 8507
SWIDTH 362 0
DWIDTH 16 0
BBX 16 16 0 -2
BITMAP
0000
0000
0000
0000
0300
4180
7FFF
C003
8004
0000
0000
0000
0000
0000
0000
0000
ENDCHAR
STARTCHAR 213c
ENCODING 8508
SWIDTH 362 0
DWIDTH 16 0
BBX 16 16 0 -2
BITMAP
0000
0000
0000
1CC6
18C4
118C
3188
6318
6330
319C
18CC
18C6
0842
0000
0000
0000
ENDCHAR
STARTCHAR 213d
ENCODING 8509
SWIDTH 362 0
DWIDTH 16 0
BBX 16 16 0 -2
BITMAP
0300
0300
0200
0600
0400
0C60
18C0
0CC0
0780
0380
0720
0E30
1818
3FEC
3C0C
0000
ENDCHAR
STARTCHAR 213e
ENCODING 8510
SWIDTH 362 0
DWIDTH 16 0
BBX 16 16 0 -2
BITMAP
0180
6083
7FFF
6000
6000
6000
6000
6000
6000
6000
6000
6000
4000
4000
C000
8000
ENDCHAR
STARTCHAR 213f
ENCODING 8511
SWIDTH 362 0
DWIDTH 16 0
BBX 16 16 0 -2
BITMAP
0000
7800
1800
1800
3000
3000
3C00
0C00
4C00
4800
3800
3800
3800
3E01
67FE
C000
ENDCHAR
STARTCHAR 2140
ENCODING 8512
SWIDTH 362 0
DWIDTH 16 0
BBX 16 16 0 -2
BITMAP
0000
7FF8
0018
0018
0018
0018
0018
1FF8
0018
0018
0018
0018
0018
0018
FFFF
0000
ENDCHAR
STARTCHAR 2141
ENCODING 8513
SWIDTH 362 0
DWIDTH 16 0
BBX 16 16 0 -2
BITMAP
0400
0600
0600
0400
0438
0C18
0C18
0C18
0810
0810
1FF0
0030
0030
0020
0022
FFFF
ENDCHAR
STARTCHAR 2142
ENCODING 8514
SWIDTH 362 0
DWIDTH 16 0
BBX 16 16 0 -2
BITMAP
0020
0070
00C0
0300
0C00
0030
0070
00E0
0380
0600
1818
0030
0060
01C0
0700
1C00
ENDCHAR
STARTCHAR 2143
ENCODING 8515
SWIDTH 362 0
DWIDTH 16 0
BBX 16 16 0 -2
BITMAP
0220
07F0
0660
0640
06C0
06C0
0660
0620
0630
0610
0630
0630
07E0
0640
0600
0600
ENDCHAR
STARTCHAR 2144
ENCODING 8516
SWIDTH 362 0
DWIDTH 16 0
BBX 16 16 0 -2
BITMAP
0060
0058
0048
7FFF
0040
0040
10C0
08C0
0C80
0580
0780
0300
07C0
0E70
383F
700E
ENDCHAR
STARTCHAR 2145
ENCODING 8517
SWIDTH 362 0
DWIDTH 16 0
BBX 16 16 0 -2
BITMAP
10C0
18C0
30C0
30C0
20C0
46C0
6CC0
3CC0
18C0
18C0
30C0
24C1
6EC3
F3C2
61FF
007E
ENDCHAR
STARTCHAR 2146
ENCODING 8518
SWIDTH 362 0
DWIDTH 16 0
BBX 16 16 0 -2
BITMAP
10C0
18C0
18C0
18C0
5EC0
5EC0
5EC0
5EC0
5EC0
5EC0
5EC0
5EC1
FEC3
02C2
00FF
007E
ENDCHAR
STARTCHAR 2147
ENCODING 8519
SWIDTH 362 0
DWIDTH 16 0
BBX 16 16 0 -2
BITMAP
0200
0300
0180
FFFF
0830
0830
0830
0830
0830
0830
0830
1830
1830
3030
6030
C030
ENDCHAR
STARTCHAR 2148
ENCODING 8520
SWIDTH 362 0
DWIDTH 16 0
BBX 16 16 0 -2
BITMAP
0180
0180
0180
4186
7FFE
4186
4186
43C6
4366
4676
4436
481E
500E
4006
401E
400E
ENDCHAR
STARTCHAR 2149
ENCODING 8521
SWIDTH 362 0
DWIDTH 16 0
BBX 16 16 0 -2
BITMAP
0C00
180C
1BFE
1104
310C
318C
7088
D098
90D8
1070
1070
1070
10F8
119C
130F
1C02
ENDCHAR
STARTCHAR 214a
ENCODING 8522
SWIDTH 362 0
DWIDTH 16 0
BBX 16 16 0 -2
BITMAP
0C00
1860
1860
1060
3060
3060
7040
F0C0
B0C0
3098
308C
318C
3306
37FB
3383
3000
ENDCHAR
STARTCHAR 214b
ENCODING 8523
SWIDTH 362 0
DWIDTH 16 0
BBX 16 16 0 -2
BITMAP
0C30
0C30
0820
0820
0820
0830
0830
1C70
1C78
1E68
1248
33CC
33C4
6186
4103
8202
ENDCHAR
STARTCHAR 214c
ENCODING 8524
SWIDTH 362 0
DWIDTH 16 0
BBX 16 16 0 -2
BITMAP
0180
0100
0380
0380
02C0
0660
0C38
199F
E106
0380
0380
0640
0430
081C
300F
6004
ENDCHAR
STARTCHAR 214d
ENCODING 8525
SWIDTH 362 0
DWIDTH 16 0
BBX 16 16 0 -2
BITMAP
1018
1FF8
1018
1018
101A
FFFF
1018
1018
1018
FFFF
1018
1018
1018
1018
1078
1030
ENDCHAR
STARTCHAR 214e
ENCODING 8526
SWIDTH 362 0
DWIDTH 16 0
BBX 16 16 0 -2
BITMAP
0004
3FFE
3184
3184
3184
3184
3184
3FFC
3004
3004
3004
3004
3004
3004
303C
3018
ENDCHAR
STARTCHAR 214f
ENCODING 8527
SWIDTH 362 0
DWIDTH 16 0
BBX 16 16 0 -2
BITMAP
0000
7FFF
C003
8026
0C30
0C20
0C20
0C20
0C20
0C20
0820
0820
1821
3021
603F
C01F
ENDCHAR
STARTCHAR 2150
ENCODING 8528
SWIDTH 362 0
DWIDTH 16 0
BBX 16 16 0 -2
BITMAP
0000
4003
23FF
3030
0830
0830
1030
1030
3030
2030
E030
6030
6030
6030
60F0
0060
ENDCHAR
STARTCHAR 2151
ENCODING 8529
SWIDTH 362 0
DWIDTH 16 0
BBX 16 16 0 -2
BITMAP
0018
7FF8
6018
6FD8
6058
64D8
6498
6798
6398
6318
6398
67C9
6CFD
586F
C007
8003
ENDCHAR
STARTCHAR 2152
ENCODING 8530
SWIDTH 362 0
DWIDTH 16 0
BBX 16 16 0 -2
BITMAP
0010
7FF8
0218
0218
0218
0218
3218
1E1C
0E1A
061B
0418
0C18
0830
1830
31F0
C060
ENDCHAR
STARTCHAR 2153
ENCODING 8531
SWIDTH 362 0
DWIDTH 16 0
BBX 16 16 0 -2
BITMAP
0300
0300
0200
7FF8
0218
0218
0218
1218
161C
361E
361B
0418
0C18
1830
31F0
6060
ENDCHAR
STARTCHAR 2154
ENCODING 8532
SWIDTH 362 0
DWIDTH 16 0
BBX 16 16 0 -2
BITMAP
0070
0060
0E60
0660
4466
6C63
3862
1862
1862
3C62
2442
66C6
42C6
8186
033C
0608
ENDCHAR
STARTCHAR 2155
ENCODING 8533
SWIDTH 362 0
DWIDTH 16 0
BBX 16 16 0 -2
BITMAP
1800
1800
3006
3006
2306
6306
C306
0306
0706
0586
0CC6
1876
6026
0006
003E
000C
ENDCHAR
STARTCHAR 2156
ENCODING 8534
SWIDTH 362 0
DWIDTH 16 0
BBX 16 16 0 -2
BITMAP
1800
1800
3006
3006
2006
6706
41C6
0046
0006
0036
01C6
3F06
3806
1004
007C
0018
ENDCHAR
STARTCHAR 2157
ENCODING 8535
SWIDTH 362 0
DWIDTH 16 0
BBX 16 16 0 -2
BITMAP
0006
7FFE
6010
6018
6C30
6630
6360
61E0
60C0
61E0
6330
6618
6C18
6808
7FFE
3FFF
ENDCHAR
STARTCHAR 2158
ENCODING 8536
SWIDTH 362 0
DWIDTH 16 0
BBX 16 16 0 -2
BITMAP
3070
3060
3060
3062
3DFF
3063
3062
3062
3062
3042
30C2
30C6
3086
3186
333C
3618
ENDCHAR
STARTCHAR 2159
ENCODING 8537
SWIDTH 362 0
DWIDTH 16 0
BBX 16 16 0 -2
BITMAP
0600
0420
3FF0
0430
0C21
0C23
183F
319E
4100
0102
FFFF
0100
0100
0100
0100
0100
ENDCHAR
STARTCHAR 215a
ENCODING 8538
SWIDTH 362 0
DWIDTH 16 0
BBX 16 16 0 -2
BITMAP
0C30
0C30
0C20
0C20
0C20
0C23
FC3F
0C20
0C20
0C20
0C20
0C20
0C20
0C20
0C20
0C20
ENDCHAR
STARTCHAR 215b
ENCODING 8539
SWIDTH 362 0
DWIDTH 16 0
BBX 16 16 0 -2
BITMAP
2002
7FFF
6080
60C0
6080
6084
6FFE
6086
6086
6186
6186
4304
430C
C60C
8C78
9830
ENDCHAR
STARTCHAR 215c
ENCODING 8540
SWIDTH 362 0
DWIDTH 16 0
BBX 16 16 0 -2
BITMAP
0300
0300
0300
0200
FFFF
0600
0600
0460
0CC0
0880
1990
130C
3304
67FE
CF86
0400
ENDCHAR
STARTCHAR 215d
ENCODING 8541
SWIDTH 362 0
DWIDTH 16 0
BBX 16 16 0 -2
BITMAP
0100
0380
0300
0610
0C08
18FC
3FE6
1004
0100
0380
0300
0610
0C08
18FC
3FE6
1004
ENDCHAR
STARTCHAR 215e
ENCODING 8542
SWIDTH 362 0
DWIDTH 16 0
BBX 16 16 0 -2
BITMAP
0000
00FE
7E86
0684
46C4
664C
344C
3C6C
1C38
1C38
1C30
1438
366C
22C6
4183
8301
ENDCHAR
STARTCHAR 215f
ENCODING 8543
SWIDTH 362 0
DWIDTH 16 0
BBX 16 16 0 -2
BITMAP
0018
181C
0C30
0660
03C0
03F8
0E1F
7006
0018
181C
0C30
0660
03C0
03F8
0E1F
7006
ENDCHAR
STARTCHAR 2160
ENCODING 8544
SWIDTH 362 0
DWIDTH 16 0
BBX 16 16 0 -2
BITMAP
0C00
0DFE
CC86
CC86
CC86
CC84
CCCC
CC4C
CC4C
CC78
FC38
0C30
0C78
0CEE
0DC7
0F02
ENDCHAR
STARTCHAR 2161
ENCODING 8545
SWIDTH 362 0
DWIDTH 16 0
BBX 16 16 0 -2
BITMAP
01C0
0180
0180
0180
0180
0180
3FFC
0180
0180
0190
0198
018C
0180
0180
FFFF
0000
ENDCHAR
STARTCHAR 2162
ENCODING 8546
SWIDTH 362 0
DWIDTH 16 0
BBX 16 16 0 -2
BITMAP
0180
0180
4184
6186
6186
6186
6186
6186
6186
4184
0180
0180
0180
0180
0182
FFFF
ENDCHAR
STARTCHAR 2163
ENCODING 8547
SWIDTH 362 0
DWIDTH 16 0
BBX 16 16 0 -2
BITMAP
0002
FFFF
0180
0180
218C
618C
6184
6184
6184
6184
618C
619C
0180
0180
0180
0100
ENDCHAR
STARTCHAR 2164
ENCODING 8548
SWIDTH 362 0
DWIDTH 16 0
BBX 16 16 0 -2
BITMAP
0070
006C
0064
0063
FFFF
0060
0060
0020
0030
01B0
7FB0
0010
0019
000D
000F
0007
ENDCHAR
STARTCHAR 2165
ENCODING 8549
SWIDTH 362 0
DWIDTH 16 0
BBX 16 16 0 -2
BITMAP
0100
0180
00C0
0044
1FFE
1806
1806
1806
1806
1804
1800
1800
1000
3000
2000
4000
ENDCHAR
STARTCHAR 2166
ENCODING 8550
SWIDTH 362 0
DWIDTH 16 0
BBX 16 16 0 -2
BITMAP
0000
1FFE
0000
0004
1FFE
1806
1806
1806
1806
1804
1800
1800
1000
3000
2000
4000
ENDCHAR
STARTCHAR 2167
ENCODING 8551
SWIDTH 362 0
DWIDTH 16 0
BBX 16 16 0 -2
BITMAP
0180
0100
0102
01FF
0100
0100
0318
0818
0C30
0430
0260
01C0
01C0
0770
1C3F
700E
ENDCHAR
STARTCHAR 2168
ENCODING 8552
SWIDTH 362 0
DWIDTH 16 0
BBX 16 16 0 -2
BITMAP
0700
0600
0600
0404
0FFE
0C10
1C30
3620
2360
01C0
01C0
01C0
0370
0E3C
381F
6006
ENDCHAR
STARTCHAR 2169
ENCODING 8553
SWIDTH 362 0
DWIDTH 16 0
BBX 16 16 0 -2
BITMAP
0008
3FFC
0180
0180
0180
0180
7FFE
0160
0340
0340
0240
0640
0C41
0841
307F
603F
ENDCHAR
STARTCHAR 216a
ENCODING 8554
SWIDTH 362 0
DWIDTH 16 0
BBX 16 16 0 -2
BITMAP
0008
1FFC
10C0
10C0
30C0
30C2
3FFF
00C0
1CC0
06C0
01C0
00F8
00DF
00CE
07C0
0180
ENDCHAR
STARTCHAR 216b
ENCODING 8555
SWIDTH 362 0
DWIDTH 16 0
BBX 16 16 0 -2
BITMAP
0800
1800
1800
1FFE
3180
2180
4180
8180
0188
3FFC
0180
0180
0180
0180
0183
0000
ENDCHAR
STARTCHAR 216c
ENCODING 8556
SWIDTH 362 0
DWIDTH 16 0
BBX 16 16 0 -2
BITMAP
0100
0180
0180
6186
6186
6186
6186
7FFC
0000
0000
0004
3FFC
0000
0000
0003
0000
ENDCHAR
STARTCHAR 216d
ENCODING 8557
SWIDTH 362 0
DWIDTH 16 0
BBX 16 16 0 -2
BITMAP
0C06
0DFE
0820
1820
3020
3020
7022
73FF
1020
1020
1020
1020
1020
1020
1020
1020
ENDCHAR
STARTCHAR 216e
ENCODING 8558
SWIDTH 362 0
DWIDTH 16 0
BBX 16 16 0 -2
BITMAP
0C30
1830
1820
1020
3032
3030
7020
D070
9070
1070
1058
10C8
108C
1186
1303
1601
ENDCHAR
STARTCHAR 216f
ENCODING 8559
SWIDTH 362 0
DWIDTH 16 0
BBX 16 16 0 -2
BITMAP
1C00
19FC
190C
3108
3108
6108
6168
A128
2128
2108
2308
2308
2208
2609
240F
2807
ENDCHAR
STARTCHAR 2170
ENCODING 8560
SWIDTH 362 0
DWIDTH 16 0
BBX 16 16 0 -2
BITMAP
0180
0100
010C
0100
0100
0103
FFFF
0180
0180
0180
0380
0240
0630
0C1C
380F
6006
ENDCHAR
STARTCHAR 2171
ENCODING 8561
SWIDTH 362 0
DWIDTH 16 0
BBX 16 16 0 -2
BITMAP
1C00
1800
1FFF
3098
3098
6098
6098
A098
2098
2098
2198
2198
2118
2319
261F
2C0F
ENDCHAR
STARTCHAR 2172
ENCODING 8562
SWIDTH 362 0
DWIDTH 16 0
BBX 16 16 0 -2
BITMAP
0C20
1830
1820
1020
3020
31A8
71AC
D124
9326
1322
1223
1421
1020
1020
11E0
1060
ENDCHAR
STARTCHAR 2173
ENCODING 8563
SWIDTH 362 0
DWIDTH 16 0
BBX 16 16 0 -2
BITMAP
0C60
1860
1840
10FF
30C3
3082
7186
D146
9336
121C
100C
1018
1030
1060
10C0
1300
ENDCHAR
STARTCHAR 2174
ENCODING 8564
SWIDTH 362 0
DWIDTH 16 0
BBX 16 16 0 -2
BITMAP
0C60
1840
1840
10C0
30CE
37FF
7088
D188
9198
1118
1398
10F0
1078
10EC
1186
1702
ENDCHAR
STARTCHAR 2175
ENCODING 8565
SWIDTH 362 0
DWIDTH 16 0
BBX 16 16 0 -2
BITMAP
0180
0180
0360
0630
0C1C
306F
60E6
8380
1E30
0070
01C0
0F0C
1838
01E0
1F00
0000
ENDCHAR
STARTCHAR 2176
ENCODING 8566
SWIDTH 362 0
DWIDTH 16 0
BBX 16 16 0 -2
BITMAP
0180
01C0
0360
0630
0C38
181F
6007
C008
3FF8
0180
0180
0180
0180
0180
0186
0000
ENDCHAR
STARTCHAR 2177
ENCODING 8567
SWIDTH 362 0
DWIDTH 16 0
BBX 16 16 0 -2
BITMAP
0002
7FFF
4002
4FF2
4C32
4C22
4C22
4FE2
4C22
4C02
4C1A
4FF2
47F2
4002
401E
4006
ENDCHAR
STARTCHAR 2178
ENCODING 8568
SWIDTH 362 0
DWIDTH 16 0
BBX 16 16 0 -2
BITMAP
0002
7FFF
4002
4002
4002
47F2
4432
4422
4422
4422
4422
4422
4002
4002
400E
4006
ENDCHAR
STARTCHAR 2179
ENCODING 8569
SWIDTH 362 0
DWIDTH 16 0
BBX 16 16 0 -2
BITMAP
0608
3E7C
3648
3648
3648
3648
3648
FFFF
3648
3648
3648
3648
3648
3648
3E58
3658
ENDCHAR
STARTCHAR 217a
ENCODING 8570
SWIDTH 362 0
DWIDTH 16 0
BBX 16 16 0 -2
BITMAP
0002
7FFF
C802
9800
1818
1800
1000
3FF8
0018
0018
FFFF
0018
0018
0030
01F0
0060
ENDCHAR
STARTCHAR 217b
ENCODING 8571
SWIDTH 362 0
DWIDTH 16 0
BBX 16 16 0 -2
BITMAP
2006
6006
6006
6006
7FFE
6000
63F0
6210
6210
6210
6210
6610
6611
4413
CC1F
9000
ENDCHAR
STARTCHAR 217c
ENCODING 8572
SWIDTH 362 0
DWIDTH 16 0
BBX 16 16 0 -2
BITMAP
1000
1803
11FF
1063
3C63
3063
1063
1063
1043
1043
16C3
3CC3
E182
4306
063C
0C08
ENDCHAR
STARTCHAR 217d
ENCODING 8573
SWIDTH 362 0
DWIDTH 16 0
BBX 16 16 0 -2
BITMAP
0303
0F03
7C32
0C32
0C32
0CB2
FFF2
0C32
0C32
0C32
0832
1832
1802
3002
201E
4006
ENDCHAR
STARTCHAR 217e
ENCODING 8574
SWIDTH 362 0
DWIDTH 16 0
BBX 16 16 0 -2
BITMAP
1000
3802
31FF
2062
6062
CE62
EC62
3862
1842
3042
28C2
64C2
FE86
E386
433C
0608
ENDCHAR
STARTCHAR 2221
ENCODING 8737
SWIDTH 362 0
DWIDTH 16 0
BBX 16 16 0 -2
BITMAP
4006
7FFE
4306
4306
4306
5FF6
4316
4316
4216
4616
4616
4C36
49F6
5066
4006
4006
ENDCHAR
STARTCHAR 2222
ENCODING 8738
SWIDTH 362 0
DWIDTH 16 0
BBX 16 16 0 -2
BITMAP
1800
3000
3006
3003
6202
4312
FFFA
1802
1802
1802
1802
1FE2
0FF6
0006
007C
0018
ENDCHAR
STARTCHAR 2223
ENCODING 8739
SWIDTH 362 0
DWIDTH 16 0
BBX 16 16 0 -2
BITMAP
1C00
1802
1FFF
3003
3082
6182
D182
1982
1342
1322
1632
1402
301A
1006
003E
000C
ENDCHAR
STARTCHAR 2224
ENCODING 8740
SWIDTH 362 0
DWIDTH 16 0
BBX 16 16 0 -2
BITMAP
1800
3000
3006
3003
6302
4612
C7FA
0C32
1B22
31E2
00C2
0182
0706
0C06
707C
0018
ENDCHAR
STARTCHAR 2225
ENCODING 8741
SWIDTH 362 0
DWIDTH 16 0
BBX 16 16 0 -2
BITMAP
1C00
1800
1808
1FFC
326C
326C
6E4C
C7CC
05CC
0CCC
19EC
313C
631E
461F
0C78
0030
ENDCHAR
STARTCHAR 2226
ENCODING 8742
SWIDTH 362 0
DWIDTH 16 0
BBX 16 16 0 -2
BITMAP
0002
7FFF
4000
4008
4FF8
4080
4080
4080
4080
4080
4080
4084
5FFE
4000
C003
4000
ENDCHAR
STARTCHAR 2227
ENCODING 8743
SWIDTH 362 0
DWIDTH 16 0
BBX 16 16 0 -2
BITMAP
0060
0060
4C60
4C60
4460
4470
4478
446C
4466
4462
7C60
4460
0060
0060
0060
0040
ENDCHAR
STARTCHAR 2228
ENCODING 8744
SWIDTH 362 0
DWIDTH 16 0
BBX 16 16 0 -2
BITMAP
0042
7E7F
1842
1842
1842
1842
1842
1842
1842
1842
1F42
FC5E
E046
0040
0040
0040
ENDCHAR
STARTCHAR 2229
ENCODING 8745
SWIDTH 362 0
DWIDTH 16 0
BBX 16 16 0 -2
BITMAP
2002
7FFF
6000
6006
6FFE
6100
6108
61FC
630C
630C
620C
460C
4608
CC18
98F0
B020
ENDCHAR
STARTCHAR 222a
ENCODING 8746
SWIDTH 362 0
DWIDTH 16 0
BBX 16 16 0 -2
BITMAP
0180
0300
0306
0760
0620
0C30
181C
330F
6307
C200
0640
0430
0C18
19FC
3F8C
1000
ENDCHAR
STARTCHAR 222b
ENCODING 8747
SWIDTH 362 0
DWIDTH 16 0
BBX 16 16 0 -2
BITMAP
001C
7FFE
0200
0200
FFFF
0600
0618
07F8
0D18
0D30
19B0
10E0
30E0
61B8
0E1F
3C06
ENDCHAR
STARTCHAR 222c
ENCODING 8748
SWIDTH 362 0
DWIDTH 16 0
BBX 16 16 0 -2
BITMAP
0070
0060
CC60
CC60
CC60
CC60
CC60
CC70
CC50
CCD8
FCC8
C88C
018C
0306
0603
1C01
ENDCHAR
STARTCHAR 222d
ENCODING 8749
SWIDTH 362 0
DWIDTH 16 0
BBX 16 16 0 -2
BITMAP
0030
0030
D820
CC20
C820
CFFF
C820
C820
C820
C820
F820
C820
0020
0020
0020
0020
ENDCHAR
STARTCHAR 222e
ENCODING 8750
SWIDTH 362 0
DWIDTH 16 0
BBX 16 16 0 -2
BITMAP
1018
1018
1018
1018
1FF8
1000
7FFE
0C00
0800
1FFC
000C
000C
000C
000C
00F8
0030
ENDCHAR
STARTCHAR 222f
ENCODING 8751
SWIDTH 362 0
DWIDTH 16 0
BBX 16 16 0 -2
BITMAP
0000
01FE
D906
CD04
C88C
C88C
C888
C8D8
C850
C870
C870
C870
C0D8
018E
0307
0C02
ENDCHAR
STARTCHAR 2230
ENCODING 8752
SWIDTH 362 0
DWIDTH 16 0
BBX 16 16 0 -2
BITMAP
00C0
00C0
D8C0
D8C8
DBFC
D8CC
D8C8
D8C8
D8C8
D888
D988
D988
C308
0209
040F
1807
ENDCHAR
STARTCHAR 2231
ENCODING 8753
SWIDTH 362 0
DWIDTH 16 0
BBX 16 16 0 -2
BITMAP
0300
0300
0330
0330
0610
0610
0C11
1811
301F
C000
1FF8
1818
1818
1818
1818
1818
ENDCHAR
STARTCHAR 2232
ENCODING 8754
SWIDTH 362 0
DWIDTH 16 0
BBX 16 16 0 -2
BITMAP
4006
7FFE
4026
4FF6
4466
4466
4246
43C6
4186
4186
43C6
467E
4C3E
5006
7FFE
4002
ENDCHAR
STARTCHAR 2233
ENCODING 8755
SWIDTH 362 0
DWIDTH 16 0
BBX 16 16 0 -2
BITMAP
3070
3060
3060
3062
31FF
7C63
3062
3062
3062
3042
34C2
38C2
E086
4186
033C
0C18
ENDCHAR
STARTCHAR 2234
ENCODING 8756
SWIDTH 362 0
DWIDTH 16 0
BBX 16 16 0 -2
BITMAP
1070
1860
1860
1860
1C60
7E70
186C
1866
1863
1863
1A60
1C60
7060
4060
0060
0060
ENDCHAR
STARTCHAR 2235
ENCODING 8757
SWIDTH 362 0
DWIDTH 16 0
BBX 16 16 0 -2
BITMAP
1830
1830
1030
1F30
3330
3338
3338
7268
4E6C
8E4C
06C6
0F87
1980
30C0
607F
401F
ENDCHAR
STARTCHAR 2236
ENCODING 8758
SWIDTH 362 0
DWIDTH 16 0
BBX 16 16 0 -2
BITMAP
1C02
183F
1833
1FB3
11B3
31B3
3133
7933
4F33
8733
0633
0637
0C32
1830
3030
6030
ENDCHAR
STARTCHAR 2237
ENCODING 8759
SWIDTH 362 0
DWIDTH 16 0
BBX 16 16 0 -2
BITMAP
0180
0180
0182
7FFF
0340
0340
0660
0530
0D98
198C
3197
DFF3
0180
0180
0180
0100
ENDCHAR
STARTCHAR 2238
ENCODING 8760
SWIDTH 362 0
DWIDTH 16 0
BBX 16 16 0 -2
BITMAP
0100
0302
7FFF
0620
0C30
0818
180E
2C37
CC30
0C30
0C30
0C30
0830
1830
3030
6030
ENDCHAR
STARTCHAR 2239
ENCODING 8761
SWIDTH 362 0
DWIDTH 16 0
BBX 16 16 0 -2
BITMAP
00C0
00C0
1880
0C80
0080
2080
1880
0880
0182
FFFF
0300
0330
0618
0C0C
1806
7002
ENDCHAR
STARTCHAR 223a
ENCODING 8762
SWIDTH 362 0
DWIDTH 16 0
BBX 16 16 0 -2
BITMAP
0100
0302
7FFF
0660
0C30
0818
100E
2007
F008
300C
3008
3008
3008
3008
3008
3008
ENDCHAR
STARTCHAR 223b
ENCODING 8763
SWIDTH 362 0
DWIDTH 16 0
BBX 16 16 0 -2
BITMAP
3000
31FF
3010
3410
FE10
E410
2410
6410
6C10
6C10
7810
1C10
3C10
6410
C0F0
0020
ENDCHAR
STARTCHAR 223c
ENCODING 8764
SWIDTH 362 0
DWIDTH 16 0
BBX 16 16 0 -2
BITMAP
0300
4180
7FFF
C003
803C
0C38
0430
0430
0260
0340
01C0
01C0
03E0
0638
181F
7006
ENDCHAR
STARTCHAR 223d
ENCODING 8765
SWIDTH 362 0
DWIDTH 16 0
BBX 16 16 0 -2
BITMAP
0300
4180
7FFF
C003
8424
0660
0460
0460
0460
0460
0C60
0C60
0861
1863
307F
C03E
ENDCHAR
STARTCHAR 223e
ENCODING 8766
SWIDTH 362 0
DWIDTH 16 0
BBX 16 16 0 -2
BITMAP
0006
0604
7E04
0604
44FF
4404
2C44
2C64
1824
1824
1804
3C04
2404
6604
423C
8008
ENDCHAR
STARTCHAR 223f
ENCODING 8767
SWIDTH 362 0
DWIDTH 16 0
BBX 16 16 0 -2
BITMAP
1800
1800
3006
3FFE
6084
4080
0080
1888
188C
1086
3083
2083
4081
8080
0780
0180
ENDCHAR
STARTCHAR 2240
ENCODING 8768
SWIDTH 362 0
DWIDTH 16 0
BBX 16 16 0 -2
BITMAP
2004
7FFE
6006
7FFE
6004
6018
67F8
6218
6330
6130
60E0
40C0
41E0
C338
8E0F
3802
ENDCHAR
STARTCHAR 2241
ENCODING 8769
SWIDTH 362 0
DWIDTH 16 0
BBX 16 16 0 -2
BITMAP
2000
31FC
218C
A188
AD88
AD88
AD88
AD88
AD88
AD88
AD88
AD88
FF08
0309
060F
1C07
ENDCHAR
STARTCHAR 2242
ENCODING 8770
SWIDTH 362 0
DWIDTH 16 0
BBX 16 16 0 -2
BITMAP
0180
318C
218C
218C
3FFC
0180
0180
0180
0180
0340
0240
0620
0C30
181C
300F
6006
ENDCHAR
STARTCHAR 2243
ENCODING 8771
SWIDTH 362 0
DWIDTH 16 0
BBX 16 16 0 -2
BITMAP
0180
318C
218C
218C
3FFC
0300
0180
0180
01C0
0340
0220
0630
0C18
180E
3007
6002
ENDCHAR
STARTCHAR 2244
ENCODING 8772
SWIDTH 362 0
DWIDTH 16 0
BBX 16 16 0 -2
BITMAP
0180
318C
218C
3FFC
0010
1FF8
0630
0630
063E
0606
0406
0C06
0806
1804
307C
C018
ENDCHAR
STARTCHAR 2245
ENCODING 8773
SWIDTH 362 0
DWIDTH 16 0
BBX 16 16 0 -2
BITMAP
0008
1FFC
0008
0008
3008
3008
3FF8
3000
3000
3FFC
3004
3004
3004
3004
3FFC
3004
ENDCHAR
STARTCHAR 2246
ENCODING 8774
SWIDTH 362 0
DWIDTH 16 0
BBX 16 16 0 -2
BITMAP
1840
1860
1840
7E40
5E40
5E40
5E46
5E40
5E40
5E40
5E40
5E40
1841
1841
187F
107F
ENDCHAR
STARTCHAR 2247
ENCODING 8775
SWIDTH 362 0
DWIDTH 16 0
BBX 16 16 0 -2
BITMAP
0180
4083
7FFF
6000
6FFE
6040
6040
6040
6040
6040
4040
4040
C040
C040
83C0
0080
ENDCHAR
STARTCHAR 2248
ENCODING 8776
SWIDTH 362 0
DWIDTH 16 0
BBX 16 16 0 -2
BITMAP
0180
00C0
7FFF
6000
61C0
6180
6180
6100
6300
6300
6218
460C
4C0E
DFF6
8E02
0000
ENDCHAR
STARTCHAR 2249
ENCODING 8777
SWIDTH 362 0
DWIDTH 16 0
BBX 16 16 0 -2
BITMAP
0060
006C
0064
FFFF
0060
0060
0220
0020
0030
0030
0010
0098
7FC8
000D
0007
0003
ENDCHAR
STARTCHAR 224a
ENCODING 8778
SWIDTH 362 0
DWIDTH 16 0
BBX 16 16 0 -2
BITMAP
0C00
0CFF
0803
0802
4802
6802
2802
0802
08FE
1802
1802
1802
1002
3002
60FE
C002
ENDCHAR
STARTCHAR 224b
ENCODING 8779
SWIDTH 362 0
DWIDTH 16 0
BBX 16 16 0 -2
BITMAP
0C00
19FF
3010
2010
4C10
1810
3010
3010
7010
F010
B010
3010
3010
3010
30F0
3020
ENDCHAR
STARTCHAR 224c
ENCODING 8780
SWIDTH 362 0
DWIDTH 16 0
BBX 16 16 0 -2
BITMAP
3000
33FF
2030
3030
3830
B830
A030
A030
2030
2030
2030
2030
2030
2030
21F0
2060
ENDCHAR
STARTCHAR 224d
ENCODING 8781
SWIDTH 362 0
DWIDTH 16 0
BBX 16 16 0 -2
BITMAP
3070
3060
2060
3060
39FF
B863
A063
A063
2063
2043
20C3
20C3
2082
2186
233C
2C08
ENDCHAR
STARTCHAR 224e
ENCODING 8782
SWIDTH 362 0
DWIDTH 16 0
BBX 16 16 0 -2
BITMAP
00FC
7F00
6006
6006
6006
6006
600C
601C
6030
60E0
6380
4600
4C01
D803
8FFF
87FE
ENDCHAR
STARTCHAR 224f
ENCODING 8783
SWIDTH 362 0
DWIDTH 16 0
BBX 16 16 0 -2
BITMAP
1800
1002
11FF
1462
7E62
1062
1062
1C62
7842
F042
10C2
10C2
1186
1106
733C
3608
ENDCHAR
STARTCHAR 2250
ENCODING 8784
SWIDTH 362 0
DWIDTH 16 0
BBX 16 16 0 -2
BITMAP
30C0
30C0
3080
3088
7BFC
308C
3088
3888
7088
F188
3188
3108
3308
3309
F60F
6C07
ENDCHAR
STARTCHAR 2251
ENCODING 8785
SWIDTH 362 0
DWIDTH 16 0
BBX 16 16 0 -2
BITMAP
0000
3306
23FE
2306
2306
2306
2306
23FE
2306
2306
2306
2306
2306
23FE
2306
2000
ENDCHAR
STARTCHAR 2252
ENCODING 8786
SWIDTH 362 0
DWIDTH 16 0
BBX 16 16 0 -2
BITMAP
0180
0190
0198
0182
7FFE
0380
03C0
07C0
0DA0
0DB0
1998
318E
6187
C183
8180
0100
ENDCHAR
STARTCHAR 2253
ENCODING 8787
SWIDTH 362 0
DWIDTH 16 0
BBX 16 16 0 -2
BITMAP
01C0
0180
09FC
0D80
0D98
1C18
1818
3430
6330
C160
00C0
0180
0300
0600
1C00
7000
ENDCHAR
STARTCHAR 2254
ENCODING 8788
SWIDTH 362 0
DWIDTH 16 0
BBX 16 16 0 -2
BITMAP
0200
7F70
0660
0C60
19E6
31FC
21F0
6168
C36C
C667
8C63
91E0
C040
C001
7FFF
3FFF
ENDCHAR
STARTCHAR 2255
ENCODING 8789
SWIDTH 362 0
DWIDTH 16 0
BBX 16 16 0 -2
BITMAP
2180
3180
1180
0180
8980
498E
79F8
1180
3180
3180
6180
E180
6181
6181
61FF
20FF
ENDCHAR
STARTCHAR 2256
ENCODING 8790
SWIDTH 362 0
DWIDTH 16 0
BBX 16 16 0 -2
BITMAP
2000
31F8
1118
0118
8918
4918
7918
1118
3118
3118
6318
E318
6219
6619
641F
280F
ENDCHAR
STARTCHAR 2257
ENCODING 8791
SWIDTH 362 0
DWIDTH 16 0
BBX 16 16 0 -2
BITMAP
01C0
1180
0D80
0584
018E
7FD8
07F0
07E0
05A0
0DB0
0998
199C
318E
6187
C780
0300
ENDCHAR
STARTCHAR 2258
ENCODING 8792
SWIDTH 362 0
DWIDTH 16 0
BBX 16 16 0 -2
BITMAP
4060
3040
3040
0040
8840
C840
78C0
10E0
30E0
30A0
61B0
E110
C318
630E
6607
6C02
ENDCHAR
STARTCHAR 2259
ENCODING 8793
SWIDTH 362 0
DWIDTH 16 0
BBX 16 16 0 -2
BITMAP
2002
33FF
10C0
00C0
8880
C980
7986
1103
3002
3002
6002
E002
6006
6006
603C
2008
ENDCHAR
STARTCHAR 225a
ENCODING 8794
SWIDTH 362 0
DWIDTH 16 0
BBX 16 16 0 -2
BITMAP
00C0
00C0
7E80
1080
1080
1080
1080
7E80
1080
1080
1080
1080
1E81
F881
C0C3
007F
ENDCHAR
STARTCHAR 225b
ENCODING 8795
SWIDTH 362 0
DWIDTH 16 0
BBX 16 16 0 -2
BITMAP
0180
00C3
3FFF
B000
F000
7000
3000
3000
F000
B000
3000
3000
2000
6000
4000
8000
ENDCHAR
STARTCHAR 225c
ENCODING 8796
SWIDTH 362 0
DWIDTH 16 0
BBX 16 16 0 -2
BITMAP
0000
3F58
0360
0244
2666
162C
1C30
0C30
1818
180C
300F
6007
C000
0000
0000
0000
ENDCHAR
STARTCHAR 225d
ENCODING 8797
SWIDTH 362 0
DWIDTH 16 0
BBX 16 16 0 -2
BITMAP
0022
027F
7F66
0664
466C
666C
2466
3C62
1C63
1861
1C63
3663
367E
6364
4360
8060
ENDCHAR
STARTCHAR 225e
ENCODING 8798
SWIDTH 362 0
DWIDTH 16 0
BBX 16 16 0 -2
BITMAP
0022
FF7F
1866
1864
186C
186C
1866
1862
1863
1861
1863
1863
187E
1864
7860
3060
ENDCHAR
STARTCHAR 225f
ENCODING 8799
SWIDTH 362 0
DWIDTH 16 0
BBX 16 16 0 -2
BITMAP
0622
3E3F
2632
2636
2634
263C
2636
2632
2633
2631
2631
663F
66F7
47B0
C630
8030
ENDCHAR
STARTCHAR 2260
ENCODING 8800
SWIDTH 362 0
DWIDTH 16 0
BBX 16 16 0 -2
BITMAP
8800
FFFF
C830
D830
D030
D030
D830
C830
CC30
CC30
CC30
FC30
D830
C030
C0F0
C060
ENDCHAR
STARTCHAR 2261
ENCODING 8801
SWIDTH 362 0
DWIDTH 16 0
BBX 16 16 0 -2
BITMAP
0002
FFFF
0180
0180
7FFE
4186
4186
5996
5996
5996
5996
5FF6
4016
4006
401E
400C
ENDCHAR
STARTCHAR 2262
ENCODING 8802
SWIDTH 362 0
DWIDTH 16 0
BBX 16 16 0 -2
BITMAP
0660
0660
0660
0660
0662
7E7E
0660
0660
0660
0661
0661
FC7F
E03E
0000
0002
FFFF
ENDCHAR
STARTCHAR 2263
ENCODING 8803
SWIDTH 362 0
DWIDTH 16 0
BBX 16 16 0 -2
BITMAP
000C
07F0
3980
0180
018C
0180
0180
0180
FFFF
0300
0300
0610
0C0C
1806
3FFF
3C03
ENDCHAR
STARTCHAR 2264
ENCODING 8804
SWIDTH 362 0
DWIDTH 16 0
BBX 16 16 0 -2
BITMAP
1C30
1830
3020
3020
6220
4120
FFA0
C0A0
0020
7F20
6320
6320
6321
6321
7F3F
421F
ENDCHAR
STARTCHAR 2265
ENCODING 8805
SWIDTH 362 0
DWIDTH 16 0
BBX 16 16 0 -2
BITMAP
0C00
0FF0
0860
1040
30D8
018C
0188
FFFF
0188
0188
1FF8
0188
0180
0180
0780
0300
ENDCHAR
STARTCHAR 2266
ENCODING 8806
SWIDTH 362 0
DWIDTH 16 0
BBX 16 16 0 -2
BITMAP
0000
7FFE
0000
0000
1FF8
1818
1818
1818
1FF8
1818
1818
1818
1FF8
1008
0002
FFFF
ENDCHAR
STARTCHAR 2267
ENCODING 8807
SWIDTH 362 0
DWIDTH 16 0
BBX 16 16 0 -2
BITMAP
0C70
1860
186C
10F0
3160
3060
7066
D060
9060
1060
17FF
1060
1060
1060
1060
1060
ENDCHAR
STARTCHAR 2268
ENCODING 8808
SWIDTH 362 0
DWIDTH 16 0
BBX 16 16 0 -2
BITMAP
0C30
1830
1820
1120
31A6
3123
7323
D321
9226
1424
102C
1018
1030
1060
1180
1700
ENDCHAR
STARTCHAR 2269
ENCODING 8809
SWIDTH 362 0
DWIDTH 16 0
BBX 16 16 0 -2
BITMAP
1C40
1820
1A22
33FF
3333
6333
6333
A33B
237B
234F
23CF
2387
2303
2303
230F
2306
ENDCHAR
STARTCHAR 226a
ENCODING 8810
SWIDTH 362 0
DWIDTH 16 0
BBX 16 16 0 -2
BITMAP
1CEC
1BCC
188C
308C
308C
708C
70CF
B0CC
308C
308C
318C
318C
310C
330C
320C
340C
ENDCHAR
STARTCHAR 226b
ENCODING 8811
SWIDTH 362 0
DWIDTH 16 0
BBX 16 16 0 -2
BITMAP
1C1C
1BF0
1860
3060
3060
6066
67FE
A060
20E0
20F0
2090
2198
211C
230E
2607
3C02
ENDCHAR
STARTCHAR 226c
ENCODING 8812
SWIDTH 362 0
DWIDTH 16 0
BBX 16 16 0 -2
BITMAP
1D80
1980
1900
33FF
335B
625A
64DA
A0DA
2092
21B2
2322
2262
2446
2086
213C
2008
ENDCHAR
STARTCHAR 226d
ENCODING 8813
SWIDTH 362 0
DWIDTH 16 0
BBX 16 16 0 -2
BITMAP
1C04
19FE
180C
30D8
3070
6023
67FF
A022
2020
2020
2020
2020
2020
2020
21E0
2060
ENDCHAR
STARTCHAR 226e
ENCODING 8814
SWIDTH 362 0
DWIDTH 16 0
BBX 16 16 0 -2
BITMAP
1C02
1BFF
1860
3060
3060
6060
6060
A3FE
2060
2060
2060
2060
2060
2060
2063
2000
ENDCHAR
STARTCHAR 226f
ENCODING 8815
SWIDTH 362 0
DWIDTH 16 0
BBX 16 16 0 -2
BITMAP
1C00
1BFE
1B00
3300
3304
63FE
6344
A34C
234C
2368
2238
2230
2638
246E
2CC7
3B02
ENDCHAR
STARTCHAR 2270
ENCODING 8816
SWIDTH 362 0
DWIDTH 16 0
BBX 16 16 0 -2
BITMAP
1CC0
18C0
1882
37FF
3080
6084
61FE
A184
21CC
214C
2338
2330
2238
246E
20C7
2703
ENDCHAR
STARTCHAR 2271
ENCODING 8817
SWIDTH 362 0
DWIDTH 16 0
BBX 16 16 0 -2
BITMAP
1F00
1B04
1BFE
3600
35FC
6000
600C
A00C
200C
200C
200C
200C
2004
2007
2003
2001
ENDCHAR
STARTCHAR 2272
ENCODING 8818
SWIDTH 362 0
DWIDTH 16 0
BBX 16 16 0 -2
BITMAP
1D80
1980
1906
3303
3202
6602
65F2
A002
2002
2002
21F2
2002
2006
2006
203C
2008
ENDCHAR
STARTCHAR 2273
ENCODING 8819
SWIDTH 362 0
DWIDTH 16 0
BBX 16 16 0 -2
BITMAP
1CC0
18C0
18D8
30CC
30C8
60C9
618D
A30F
2676
2060
2063
2060
2060
2060
2060
2060
ENDCHAR
STARTCHAR 2274
ENCODING 8820
SWIDTH 362 0
DWIDTH 16 0
BBX 16 16 0 -2
BITMAP
1C98
19F8
1998
3198
3198
610F
6306
A5FC
210C
208C
20D8
2070
2070
20FC
218F
2F06
ENDCHAR
STARTCHAR 2275
ENCODING 8821
SWIDTH 362 0
DWIDTH 16 0
BBX 16 16 0 -2
BITMAP
0180
0180
03C0
0660
0C30
181C
37F7
C002
0000
3FFC
0300
0600
0C18
183C
3FE4
3006
ENDCHAR
STARTCHAR 2276
ENCODING 8822
SWIDTH 362 0
DWIDTH 16 0
BBX 16 16 0 -2
BITMAP
0180
0380
03C0
0660
0C30
181E
381F
D802
1800
1800
1830
1800
1800
1800
1808
1800
ENDCHAR
STARTCHAR 2277
ENCODING 8823
SWIDTH 362 0
DWIDTH 16 0
BBX 16 16 0 -2
BITMAP
0180
0180
0380
0340
0660
0C38
300F
E806
0C30
0830
0C30
1C38
1A68
3346
61C3
C301
ENDCHAR
STARTCHAR 2278
ENCODING 8824
SWIDTH 362 0
DWIDTH 16 0
BBX 16 16 0 -2
BITMAP
0440
0630
0C18
190C
3307
C623
0C18
180C
3FFC
3664
0660
0660
0C61
0861
307F
603F
ENDCHAR
STARTCHAR 2279
ENCODING 8825
SWIDTH 362 0
DWIDTH 16 0
BBX 16 16 0 -2
BITMAP
0300
0180
03C0
0660
0C38
181F
3007
D010
1FF8
1818
1818
1FF8
1818
1818
1FF8
1010
ENDCHAR
STARTCHAR 227a
ENCODING 8826
SWIDTH 362 0
DWIDTH 16 0
BBX 16 16 0 -2
BITMAP
000E
0180
0180
1FF8
0180
0180
7FFE
0080
02C0
0640
0620
0C30
0C18
180E
3007
C002
ENDCHAR
STARTCHAR 227b
ENCODING 8827
SWIDTH 362 0
DWIDTH 16 0
BBX 16 16 0 -2
BITMAP
0002
7FFF
0180
0188
3FFC
3188
3188
7FFF
3188
3188
FFFF
3008
3008
3008
3078
3018
ENDCHAR
STARTCHAR 227c
ENCODING 8828
SWIDTH 362 0
DWIDTH 16 0
BBX 16 16 0 -2
BITMAP
0002
C1FE
6198
2118
0B18
1318
13FF
3018
2038
6078
E058
C098
6118
6218
6C78
0030
ENDCHAR
STARTCHAR 227d
ENCODING 8829
SWIDTH 362 0
DWIDTH 16 0
BBX 16 16 0 -2
BITMAP
0060
C040
6040
23FC
004C
104C
304C
204C
27FF
60C0
E0D8
C08C
6186
6306
6602
0C02
ENDCHAR
STARTCHAR 227e
ENCODING 8830
SWIDTH 362 0
DWIDTH 16 0
BBX 16 16 0 -2
BITMAP
0070
C060
6060
27FF
0663
1662
3662
2662
27FE
6462
E060
C060
6060
6060
6060
0060
ENDCHAR
STARTCHAR 2321
ENCODING 8993
SWIDTH 362 0
DWIDTH 16 0
BBX 16 16 0 -2
BITMAP
003C
C3F0
6060
2060
0860
1062
17FE
3060
2070
6050
E0D8
C088
618C
6306
6603
1C01
ENDCHAR
STARTCHAR 2322
ENCODING 8994
SWIDTH 362 0
DWIDTH 16 0
BBX 16 16 0 -2
BITMAP
0008
3FFC
2008
2048
27E8
2008
2028
3FF8
2308
2208
264C
6C6C
6FF5
4C37
C007
8003
ENDCHAR
STARTCHAR 2323
ENCODING 8995
SWIDTH 362 0
DWIDTH 16 0
BBX 16 16 0 -2
BITMAP
0300
0180
0183
0000
0000
6036
6626
6366
61C6
61C6
6366
6636
6C1E
6006
7FFE
0004
ENDCHAR
STARTCHAR 2324
ENCODING 8996
SWIDTH 362 0
DWIDTH 16 0
BBX 16 16 0 -2
BITMAP
1C03
1803
181A
7F12
1912
1912
1912
1912
FFD2
1812
1412
3312
3182
6182
409E
8006
ENDCHAR
STARTCHAR 2325
ENCODING 8997
SWIDTH 362 0
DWIDTH 16 0
BBX 16 16 0 -2
BITMAP
3003
2103
7FB2
4032
8332
0032
0032
7F32
0632
0832
1032
2032
4082
C082
FF9E
7F86
ENDCHAR
STARTCHAR 2326
ENCODING 8998
SWIDTH 362 0
DWIDTH 16 0
BBX 16 16 0 -2
BITMAP
0018
1FF8
0318
0318
0218
0618
0CF0
3020
0202
7F7F
1332
3332
3322
2366
5E5E
8C8C
ENDCHAR
STARTCHAR 2327
ENCODING 8999
SWIDTH 362 0
DWIDTH 16 0
BBX 16 16 0 -2
BITMAP
1003
1803
08B2
FFB2
0232
4232
2632
3632
1432
1C32
0C32
1E32
3302
3302
611E
C006
ENDCHAR
STARTCHAR 2328
ENCODING 9000
SWIDTH 362 0
DWIDTH 16 0
BBX 16 16 0 -2
BITMAP
0030
0230
7E30
0030
0033
0333
FF33
1033
3033
2623
6363
C763
F9C2
40C6
01BC
0308
ENDCHAR
STARTCHAR 2329
ENCODING 9001
SWIDTH 362 0
DWIDTH 16 0
BBX 16 16 0 -2
BITMAP
0180
0180
0184
7FFE
0180
1998
1998
1918
1A18
FEFF
1818
1818
1018
3018
2018
4010
ENDCHAR
STARTCHAR 232a
ENCODING 9002
SWIDTH 362 0
DWIDTH 16 0
BBX 16 16 0 -2
BITMAP
0100
0180
0180
7FFE
0180
1190
1998
1918
1818
FFFF
1818
1818
1818
1818
1FF8
1010
ENDCHAR
STARTCHAR 232b
ENCODING 9003
SWIDTH 362 0
DWIDTH 16 0
BBX 16 16 0 -2
BITMAP
3060
3040
2040
2040
FCCC
20CC
2044
2246
2247
26C5
24C4
2084
218C
230C
2678
2C30
ENDCHAR
STARTCHAR 232c
ENCODING 9004
SWIDTH 362 0
DWIDTH 16 0
BBX 16 16 0 -2
BITMAP
0006
7FFE
01C0
03E0
079C
1D86
2180
0180
0100
0180
0180
7FFF
0180
0180
0180
0100
ENDCHAR
STARTCHAR 232d
ENCODING 9005
SWIDTH 362 0
DWIDTH 16 0
BBX 16 16 0 -2
BITMAP
4004
61FE
4180
4180
4180
4180
4180
FFFE
0186
0186
0186
0186
0186
0186
0186
0100
ENDCHAR
STARTCHAR 232e
ENCODING 9006
SWIDTH 362 0
DWIDTH 16 0
BBX 16 16 0 -2
BITMAP
2002
7FFF
6002
7FFE
60C0
6180
6130
6230
6660
63C0
6180
4310
4608
CFFC
8F86
8400
ENDCHAR
STARTCHAR 232f
ENCODING 9007
SWIDTH 362 0
DWIDTH 16 0
BBX 16 16 0 -2
BITMAP
2002
7FFF
60C0
60C0
60C0
60C0
60C4
6FFC
60C0
60C0
60D8
40CC
40C4
C0C2
9FFF
8000
ENDCHAR
STARTCHAR 2330
ENCODING 9008
SWIDTH 362 0
DWIDTH 16 0
BBX 16 16 0 -2
BITMAP
0000
7FFF
6000
60C0
60C0
61A0
6318
660E
6C36
6000
6018
401C
4018
C030
8020
8060
ENDCHAR
STARTCHAR 2331
ENCODING 9009
SWIDTH 362 0
DWIDTH 16 0
BBX 16 16 0 -2
BITMAP
0004
7FFE
0306
0306
0316
3FF3
0303
0308
7FFC
0200
0640
0C30
1818
31F8
7F8C
3004
ENDCHAR
STARTCHAR 2332
ENCODING 9010
SWIDTH 362 0
DWIDTH 16 0
BBX 16 16 0 -2
BITMAP
0180
0180
7FFC
6184
618C
218C
0180
0108
7FFC
0818
0C30
0660
03C0
07F0
1C3F
700E
ENDCHAR
STARTCHAR 2333
ENCODING 9011
SWIDTH 362 0
DWIDTH 16 0
BBX 16 16 0 -2
BITMAP
0010
1FF8
0870
06E0
03C0
0770
1C18
6008
0606
0646
2626
3C3C
1C18
1C3E
3667
C1C2
ENDCHAR
STARTCHAR 2334
ENCODING 9012
SWIDTH 362 0
DWIDTH 16 0
BBX 16 16 0 -2
BITMAP
0002
0307
D984
CCC8
C870
C830
C820
C820
C820
C820
F820
C820
0020
0020
0020
0020
ENDCHAR
STARTCHAR 2335
ENCODING 9013
SWIDTH 362 0
DWIDTH 16 0
BBX 16 16 0 -2
BITMAP
0000
0000
D9FE
CC20
C820
C820
C820
C820
C820
C820
C820
C820
C020
0020
07FF
0000
ENDCHAR
STARTCHAR 2336
ENCODING 9014
SWIDTH 362 0
DWIDTH 16 0
BBX 16 16 0 -2
BITMAP
0002
01FF
D903
CD03
C903
C903
C9FF
C900
C900
C900
F900
CB00
0300
0200
0600
0C00
ENDCHAR
STARTCHAR 2337
ENCODING 9015
SWIDTH 362 0
DWIDTH 16 0
BBX 16 16 0 -2
BITMAP
000C
007C
D9E0
CC20
C820
C820
C822
CFFF
C820
C820
F820
C820
0020
0020
0020
0020
ENDCHAR
STARTCHAR 2338
ENCODING 9016
SWIDTH 362 0
DWIDTH 16 0
BBX 16 16 0 -2
BITMAP
0018
1FF8
1018
1018
1018
1018
1FF8
0180
0100
0103
FFFF
0340
0630
0C18
380F
6004
ENDCHAR
STARTCHAR 2339
ENCODING 9017
SWIDTH 362 0
DWIDTH 16 0
BBX 16 16 0 -2
BITMAP
0000
0402
FEFF
C6C3
C6C2
C6C2
C6C2
C6C2
C6C2
C6C2
C6C2
C6C2
C6C2
FEFE
C4C2
0000
ENDCHAR
STARTCHAR 233a
ENCODING 9018
SWIDTH 362 0
DWIDTH 16 0
BBX 16 16 0 -2
BITMAP
0002
03FF
D860
CC60
C860
C870
C878
C86C
C866
C860
F860
C860
0060
0060
0060
0060
ENDCHAR
STARTCHAR 233b
ENCODING 9019
SWIDTH 362 0
DWIDTH 16 0
BBX 16 16 0 -2
BITMAP
0018
1FF8
1818
1818
1818
1818
1FF8
0000
0000
3FFC
2004
2004
2004
2004
300C
300C
ENDCHAR
STARTCHAR 233c
ENCODING 9020
SWIDTH 362 0
DWIDTH 16 0
BBX 16 16 0 -2
BITMAP
0000
0060
D8C0
D8C0
D880
D9B0
D930
DB30
DA20
D860
D84C
D8C6
C083
019F
03F1
0101
ENDCHAR
STARTCHAR 233d
ENCODING 9021
SWIDTH 362 0
DWIDTH 16 0
BBX 16 16 0 -2
BITMAP
4002
7FFF
4672
4662
4662
4662
466A
4662
4662
4462
4C62
4C62
4862
5062
7FFE
4002
ENDCHAR
STARTCHAR 233e
ENCODING 9022
SWIDTH 362 0
DWIDTH 16 0
BBX 16 16 0 -2
BITMAP
4002
7FFF
4062
4042
404A
5FFA
4042
4C42
4642
4642
4242
40C2
43C2
4082
7FFE
4002
ENDCHAR
STARTCHAR 233f
ENCODING 9023
SWIDTH 362 0
DWIDTH 16 0
BBX 16 16 0 -2
BITMAP
3060
3060
3060
3060
3060
7C60
306E
3060
3060
3060
3460
3860
E060
4060
0063
0000
ENDCHAR
STARTCHAR 2340
ENCODING 9024
SWIDTH 362 0
DWIDTH 16 0
BBX 16 16 0 -2
BITMAP
0180
0180
0102
FFFF
0360
0630
0C1E
390F
E180
0180
018C
0180
0180
0180
0183
0000
ENDCHAR
STARTCHAR 2341
ENCODING 9025
SWIDTH 362 0
DWIDTH 16 0
BBX 16 16 0 -2
BITMAP
0C30
1E30
7030
1030
1030
1030
FE36
1030
1030
3030
3030
3030
2030
6030
C033
8000
ENDCHAR
STARTCHAR 2342
ENCODING 9026
SWIDTH 362 0
DWIDTH 16 0
BBX 16 16 0 -2
BITMAP
301C
30F8
31B0
3030
3030
7C33
33FF
3030
3030
3030
3430
3830
E030
4030
0030
0030
ENDCHAR
STARTCHAR 2343
ENCODING 9027
SWIDTH 362 0
DWIDTH 16 0
BBX 16 16 0 -2
BITMAP
0C30
0C30
4830
2830
3830
1830
0833
0830
0830
0830
3830
E830
C830
0830
0836
0800
ENDCHAR
STARTCHAR 2344
ENCODING 9028
SWIDTH 362 0
DWIDTH 16 0
BBX 16 16 0 -2
BITMAP
0600
0C10
0FF8
1E70
33C0
03E0
0E3F
718E
C190
1FF8
1180
1188
3FFC
0180
0180
0100
ENDCHAR
STARTCHAR 2345
ENCODING 9029
SWIDTH 362 0
DWIDTH 16 0
BBX 16 16 0 -2
BITMAP
0070
07C0
1900
0300
7FFE
0620
0C1C
300F
E672
0460
0460
0460
0460
0C60
0860
1060
ENDCHAR
STARTCHAR 2346
ENCODING 9030
SWIDTH 362 0
DWIDTH 16 0
BBX 16 16 0 -2
BITMAP
0180
0300
7FFE
0660
0C30
081C
100F
2C36
CC30
0C22
7FFE
0C20
0820
1820
1020
2020
ENDCHAR
STARTCHAR 2347
ENCODING 9031
SWIDTH 362 0
DWIDTH 16 0
BBX 16 16 0 -2
BITMAP
1818
1818
1818
1818
1E1A
1818
1818
1018
1818
3C38
363C
2224
6366
4346
C0C3
8181
ENDCHAR
STARTCHAR 2348
ENCODING 9032
SWIDTH 362 0
DWIDTH 16 0
BBX 16 16 0 -2
BITMAP
0180
0300
7FFE
0660
0430
081C
100F
6186
8100
0103
FFFF
0340
0630
0C1C
380F
6004
ENDCHAR
STARTCHAR 2349
ENCODING 9033
SWIDTH 362 0
DWIDTH 16 0
BBX 16 16 0 -2
BITMAP
2008
63FC
6088
6888
FC88
E888
6888
6FF8
4888
D888
F888
3088
3889
6C89
C08F
0087
ENDCHAR
STARTCHAR 234a
ENCODING 9034
SWIDTH 362 0
DWIDTH 16 0
BBX 16 16 0 -2
BITMAP
2070
6068
606C
6864
FC62
EBFF
6860
6860
4820
D830
F830
3010
3819
6C0D
C007
0003
ENDCHAR
STARTCHAR 234b
ENCODING 9035
SWIDTH 362 0
DWIDTH 16 0
BBX 16 16 0 -2
BITMAP
20C0
60C0
6088
69FC
FD98
E918
6B18
6A10
4830
D830
F878
30C8
38CC
6D86
C303
0C01
ENDCHAR
STARTCHAR 234c
ENCODING 9036
SWIDTH 362 0
DWIDTH 16 0
BBX 16 16 0 -2
BITMAP
0600
0630
7FFE
0C60
1860
17C0
0738
3C0C
6404
0630
0E33
0C30
1C60
1FE0
0738
7C0C
ENDCHAR
STARTCHAR 234d
ENCODING 9037
SWIDTH 362 0
DWIDTH 16 0
BBX 16 16 0 -2
BITMAP
0C60
0C60
4860
286C
386C
1BFF
08CC
08CC
088C
0988
39D8
E878
C83C
0866
08C3
0F01
ENDCHAR
STARTCHAR 234e
ENCODING 9038
SWIDTH 362 0
DWIDTH 16 0
BBX 16 16 0 -2
BITMAP
1998
3330
3330
1998
0888
0030
1FF0
0060
0080
0182
7FFE
0180
0180
0180
0780
0300
ENDCHAR
STARTCHAR 234f
ENCODING 9039
SWIDTH 362 0
DWIDTH 16 0
BBX 16 16 0 -2
BITMAP
0300
4180
7FFF
C603
C604
0620
0FF0
0C60
1860
30C0
01C0
03C0
0720
0C18
380F
6006
ENDCHAR
STARTCHAR 2350
ENCODING 9040
SWIDTH 362 0
DWIDTH 16 0
BBX 16 16 0 -2
BITMAP
0300
4180
7FFF
C013
CFFC
0018
0018
1FF0
1800
1FFC
100C
000C
000C
0008
01F8
0030
ENDCHAR
STARTCHAR 2351
ENCODING 9041
SWIDTH 362 0
DWIDTH 16 0
BBX 16 16 0 -2
BITMAP
0100
0180
319C
1998
19B0
09A0
018E
0006
0006
0006
1FFE
0006
0006
0006
7FFE
0004
ENDCHAR
STARTCHAR 2352
ENCODING 9042
SWIDTH 362 0
DWIDTH 16 0
BBX 16 16 0 -2
BITMAP
0100
0180
0DA0
1998
118C
2186
4182
0180
0100
0180
0180
1FFC
0180
0180
0182
FFFF
ENDCHAR
STARTCHAR 2353
ENCODING 9043
SWIDTH 362 0
DWIDTH 16 0
BBX 16 16 0 -2
BITMAP
4006
7FFE
6006
7FFE
6000
67F8
6038
6060
60C0
60C6
7FFE
40C0
40C0
C0C0
83C0
8180
ENDCHAR
STARTCHAR 2354
ENCODING 9044
SWIDTH 362 0
DWIDTH 16 0
BBX 16 16 0 -2
BITMAP
0008
1FFC
1808
1808
1808
1FF8
1888
18C0
1260
31B0
30F8
205C
620F
C306
8180
00C0
ENDCHAR
STARTCHAR 2355
ENCODING 9045
SWIDTH 362 0
DWIDTH 16 0
BBX 16 16 0 -2
BITMAP
1000
1800
11FE
1430
D630
D630
D630
D630
D630
D630
D630
D630
FE30
0030
01FF
0000
ENDCHAR
STARTCHAR 2356
ENCODING 9046
SWIDTH 362 0
DWIDTH 16 0
BBX 16 16 0 -2
BITMAP
3004
31FE
300C
3018
F420
B420
B420
B7FF
B420
B420
B420
B420
FC20
0020
01E0
0060
ENDCHAR
STARTCHAR 2357
ENCODING 9047
SWIDTH 362 0
DWIDTH 16 0
BBX 16 16 0 -2
BITMAP
0100
0300
0306
0660
0420
0C18
180C
3007
E102
0180
218C
318C
218C
218C
318C
200C
ENDCHAR
STARTCHAR 2358
ENCODING 9048
SWIDTH 362 0
DWIDTH 16 0
BBX 16 16 0 -2
BITMAP
0018
000C
0008
3FF8
2008
2002
3006
3FFE
1FFC
0180
0180
318C
218C
218C
318C
200C
ENDCHAR
STARTCHAR 2359
ENCODING 9049
SWIDTH 362 0
DWIDTH 16 0
BBX 16 16 0 -2
BITMAP
1000
18FE
1086
1486
D686
D686
D686
D6FE
D680
D680
D680
D680
FE81
0081
00FF
007F
ENDCHAR
STARTCHAR 235a
ENCODING 9050
SWIDTH 362 0
DWIDTH 16 0
BBX 16 16 0 -2
BITMAP
0180
0180
6186
6186
6186
6186
7FFE
0104
0180
0180
6187
4186
4186
4186
C186
4006
ENDCHAR
STARTCHAR 235b
ENCODING 9051
SWIDTH 362 0
DWIDTH 16 0
BBX 16 16 0 -2
BITMAP
30C0
30C0
30C0
30E0
31B0
3318
3408
3FFE
1910
1998
1990
1990
1990
3190
619F
C11F
ENDCHAR
STARTCHAR 235c
ENCODING 9052
SWIDTH 362 0
DWIDTH 16 0
BBX 16 16 0 -2
BITMAP
0802
19FF
1830
1930
59FE
79B6
79B6
19B6
19B6
19B6
19B6
11BE
31B4
3030
6030
C030
ENDCHAR
STARTCHAR 235d
ENCODING 9053
SWIDTH 362 0
DWIDTH 16 0
BBX 16 16 0 -2
BITMAP
3070
3060
3040
FCC8
B4FC
B488
B488
B488
B488
B488
BC88
BD88
3188
3109
330F
3607
ENDCHAR
STARTCHAR 235e
ENCODING 9054
SWIDTH 362 0
DWIDTH 16 0
BBX 16 16 0 -2
BITMAP
0180
6083
7FFF
6180
6100
6310
63F8
6230
6630
6C60
6060
60F0
4198
430C
CE07
9803
ENDCHAR
STARTCHAR 235f
ENCODING 9055
SWIDTH 362 0
DWIDTH 16 0
BBX 16 16 0 -2
BITMAP
0180
6083
7FFF
6000
67FC
6040
6040
6042
6FFF
6040
6040
6040
4040
4040
C3C0
8080
ENDCHAR
STARTCHAR 2360
ENCODING 9056
SWIDTH 362 0
DWIDTH 16 0
BBX 16 16 0 -2
BITMAP
0180
6083
7FFF
6010
60F8
67C0
6080
6080
6082
7FFF
6080
6080
4081
4083
C0FF
807E
ENDCHAR
STARTCHAR 2361
ENCODING 9057
SWIDTH 362 0
DWIDTH 16 0
BBX 16 16 0 -2
BITMAP
0000
10DB
78DB
18D6
31B6
31BC
7B6C
6F48
09AC
58B6
58DB
305B
3048
3800
6FFF
C3FC
ENDCHAR
STARTCHAR 2362
ENCODING 9058
SWIDTH 362 0
DWIDTH 16 0
BBX 16 16 0 -2
BITMAP
0068
0064
0066
0060
FFFF
0060
0160
7F20
0030
0030
3F30
0010
0019
7FCF
000F
0007
ENDCHAR
STARTCHAR 2363
ENCODING 9059
SWIDTH 362 0
DWIDTH 16 0
BBX 16 16 0 -2
BITMAP
08C0
FCC0
08C0
08FF
4983
4902
C302
CC62
FC32
0C32
0C02
0C02
0C06
0C06
783C
3008
ENDCHAR
STARTCHAR 2364
ENCODING 9060
SWIDTH 362 0
DWIDTH 16 0
BBX 16 16 0 -2
BITMAP
0800
FDFE
0800
0800
4802
4BFF
C060
CC40
FCC6
0CC6
0C06
0C06
0C06
0C04
787C
3018
ENDCHAR
STARTCHAR 2365
ENCODING 9061
SWIDTH 362 0
DWIDTH 16 0
BBX 16 16 0 -2
BITMAP
0010
1838
0660
03C0
03E0
0630
3818
6008
0080
0CC0
0840
4842
480B
CC11
8FF9
0000
ENDCHAR
STARTCHAR 2366
ENCODING 9062
SWIDTH 362 0
DWIDTH 16 0
BBX 16 16 0 -2
BITMAP
3004
31FE
3020
3020
3820
BC20
B433
B030
3020
3020
3020
3020
3020
3020
3020
3020
ENDCHAR
STARTCHAR 2367
ENCODING 9063
SWIDTH 362 0
DWIDTH 16 0
BBX 16 16 0 -2
BITMAP
3030
31B0
21B0
31B0
39B6
B9F3
A3B2
A1B6
21B6
21B4
21B4
21B0
21B1
2181
21FF
20FF
ENDCHAR
STARTCHAR 2368
ENCODING 9064
SWIDTH 362 0
DWIDTH 16 0
BBX 16 16 0 -2
BITMAP
3002
33FF
2042
3042
3842
BA42
A3C2
A1C2
20E2
20E2
20B2
2192
2106
2306
267C
3C08
ENDCHAR
STARTCHAR 2369
ENCODING 9065
SWIDTH 362 0
DWIDTH 16 0
BBX 16 16 0 -2
BITMAP
3018
31F8
2118
3118
3918
B918
A118
A178
2118
2118
2318
2318
2319
2619
241F
280F
ENDCHAR
STARTCHAR 236a
ENCODING 9066
SWIDTH 362 0
DWIDTH 16 0
BBX 16 16 0 -2
BITMAP
0340
0330
0210
7FFC
0200
0208
3FF8
0300
7FFE
0118
01B8
00E2
01E2
077A
1C1E
7006
ENDCHAR
STARTCHAR 236b
ENCODING 9067
SWIDTH 362 0
DWIDTH 16 0
BBX 16 16 0 -2
BITMAP
0060
006C
0C66
0C60
0462
CDFF
6C60
2C66
386C
182C
1C38
3C31
3639
626D
40C7
8703
ENDCHAR
STARTCHAR 236c
ENCODING 9068
SWIDTH 362 0
DWIDTH 16 0
BBX 16 16 0 -2
BITMAP
3000
31FE
3000
3000
7802
33FF
3060
3840
70C6
F0C6
3006
3006
3006
3004
707C
2018
ENDCHAR
STARTCHAR 236d
ENCODING 9069
SWIDTH 362 0
DWIDTH 16 0
BBX 16 16 0 -2
BITMAP
3008
31FC
30CC
30CC
78CC
30CC
30CC
3BFC
70CC
F0CC
30C4
30C4
30C5
30C7
70C3
20C3
ENDCHAR
STARTCHAR 236e
ENCODING 9070
SWIDTH 362 0
DWIDTH 16 0
BBX 16 16 0 -2
BITMAP
30C0
30C0
30C0
30C8
7BFC
30CC
30C8
39C8
70C8
F0E8
30E8
31A8
3189
3309
720F
2407
ENDCHAR
STARTCHAR 236f
ENCODING 9071
SWIDTH 362 0
DWIDTH 16 0
BBX 16 16 0 -2
BITMAP
3030
3030
3020
3020
7820
3026
31FE
3820
7020
F020
3020
3020
3020
3020
7033
2000
ENDCHAR
STARTCHAR 2370
ENCODING 9072
SWIDTH 362 0
DWIDTH 16 0
BBX 16 16 0 -2
BITMAP
0300
0184
7FFE
0460
03C0
07E0
1C3F
F82E
0C30
0C20
0C20
0C20
0820
1820
1020
2020
ENDCHAR
STARTCHAR 2371
ENCODING 9073
SWIDTH 362 0
DWIDTH 16 0
BBX 16 16 0 -2
BITMAP
2030
3030
0420
FE20
2020
2020
3C30
2C70
2C70
6C78
6C58
4CC8
4CCC
CD86
BB07
9602
ENDCHAR
STARTCHAR 2372
ENCODING 9074
SWIDTH 362 0
DWIDTH 16 0
BBX 16 16 0 -2
BITMAP
0000
01FF
FC63
CC63
CC63
CC63
CC63
FC63
CC63
CC43
CCC3
CCC3
FC82
8186
033C
0608
ENDCHAR
STARTCHAR 2373
ENCODING 9075
SWIDTH 362 0
DWIDTH 16 0
BBX 16 16 0 -2
BITMAP
0030
0030
FC30
CC30
CC30
CC30
CDFF
FC30
CC30
CC30
CC30
CC30
FC30
8030
0030
0030
ENDCHAR
STARTCHAR 2374
ENCODING 9076
SWIDTH 362 0
DWIDTH 16 0
BBX 16 16 0 -2
BITMAP
0180
0180
0188
3FFC
218C
218C
3FFC
218C
318C
33CC
23C0
0240
0630
0C1C
380F
6002
ENDCHAR
STARTCHAR 2375
ENCODING 9077
SWIDTH 362 0
DWIDTH 16 0
BBX 16 16 0 -2
BITMAP
1800
11FF
1063
1463
FC63
3063
3863
3C63
7463
7043
D0C3
90C3
1082
1186
133C
1608
ENDCHAR
STARTCHAR 2376
ENCODING 9078
SWIDTH 362 0
DWIDTH 16 0
BBX 16 16 0 -2
BITMAP
1808
11FC
10C8
14C8
7CD8
30DA
38DF
3C83
7482
7182
D182
9102
1306
1306
163C
1408
ENDCHAR
STARTCHAR 2377
ENCODING 9079
SWIDTH 362 0
DWIDTH 16 0
BBX 16 16 0 -2
BITMAP
1870
1060
1060
1460
7C60
3060
3860
3C70
7470
7050
D0D8
90C8
108C
1186
1307
1602
ENDCHAR
STARTCHAR 2378
ENCODING 9080
SWIDTH 362 0
DWIDTH 16 0
BBX 16 16 0 -2
BITMAP
0020
3FF0
0620
0646
0C7E
0C06
1806
303C
601C
0180
0183
0180
0D90
198C
3186
4102
ENDCHAR
STARTCHAR 2379
ENCODING 9081
SWIDTH 362 0
DWIDTH 16 0
BBX 16 16 0 -2
BITMAP
00C0
00C0
0CC0
0C82
0DFF
0926
4B24
3830
3870
3870
3878
3CC8
24CC
6586
4303
8601
ENDCHAR
STARTCHAR 237a
ENCODING 9082
SWIDTH 362 0
DWIDTH 16 0
BBX 16 16 0 -2
BITMAP
1800
1804
3FFE
3000
2018
5FF8
1998
1998
199B
1998
1998
1198
3FFF
0030
01F0
0060
ENDCHAR
STARTCHAR 237b
ENCODING 9083
SWIDTH 362 0
DWIDTH 16 0
BBX 16 16 0 -2
BITMAP
0800
3DFC
70CC
30C8
30D8
7CDF
30D3
3082
3482
FD82
3106
3306
323D
3009
3FFF
0FFF
ENDCHAR
STARTCHAR 237c
ENCODING 9084
SWIDTH 362 0
DWIDTH 16 0
BBX 16 16 0 -2
BITMAP
201C
30F0
1160
0060
8860
C863
7FFF
1060
3060
3060
6060
E060
6060
6060
6060
2060
ENDCHAR
STARTCHAR 237d
ENCODING 9085
SWIDTH 362 0
DWIDTH 16 0
BBX 16 16 0 -2
BITMAP
200C
303C
10E0
0060
8860
4860
7862
13FF
3060
3060
6060
E060
6061
6061
607F
203F
ENDCHAR
STARTCHAR 237e
ENCODING 9086
SWIDTH 362 0
DWIDTH 16 0
BBX 16 16 0 -2
BITMAP
20C0
30C0
1080
01FE
8986
4984
7ACC
164C
3048
3078
6030
E030
6078
60CE
6187
2602
ENDCHAR
STARTCHAR 2421
ENCODING 9249
SWIDTH 362 0
DWIDTH 16 0
BBX 16 16 0 -2
BITMAP
0180
0188
0F9C
0FF0
0DF0
19BC
338F
C704
0000
0180
0180
03C0
0660
0C38
381F
6007
ENDCHAR
STARTCHAR 2422
ENCODING 9250
SWIDTH 362 0
DWIDTH 16 0
BBX 16 16 0 -2
BITMAP
1C70
1860
1860
3064
3066
77EC
71F0
B170
3170
3368
336C
366C
3667
3C63
39E0
30C0
ENDCHAR
STARTCHAR 2423
ENCODING 9251
SWIDTH 362 0
DWIDTH 16 0
BBX 16 16 0 -2
BITMAP
2000
31FC
1060
0040
8842
4FFF
78C0
10C4
30FE
3006
6006
E006
6004
600C
607C
2018
ENDCHAR
STARTCHAR 2424
ENCODING 9252
SWIDTH 362 0
DWIDTH 16 0
BBX 16 16 0 -2
BITMAP
2000
31FC
1004
0004
8804
4804
7A04
13FC
3300
3300
6300
E300
6301
6301
63FF
21FF
ENDCHAR
STARTCHAR 2425
ENCODING 9253
SWIDTH 362 0
DWIDTH 16 0
BBX 16 16 0 -2
BITMAP
2004
31FE
100C
0018
8820
4820
7820
17FF
3020
3020
6020
E020
6020
6020
61E0
2060
ENDCHAR
STARTCHAR 2426
ENCODING 9254
SWIDTH 362 0
DWIDTH 16 0
BBX 16 16 0 -2
BITMAP
3000
31FF
3030
3430
BC30
F830
7030
3030
3030
3030
3030
2830
6C30
4430
C0F0
8060
ENDCHAR
STARTCHAR 2427
ENCODING 9255
SWIDTH 362 0
DWIDTH 16 0
BBX 16 16 0 -2
BITMAP
1C07
1806
1B26
DB66
7A66
3E66
3C66
1866
1866
1866
1C66
1626
3306
2306
413E
800C
ENDCHAR
STARTCHAR 2428
ENCODING 9256
SWIDTH 362 0
DWIDTH 16 0
BBX 16 16 0 -2
BITMAP
0188
1198
19B0
09A0
03C0
0260
0438
181F
E004
0670
0460
0C60
0C61
1863
307F
603E
ENDCHAR
STARTCHAR 2429
ENCODING 9257
SWIDTH 362 0
DWIDTH 16 0
BBX 16 16 0 -2
BITMAP
2002
7FFF
60C0
60C0
60CC
6CCC
66C8
62D8
62D0
60C0
60A0
41B0
4318
C21C
8C0F
9804
ENDCHAR
STARTCHAR 242a
ENCODING 9258
SWIDTH 362 0
DWIDTH 16 0
BBX 16 16 0 -2
BITMAP
0008
7FFC
6108
6188
6128
6928
6D68
6548
6108
6308
6388
668D
644D
4C67
D83F
A013
ENDCHAR
STARTCHAR 242b
ENCODING 9259
SWIDTH 362 0
DWIDTH 16 0
BBX 16 16 0 -2
BITMAP
0C00
0800
1FFF
1003
3183
6103
1933
0D23
0D43
0386
039E
06CC
0460
0838
301E
600C
ENDCHAR
STARTCHAR 242c
ENCODING 9260
SWIDTH 362 0
DWIDTH 16 0
BBX 16 16 0 -2
BITMAP
10C0
D8C0
7080
6080
F3F8
1098
1898
3B98
39D8
58D8
99F8
19B8
1B19
1B19
761F
2C0F
ENDCHAR
STARTCHAR 242d
ENCODING 9261
SWIDTH 362 0
DWIDTH 16 0
BBX 16 16 0 -2
BITMAP
1018
D818
7018
6018
F01B
1038
1838
3838
3878
5858
98D8
1998
1B18
1A18
7078
2030
ENDCHAR
STARTCHAR 242e
ENCODING 9262
SWIDTH 362 0
DWIDTH 16 0
BBX 16 16 0 -2
BITMAP
0000
0C30
FC20
3020
3060
3060
3860
3040
30C0
30C8
308C
3D86
F183
C3FF
03C1
0100
ENDCHAR
STARTCHAR 242f
ENCODING 9263
SWIDTH 362 0
DWIDTH 16 0
BBX 16 16 0 -2
BITMAP
0060
0C60
FC60
3062
31FF
3063
3862
3062
3062
3042
30C2
3CC2
F186
C106
033C
0608
ENDCHAR
STARTCHAR 2430
ENCODING 9264
SWIDTH 362 0
DWIDTH 16 0
BBX 16 16 0 -2
BITMAP
0070
0460
7C60
1060
1060
1070
3C68
306C
1066
1062
1060
1C60
F860
4060
0060
0060
ENDCHAR
STARTCHAR 2431
ENCODING 9265
SWIDTH 362 0
DWIDTH 16 0
BBX 16 16 0 -2
BITMAP
0007
0206
7E66
1866
1866
1866
1E66
1866
1866
1866
1866
1E46
F006
C006
001E
000C
ENDCHAR
STARTCHAR 2432
ENCODING 9266
SWIDTH 362 0
DWIDTH 16 0
BBX 16 16 0 -2
BITMAP
0002
7FFF
0180
0140
0330
0618
1C0C
3004
F008
100C
1008
1008
1008
1008
1FF8
1008
ENDCHAR
STARTCHAR 2433
ENCODING 9267
SWIDTH 362 0
DWIDTH 16 0
BBX 16 16 0 -2
BITMAP
2060
3040
1440
7E40
0C40
1840
1040
3840
7C40
D440
9040
1041
1041
1043
107F
107E
ENDCHAR
STARTCHAR 2434
ENCODING 9268
SWIDTH 362 0
DWIDTH 16 0
BBX 16 16 0 -2
BITMAP
0300
0180
018E
0000
100C
1818
0C30
0420
FFFF
0180
0180
0180
0180
0180
0180
0100
ENDCHAR
STARTCHAR 2435
ENCODING 9269
SWIDTH 362 0
DWIDTH 16 0
BBX 16 16 0 -2
BITMAP
0860
7C40
6C40
6C48
7DFC
7C4C
6C48
6C48
6C48
7CC8
4CC8
4C88
4C88
CD09
BF0F
9A07
ENDCHAR
STARTCHAR 2436
ENCODING 9270
SWIDTH 362 0
DWIDTH 16 0
BBX 16 16 0 -2
BITMAP
0000
7FFF
C003
C006
1830
1830
1810
1B90
18D0
1810
18F0
1F90
1A10
3010
30F0
6020
ENDCHAR
STARTCHAR 2437
ENCODING 9271
SWIDTH 362 0
DWIDTH 16 0
BBX 16 16 0 -2
BITMAP
1C18
1A13
FE7F
1810
0006
7FFE
0C00
0C08
1FFC
000C
0008
0008
0018
0018
00F0
0020
ENDCHAR
STARTCHAR 2438
ENCODING 9272
SWIDTH 362 0
DWIDTH 16 0
BBX 16 16 0 -2
BITMAP
1C18
1A13
FE7F
1810
0180
0100
0104
3FFE
0104
0304
0304
0204
060C
0C0C
1878
7030
ENDCHAR
STARTCHAR 2439
ENCODING 9273
SWIDTH 362 0
DWIDTH 16 0
BBX 16 16 0 -2
BITMAP
1C18
1A13
FE7F
1810
0080
0080
0440
0640
0C40
0C60
0830
1830
1018
300E
6007
C002
ENDCHAR
STARTCHAR 243a
ENCODING 9274
SWIDTH 362 0
DWIDTH 16 0
BBX 16 16 0 -2
BITMAP
0180
0180
3FFC
0180
0180
7FFF
0000
3038
1860
0CC0
0180
0600
0C00
7800
67FF
01FC
ENDCHAR
STARTCHAR 243b
ENCODING 9275
SWIDTH 362 0
DWIDTH 16 0
BBX 16 16 0 -2
BITMAP
0040
4060
3060
13FE
0066
3066
F846
30C6
78C6
7986
1986
333C
3618
7800
CFFF
01FC
ENDCHAR
STARTCHAR 243c
ENCODING 9276
SWIDTH 362 0
DWIDTH 16 0
BBX 16 16 0 -2
BITMAP
0826
183E
1826
1824
5B2C
5B28
5B24
5B22
5B23
5B23
5B23
5B3F
FF26
0020
0020
0020
ENDCHAR
STARTCHAR 243d
ENCODING 9277
SWIDTH 362 0
DWIDTH 16 0
BBX 16 16 0 -2
BITMAP
1026
183E
1326
1324
FFAC
F328
3324
3322
2223
6623
7E23
0E3F
1B26
31A0
61A0
C020
ENDCHAR
STARTCHAR 243e
ENCODING 9278
SWIDTH 362 0
DWIDTH 16 0
BBX 16 16 0 -2
BITMAP
9804
F9FE
D80C
D018
F020
E020
D020
DBFF
C820
C820
C820
F820
D020
C020
C1E0
C060
ENDCHAR
STARTCHAR 243f
ENCODING 9279
SWIDTH 362 0
DWIDTH 16 0
BBX 16 16 0 -2
BITMAP
0002
7FFF
0460
0460
7FFE
4466
4466
4466
4E76
4F76
49D6
58DE
518E
4106
401E
400C
ENDCHAR
STARTCHAR 2440
ENCODING 9280
SWIDTH 362 0
DWIDTH 16 0
BBX 16 16 0 -2
BITMAP
0670
3C60
7860
1860
1960
FF60
1860
1860
1A60
7F60
4360
4361
4361
4363
7F7F
403E
ENDCHAR
STARTCHAR 2441
ENCODING 9281
SWIDTH 362 0
DWIDTH 16 0
BBX 16 16 0 -2
BITMAP
0204
03FE
0206
FA06
0206
0206
0306
03F4
00D0
00D0
FCD0
0090
0191
0311
061F
0C1F
ENDCHAR
STARTCHAR 2442
ENCODING 9282
SWIDTH 362 0
DWIDTH 16 0
BBX 16 16 0 -2
BITMAP
0004
7FFE
0660
0660
0664
7FFE
6664
6664
6664
6664
7FFC
2660
0660
0660
0663
0000
ENDCHAR
STARTCHAR 2443
ENCODING 9283
SWIDTH 362 0
DWIDTH 16 0
BBX 16 16 0 -2
BITMAP
1C70
1860
1864
33FC
3060
7060
7066
B7FE
3060
30F0
30F8
31EC
3367
3663
3C60
3060
ENDCHAR
STARTCHAR 2444
ENCODING 9284
SWIDTH 362 0
DWIDTH 16 0
BBX 16 16 0 -2
BITMAP
1C30
1830
1830
33FF
3333
7336
7330
B3FE
3346
334C
3368
3238
3638
346C
3CC7
3983
ENDCHAR
STARTCHAR 2445
ENCODING 9285
SWIDTH 362 0
DWIDTH 16 0
BBX 16 16 0 -2
BITMAP
0C00
19FC
198C
118C
318C
318C
71FC
F18C
B18C
318C
31FC
318C
318C
318C
318F
3000
ENDCHAR
STARTCHAR 2446
ENCODING 9286
SWIDTH 362 0
DWIDTH 16 0
BBX 16 16 0 -2
BITMAP
0C30
1830
1820
1020
3336
3333
7222
F222
B222
33FE
3222
3222
3222
3222
33FE
3202
ENDCHAR
STARTCHAR 2447
ENCODING 9287
SWIDTH 362 0
DWIDTH 16 0
BBX 16 16 0 -2
BITMAP
1C18
1B10
1B10
3610
367F
6D93
6D93
A713
2313
2733
25B3
2FA3
2C63
2046
20DE
218C
ENDCHAR
STARTCHAR 2448
ENCODING 9288
SWIDTH 362 0
DWIDTH 16 0
BBX 16 16 0 -2
BITMAP
1D06
19FE
1906
3106
3106
7106
7140
B160
3160
317E
3360
3360
3261
3661
347F
383F
ENDCHAR
STARTCHAR 2449
ENCODING 9289
SWIDTH 362 0
DWIDTH 16 0
BBX 16 16 0 -2
BITMAP
1C00
1BFF
1830
3030
3030
7130
71B0
B1BE
31B0
31B0
31B0
31B0
31B0
31B0
31B3
3000
ENDCHAR
STARTCHAR 244a
ENCODING 9290
SWIDTH 362 0
DWIDTH 16 0
BBX 16 16 0 -2
BITMAP
1C02
1BFF
1820
3020
3336
7333
7232
B27A
324E
32CE
3386
3302
3202
3202
321E
3206
ENDCHAR
STARTCHAR 244b
ENCODING 9291
SWIDTH 362 0
DWIDTH 16 0
BBX 16 16 0 -2
BITMAP
1D08
198C
1988
318B
37FF
7188
7188
B188
3188
3188
3188
3188
3188
3188
31F8
3100
ENDCHAR
STARTCHAR 244c
ENCODING 9292
SWIDTH 362 0
DWIDTH 16 0
BBX 16 16 0 -2
BITMAP
1C02
1BFF
1862
3042
30C2
70C2
709E
B18C
3300
37FE
3186
3186
3186
3186
31FE
3102
ENDCHAR
STARTCHAR 244d
ENCODING 9293
SWIDTH 362 0
DWIDTH 16 0
BBX 16 16 0 -2
BITMAP
1E08
1BFC
1B0C
336C
332C
730C
730F
B30C
32CC
326C
322C
320C
33FF
3008
3078
3030
ENDCHAR
STARTCHAR 244e
ENCODING 9294
SWIDTH 362 0
DWIDTH 16 0
BBX 16 16 0 -2
BITMAP
1C00
19FE
1986
3186
3186
7186
71FE
B180
3182
31FF
3182
3182
3182
3182
31FE
3100
ENDCHAR
STARTCHAR 244f
ENCODING 9295
SWIDTH 362 0
DWIDTH 16 0
BBX 16 16 0 -2
BITMAP
1C00
1BFF
1A5B
325B
325B
725B
725B
B2DB
32DF
338F
3303
3203
3203
3203
33FF
3200
ENDCHAR
STARTCHAR 2450
ENCODING 9296
SWIDTH 362 0
DWIDTH 16 0
BBX 16 16 0 -2
BITMAP
1C60
1840
18E0
30F0
319C
734F
7667
BC60
3360
3368
3264
3666
3462
3862
31E0
30C0
ENDCHAR
STARTCHAR 2451
ENCODING 9297
SWIDTH 362 0
DWIDTH 16 0
BBX 16 16 0 -2
BITMAP
1030
0C30
0460
04D0
1FF8
1818
1818
1818
1818
1FF0
1640
0640
0C41
0841
307F
607F
ENDCHAR
STARTCHAR 2452
ENCODING 9298
SWIDTH 362 0
DWIDTH 16 0
BBX 16 16 0 -2
BITMAP
0010
1FF8
0C10
0C30
18E0
3FFC
718C
1188
1188
1FF8
0340
0340
0641
0C41
187F
707F
ENDCHAR
STARTCHAR 2453
ENCODING 9299
SWIDTH 362 0
DWIDTH 16 0
BBX 16 16 0 -2
BITMAP
1004
19FE
1184
1184
11FC
1184
1184
1184
11FC
1000
0670
0460
0C61
0861
307F
603F
ENDCHAR
STARTCHAR 2454
ENCODING 9300
SWIDTH 362 0
DWIDTH 16 0
BBX 16 16 0 -2
BITMAP
0070
03F0
1F80
0180
2188
3FFC
218C
218C
318C
33C8
23D0
02D8
06CD
0CC5
38FF
607F
ENDCHAR
STARTCHAR 2455
ENCODING 9301
SWIDTH 362 0
DWIDTH 16 0
BBX 16 16 0 -2
BITMAP
0000
7FFF
4183
51A2
59B2
4992
4992
5DBA
5DBA
57EA
77CE
418A
4182
4182
419E
4106
ENDCHAR
STARTCHAR 2456
ENCODING 9302
SWIDTH 362 0
DWIDTH 16 0
BBX 16 16 0 -2
BITMAP
0008
3FFC
310C
318C
318C
318C
334C
326C
343C
380C
FFFF
0800
0C18
180C
3006
C002
ENDCHAR
STARTCHAR 2457
ENCODING 9303
SWIDTH 362 0
DWIDTH 16 0
BBX 16 16 0 -2
BITMAP
0000
7FFF
C003
C006
0830
0C30
0830
0830
0FF0
0830
0830
0FF0
0830
0830
0C36
0000
ENDCHAR
STARTCHAR 2458
ENCODING 9304
SWIDTH 362 0
DWIDTH 16 0
BBX 16 16 0 -2
BITMAP
0000
47FF
2040
30C0
08C0
08C0
1080
11FE
3186
2386
E386
6586
6586
6186
61FE
0080
ENDCHAR
STARTCHAR 2459
ENCODING 9305
SWIDTH 362 0
DWIDTH 16 0
BBX 16 16 0 -2
BITMAP
0204
C3FE
6206
2206
0A06
1206
13FE
32D4
20D0
60D0
E090
C190
6111
6313
661F
0800
ENDCHAR
STARTCHAR 245a
ENCODING 9306
SWIDTH 362 0
DWIDTH 16 0
BBX 16 16 0 -2
BITMAP
0070
C066
6366
236C
09E8
1062
13FE
3060
2060
6063
E7FF
C060
6060
6060
6060
0060
ENDCHAR
STARTCHAR 245b
ENCODING 9307
SWIDTH 362 0
DWIDTH 16 0
BBX 16 16 0 -2
BITMAP
2018
300C
2008
2FE8
2008
2048
27E8
2468
2468
27E8
2468
646C
646D
47E7
C047
8003
ENDCHAR
STARTCHAR 245c
ENCODING 9308
SWIDTH 362 0
DWIDTH 16 0
BBX 16 16 0 -2
BITMAP
1C03
1803
301A
3212
2312
6192
CF92
F092
4012
7F12
6112
6112
6102
6102
7F1E
4106
ENDCHAR
STARTCHAR 245d
ENCODING 9309
SWIDTH 362 0
DWIDTH 16 0
BBX 16 16 0 -2
BITMAP
1800
19FF
1A23
7E23
1823
1823
1923
FF23
3023
3463
2263
6363
FFC2
61C6
019C
0308
ENDCHAR
STARTCHAR 245e
ENCODING 9310
SWIDTH 362 0
DWIDTH 16 0
BBX 16 16 0 -2
BITMAP
0C03
0C03
081A
0912
7F12
0812
0812
0992
FF92
1812
1012
3212
2102
7F82
F89E
4086
ENDCHAR
STARTCHAR 245f
ENCODING 9311
SWIDTH 362 0
DWIDTH 16 0
BBX 16 16 0 -2
BITMAP
0103
7F83
119A
1192
3192
3192
6312
4E12
8312
7F92
4112
4112
4102
4102
7F1E
4106
ENDCHAR
STARTCHAR 2460
ENCODING 9312
SWIDTH 362 0
DWIDTH 16 0
BBX 16 16 0 -2
BITMAP
0103
7F83
611A
6112
6112
7F12
5812
1912
7F92
1992
1192
3192
3182
6302
4F1E
8606
ENDCHAR
STARTCHAR 2461
ENCODING 9313
SWIDTH 362 0
DWIDTH 16 0
BBX 16 16 0 -2
BITMAP
0003
7BC3
7ADA
7ADA
7ADA
7ADA
7ADA
FFFA
7ADA
7ADA
7ADA
7AD2
7AC2
7AC2
7BDE
7AC6
ENDCHAR
STARTCHAR 2462
ENCODING 9314
SWIDTH 362 0
DWIDTH 16 0
BBX 16 16 0 -2
BITMAP
020C
310C
1998
0890
0022
7FFF
C202
8304
0208
3FFC
0208
0608
0408
0C18
19F0
7020
ENDCHAR
STARTCHAR 2463
ENCODING 9315
SWIDTH 362 0
DWIDTH 16 0
BBX 16 16 0 -2
BITMAP
1C18
1813
FFFF
1810
0002
7FFF
C202
8304
0208
3FFC
0208
0608
0408
0C18
19F0
7020
ENDCHAR
STARTCHAR 2464
ENCODING 9316
SWIDTH 362 0
DWIDTH 16 0
BBX 16 16 0 -2
BITMAP
1830
1830
5E30
5E30
5E33
5E33
FE33
1A33
DA33
DB33
DA23
DA63
DA63
FEC6
039E
030C
ENDCHAR
STARTCHAR 2465
ENCODING 9317
SWIDTH 362 0
DWIDTH 16 0
BBX 16 16 0 -2
BITMAP
4002
7FFF
4180
4380
4618
4FFC
4E04
4330
4224
5FFE
4220
4620
4620
4C20
C823
4000
ENDCHAR
STARTCHAR 2466
ENCODING 9318
SWIDTH 362 0
DWIDTH 16 0
BBX 16 16 0 -2
BITMAP
0002
FFFF
4600
4608
4FF8
48C0
40C0
5FFE
4080
41B0
4118
420C
4C04
4000
7FFF
0000
ENDCHAR
STARTCHAR 2467
ENCODING 9319
SWIDTH 362 0
DWIDTH 16 0
BBX 16 16 0 -2
BITMAP
0C00
083F
0823
0B23
7F23
0823
0823
08A3
FFA3
1823
1023
322F
2326
6F20
71A0
4020
ENDCHAR
STARTCHAR 2468
ENCODING 9320
SWIDTH 362 0
DWIDTH 16 0
BBX 16 16 0 -2
BITMAP
2002
7FFF
6100
6080
60C4
6FFC
6008
6018
6618
6210
6330
4330
4120
C160
8003
8000
ENDCHAR
STARTCHAR 2469
ENCODING 9321
SWIDTH 362 0
DWIDTH 16 0
BBX 16 16 0 -2
BITMAP
2002
7FFF
6040
6060
6040
6046
6FFE
6040
6040
67FC
660C
460C
460C
C60C
87FC
8400
ENDCHAR
STARTCHAR 246a
ENCODING 9322
SWIDTH 362 0
DWIDTH 16 0
BBX 16 16 0 -2
BITMAP
2002
7FFF
6804
6FFE
6C46
6C46
6FFE
6C46
6CC6
6CC4
6040
4040
4040
C040
8040
8040
ENDCHAR
STARTCHAR 246b
ENCODING 9323
SWIDTH 362 0
DWIDTH 16 0
BBX 16 16 0 -2
BITMAP
00C0
0060
D860
CC03
CFFF
C8C0
C8C4
C8FE
C884
C884
F984
C984
030C
030C
0678
0C30
ENDCHAR
STARTCHAR 246c
ENCODING 9324
SWIDTH 362 0
DWIDTH 16 0
BBX 16 16 0 -2
BITMAP
0030
0030
D83E
CC78
C9B0
C830
C836
C830
C830
C830
FBFF
C830
0030
0030
0030
0030
ENDCHAR
STARTCHAR 246d
ENCODING 9325
SWIDTH 362 0
DWIDTH 16 0
BBX 16 16 0 -2
BITMAP
0000
0004
D9FE
CC00
C800
C800
CBFF
C860
C860
C8C0
C8C0
C884
C186
03FB
0383
0000
ENDCHAR
STARTCHAR 246e
ENCODING 9326
SWIDTH 362 0
DWIDTH 16 0
BBX 16 16 0 -2
BITMAP
0030
0030
D820
D822
DBFF
D870
D870
D878
D8E8
D8AC
D9A6
DB23
C623
0420
0020
0020
ENDCHAR
STARTCHAR 246f
ENCODING 9327
SWIDTH 362 0
DWIDTH 16 0
BBX 16 16 0 -2
BITMAP
0070
0068
D866
D862
D862
D860
D860
D860
D870
D870
D8F0
D8F0
C1B1
0131
033F
0C1F
ENDCHAR
STARTCHAR 2470
ENCODING 9328
SWIDTH 362 0
DWIDTH 16 0
BBX 16 16 0 -2
BITMAP
0088
00FC
D888
D888
D98C
D90F
DB00
DBFC
D88C
D88C
D8D8
D870
C030
007E
018F
0702
ENDCHAR
STARTCHAR 2471
ENCODING 9329
SWIDTH 362 0
DWIDTH 16 0
BBX 16 16 0 -2
BITMAP
0030
0010
D898
D8C8
D98C
D98C
D926
DB67
DA63
DE41
D8C0
D888
C184
011E
03E2
0102
ENDCHAR
STARTCHAR 2472
ENCODING 9330
SWIDTH 362 0
DWIDTH 16 0
BBX 16 16 0 -2
BITMAP
0300
0100
618E
6386
63C6
6366
663E
6C1E
7FF6
6C26
6C26
6C26
6FE6
6C26
601E
400C
ENDCHAR
STARTCHAR 2473
ENCODING 9331
SWIDTH 362 0
DWIDTH 16 0
BBX 16 16 0 -2
BITMAP
0030
0C30
0C26
087E
1806
3106
619C
C188
818C
0180
0180
3FFC
300C
3008
3008
3008
ENDCHAR
STARTCHAR 2474
ENCODING 9332
SWIDTH 362 0
DWIDTH 16 0
BBX 16 16 0 -2
BITMAP
000C
008C
D868
CC68
C828
C908
C888
C8C8
C848
C80F
FBF8
C808
0008
0008
0008
0008
ENDCHAR
STARTCHAR 2475
ENCODING 9333
SWIDTH 362 0
DWIDTH 16 0
BBX 16 16 0 -2
BITMAP
0000
0060
D830
D830
D8D8
D8D0
D8C0
D8C0
DAC4
DAC6
DAC3
DEC3
C6C5
04CC
00FC
0000
ENDCHAR
STARTCHAR 2476
ENCODING 9334
SWIDTH 362 0
DWIDTH 16 0
BBX 16 16 0 -2
BITMAP
0008
03FC
F84C
D84C
D84C
DFFF
D84C
D84C
D84C
DBFC
F8C0
D080
0180
0100
0300
0600
ENDCHAR
STARTCHAR 2477
ENCODING 9335
SWIDTH 362 0
DWIDTH 16 0
BBX 16 16 0 -2
BITMAP
0023
01F3
D832
D832
D832
DBF2
DB02
DB02
DB32
DA32
F832
C832
0032
0032
01E2
00C2
ENDCHAR
STARTCHAR 2478
ENCODING 9336
SWIDTH 362 0
DWIDTH 16 0
BBX 16 16 0 -2
BITMAP
0070
0060
D860
D864
DBFE
D860
D860
D862
DFFE
D870
D8D0
D8D8
C188
030E
0607
0C02
ENDCHAR
STARTCHAR 2479
ENCODING 9337
SWIDTH 362 0
DWIDTH 16 0
BBX 16 16 0 -2
BITMAP
0318
0318
DB18
DB18
DB18
DB18
DBDF
DB18
DB18
DB18
DB18
DB18
C319
03D9
039F
030F
ENDCHAR
STARTCHAR 247a
ENCODING 9338
SWIDTH 362 0
DWIDTH 16 0
BBX 16 16 0 -2
BITMAP
0002
031B
DA1A
DADA
DA5A
DA72
DA72
DA32
DA72
DA7A
FADA
DA8A
0302
0202
03FE
0002
ENDCHAR
STARTCHAR 247b
ENCODING 9339
SWIDTH 362 0
DWIDTH 16 0
BBX 16 16 0 -2
BITMAP
0008
1FFC
1008
1008
1FF8
1000
000E
0180
0180
0183
FFFF
03C0
0660
0C38
181F
7006
ENDCHAR
STARTCHAR 247c
ENCODING 9340
SWIDTH 362 0
DWIDTH 16 0
BBX 16 16 0 -2
BITMAP
0010
1FF8
1818
1818
1FF8
0C00
0C00
1808
1FFC
0018
0012
FFFF
0C30
1818
300C
6006
ENDCHAR
STARTCHAR 247d
ENCODING 9341
SWIDTH 362 0
DWIDTH 16 0
BBX 16 16 0 -2
BITMAP
0018
0010
DA12
DBFF
DB33
DB33
DB33
DB6B
DB6B
DBCF
DB87
DB03
C303
0303
030F
0306
ENDCHAR
STARTCHAR 247e
ENCODING 9342
SWIDTH 362 0
DWIDTH 16 0
BBX 16 16 0 -2
BITMAP
0100
19C0
38CC
7846
580B
D813
CFF8
0000
0000
1FF8
1818
1818
1818
1818
1FF8
1008
ENDCHAR
STARTCHAR 2521
ENCODING 9505
SWIDTH 362 0
DWIDTH 16 0
BBX 16 16 0 -2
BITMAP
0180
1980
3180
3FFC
6180
4180
0182
7FFF
0180
0188
3FFC
300C
3008
3008
3008
3008
ENDCHAR
STARTCHAR 2522
ENCODING 9506
SWIDTH 362 0
DWIDTH 16 0
BBX 16 16 0 -2
BITMAP
0030
07F8
1F80
0100
0302
FFFF
0640
0C30
181C
300F
FFFA
1818
1818
1818
1818
1810
ENDCHAR
STARTCHAR 2523
ENCODING 9507
SWIDTH 362 0
DWIDTH 16 0
BBX 16 16 0 -2
BITMAP
01C0
0180
D980
D902
D9FE
DB88
DA88
D898
D8D8
D850
D870
D870
C058
009E
030F
0604
ENDCHAR
STARTCHAR 2524
ENCODING 9508
SWIDTH 362 0
DWIDTH 16 0
BBX 16 16 0 -2
BITMAP
003C
3FC0
2002
3FFF
2002
2002
3FFE
2002
2000
27FC
2404
6404
6404
4404
C7FC
8404
ENDCHAR
STARTCHAR 2525
ENCODING 9509
SWIDTH 362 0
DWIDTH 16 0
BBX 16 16 0 -2
BITMAP
0000
03FE
D840
D840
D840
D8C0
D8C0
DBFC
D88C
D88C
D88C
D98C
018C
018C
018C
07FF
ENDCHAR
STARTCHAR 2526
ENCODING 9510
SWIDTH 362 0
DWIDTH 16 0
BBX 16 16 0 -2
BITMAP
4002
7FFF
6002
67F2
6002
6002
7FFA
6102
6302
6222
6632
6DFA
6F1A
640A
7FFE
4002
ENDCHAR
STARTCHAR 2527
ENCODING 9511
SWIDTH 362 0
DWIDTH 16 0
BBX 16 16 0 -2
BITMAP
4006
7FFE
4426
4666
4666
5FFE
4666
4666
466E
4666
4466
4C66
4866
5066
7FFE
4002
ENDCHAR
STARTCHAR 2528
ENCODING 9512
SWIDTH 362 0
DWIDTH 16 0
BBX 16 16 0 -2
BITMAP
4006
7FFE
41A6
46B6
5266
4866
4446
46C6
4386
4386
43C6
467E
4C3E
5006
7FFE
4002
ENDCHAR
STARTCHAR 2529
ENCODING 9513
SWIDTH 362 0
DWIDTH 16 0
BBX 16 16 0 -2
BITMAP
4006
7FFE
4006
5FF6
4186
4186
4186
4FF6
4186
4186
4186
4186
5FFE
4006
7FFE
4002
ENDCHAR
STARTCHAR 252a
ENCODING 9514
SWIDTH 362 0
DWIDTH 16 0
BBX 16 16 0 -2
BITMAP
4006
7FFE
4006
47E6
4006
4006
401E
46C6
46C6
46C6
44CE
4CDE
58FE
5006
7FFE
4002
ENDCHAR
STARTCHAR 252b
ENCODING 9515
SWIDTH 362 0
DWIDTH 16 0
BBX 16 16 0 -2
BITMAP
4004
7FFE
6466
6466
6466
67E6
6466
6466
6466
6466
67E6
6466
6466
6466
7FFE
4004
ENDCHAR
STARTCHAR 252c
ENCODING 9516
SWIDTH 362 0
DWIDTH 16 0
BBX 16 16 0 -2
BITMAP
4006
7FFE
4106
4186
419E
45B6
5FA6
45C6
4DC6
4DA6
49BE
599E
778E
4106
7FFE
4002
ENDCHAR
STARTCHAR 252d
ENCODING 9517
SWIDTH 362 0
DWIDTH 16 0
BBX 16 16 0 -2
BITMAP
2000
3203
23FF
2602
2490
78D8
2098
2098
2098
2098
3998
7198
C119
4319
061F
0C0F
ENDCHAR
STARTCHAR 252e
ENCODING 9518
SWIDTH 362 0
DWIDTH 16 0
BBX 16 16 0 -2
BITMAP
3004
31FE
300C
30D8
3070
7C23
33FF
3022
3020
3020
3420
3820
E020
4020
01E0
0060
ENDCHAR
STARTCHAR 252f
ENCODING 9519
SWIDTH 362 0
DWIDTH 16 0
BBX 16 16 0 -2
BITMAP
3088
30FC
3088
3088
318C
7D0F
3300
33FC
308C
308C
3458
3870
E030
407C
01CF
0702
ENDCHAR
STARTCHAR 2530
ENCODING 9520
SWIDTH 362 0
DWIDTH 16 0
BBX 16 16 0 -2
BITMAP
3030
3070
3070
30C8
30CC
7D87
338B
34CC
3088
3088
3488
3988
E188
4108
0208
0408
ENDCHAR
STARTCHAR 2531
ENCODING 9521
SWIDTH 362 0
DWIDTH 16 0
BBX 16 16 0 -2
BITMAP
0000
1FF8
1018
1018
1FF8
1018
1018
1018
0180
0180
0188
1FFC
0180
0180
0182
FFFF
ENDCHAR
STARTCHAR 2532
ENCODING 9522
SWIDTH 362 0
DWIDTH 16 0
BBX 16 16 0 -2
BITMAP
0660
0460
3FFC
0460
0460
7FFF
0C60
0C60
1860
71A0
0180
1FFC
0180
0180
0182
FFFF
ENDCHAR
STARTCHAR 2533
ENCODING 9523
SWIDTH 362 0
DWIDTH 16 0
BBX 16 16 0 -2
BITMAP
0010
1FF8
0000
0006
7FFE
0660
0C60
0C62
187E
71BE
0180
1FFC
0180
0180
0182
FFFF
ENDCHAR
STARTCHAR 2534
ENCODING 9524
SWIDTH 362 0
DWIDTH 16 0
BBX 16 16 0 -2
BITMAP
300C
308C
30C8
3068
3008
7D08
3088
30C8
3008
300F
3DF8
3808
E008
4008
0008
0008
ENDCHAR
STARTCHAR 2535
ENCODING 9525
SWIDTH 362 0
DWIDTH 16 0
BBX 16 16 0 -2
BITMAP
20C0
3060
2022
23FF
210C
798C
2088
2098
20D0
2070
3860
7070
C0D8
419E
030F
0C06
ENDCHAR
STARTCHAR 2536
ENCODING 9526
SWIDTH 362 0
DWIDTH 16 0
BBX 16 16 0 -2
BITMAP
2000
31FE
2000
2000
2000
7802
27FE
2098
2098
2098
3898
7198
C119
4319
061F
1C0F
ENDCHAR
STARTCHAR 2537
ENCODING 9527
SWIDTH 362 0
DWIDTH 16 0
BBX 16 16 0 -2
BITMAP
2006
37FE
2080
2080
2188
79FC
2188
2188
2108
2118
3BF8
7018
C018
4010
0033
0000
ENDCHAR
STARTCHAR 2538
ENCODING 9528
SWIDTH 362 0
DWIDTH 16 0
BBX 16 16 0 -2
BITMAP
2060
3040
2040
23FC
204C
784C
204C
204C
27FF
20C0
38D8
708C
C186
4306
0602
0C02
ENDCHAR
STARTCHAR 2539
ENCODING 9529
SWIDTH 362 0
DWIDTH 16 0
BBX 16 16 0 -2
BITMAP
2318
3318
2318
2318
2318
7B18
23DF
2318
2318
2318
3B18
7318
C319
43D9
039F
030F
ENDCHAR
STARTCHAR 253a
ENCODING 9530
SWIDTH 362 0
DWIDTH 16 0
BBX 16 16 0 -2
BITMAP
300C
303C
31E0
3060
3060
7C64
31FE
3060
3060
37FF
3060
3C60
F061
C061
007F
003F
ENDCHAR
STARTCHAR 253b
ENCODING 9531
SWIDTH 362 0
DWIDTH 16 0
BBX 16 16 0 -2
BITMAP
21C0
3180
2183
2100
2370
7A60
2060
21FE
2066
2066
3846
70C6
C0C6
4186
033C
0608
ENDCHAR
STARTCHAR 253c
ENCODING 9532
SWIDTH 362 0
DWIDTH 16 0
BBX 16 16 0 -2
BITMAP
31C0
3180
3180
3182
31FE
7F8C
3288
3698
3058
3070
3870
7070
E0D8
409C
030F
0604
ENDCHAR
STARTCHAR 253d
ENCODING 9533
SWIDTH 362 0
DWIDTH 16 0
BBX 16 16 0 -2
BITMAP
30C0
30C0
3182
31FF
3303
7E63
30C3
30C3
3093
313B
3BDB
7103
C003
4006
003E
000C
ENDCHAR
STARTCHAR 253e
ENCODING 9534
SWIDTH 362 0
DWIDTH 16 0
BBX 16 16 0 -2
BITMAP
2180
3180
2100
23FF
235B
7A5A
26DA
24DA
2092
21B2
3B22
7262
C446
4086
013C
0008
ENDCHAR
STARTCHAR 253f
ENCODING 9535
SWIDTH 362 0
DWIDTH 16 0
BBX 16 16 0 -2
BITMAP
2000
31C0
21BF
2103
2303
7A63
26C3
26C3
2183
2183
3983
73C3
C242
47FE
066C
0000
ENDCHAR
STARTCHAR 2540
ENCODING 9536
SWIDTH 362 0
DWIDTH 16 0
BBX 16 16 0 -2
BITMAP
2000
33FE
2300
2300
2304
7BFE
2344
234C
234C
2368
3A38
7230
C638
446C
0CC7
0B02
ENDCHAR
STARTCHAR 2541
ENCODING 9537
SWIDTH 362 0
DWIDTH 16 0
BBX 16 16 0 -2
BITMAP
0180
0188
0F9C
0FF0
0DE0
19B8
319F
C78C
0100
0100
0180
018C
3FFC
0180
0182
FFFF
ENDCHAR
STARTCHAR 2542
ENCODING 9538
SWIDTH 362 0
DWIDTH 16 0
BBX 16 16 0 -2
BITMAP
00FE
1F90
1190
1198
3188
318C
2187
6187
8100
0100
0180
0184
7FFE
0180
0182
FFFF
ENDCHAR
STARTCHAR 2543
ENCODING 9539
SWIDTH 362 0
DWIDTH 16 0
BBX 16 16 0 -2
BITMAP
0180
0182
7FFF
0180
0198
0000
4003
CC03
C602
8430
04E0
0700
0404
040C
07FC
07F8
ENDCHAR
STARTCHAR 2544
ENCODING 9540
SWIDTH 362 0
DWIDTH 16 0
BBX 16 16 0 -2
BITMAP
0180
0182
7FFF
0180
0198
0000
4003
C003
C422
8660
0460
0460
0C61
1863
307F
603E
ENDCHAR
STARTCHAR 2545
ENCODING 9541
SWIDTH 362 0
DWIDTH 16 0
BBX 16 16 0 -2
BITMAP
01C0
0180
0186
0180
0188
3FFC
0004
3FFE
2186
3FFE
2004
2000
6000
4000
C000
8000
ENDCHAR
STARTCHAR 2546
ENCODING 9542
SWIDTH 362 0
DWIDTH 16 0
BBX 16 16 0 -2
BITMAP
0600
0C30
1818
3FFC
3E64
0460
0C7C
3600
0618
2FF8
1C30
3660
63C0
03E0
0E3F
701C
ENDCHAR
STARTCHAR 2547
ENCODING 9543
SWIDTH 362 0
DWIDTH 16 0
BBX 16 16 0 -2
BITMAP
0180
0184
3FFC
0180
1FF8
0182
7FFE
0600
0610
27F8
1C30
1E60
63C0
07F0
1C3F
700E
ENDCHAR
STARTCHAR 2548
ENCODING 9544
SWIDTH 362 0
DWIDTH 16 0
BBX 16 16 0 -2
BITMAP
0700
0600
4C04
7FFE
6306
6236
67F6
6E36
6BA6
71E6
60C6
6186
6306
6C06
7FFE
4004
ENDCHAR
STARTCHAR 2549
ENCODING 9545
SWIDTH 362 0
DWIDTH 16 0
BBX 16 16 0 -2
BITMAP
0180
0100
0303
0760
0438
080F
3007
DFF8
0000
0004
7FFE
0300
0630
0C18
3FFC
180C
ENDCHAR
STARTCHAR 254a
ENCODING 9546
SWIDTH 362 0
DWIDTH 16 0
BBX 16 16 0 -2
BITMAP
0180
0100
0303
0760
0438
080F
3007
C180
0180
FFFF
0180
0D90
198C
3186
6182
0100
ENDCHAR
STARTCHAR 254b
ENCODING 9547
SWIDTH 362 0
DWIDTH 16 0
BBX 16 16 0 -2
BITMAP
20C0
6060
6022
6FFF
FC00
E998
69F8
6998
5998
D998
7198
3998
2D19
4719
861F
0C0F
ENDCHAR
STARTCHAR 254c
ENCODING 9548
SWIDTH 362 0
DWIDTH 16 0
BBX 16 16 0 -2
BITMAP
20C8
60CC
60C8
6CC8
FDFF
E8C8
68C8
68C8
58C8
DBFF
70C8
3888
2D88
4508
8308
0608
ENDCHAR
STARTCHAR 254d
ENCODING 9549
SWIDTH 362 0
DWIDTH 16 0
BBX 16 16 0 -2
BITMAP
2030
6028
6024
6824
FC33
E830
6820
6830
5870
D870
7070
38D0
2C91
4591
831F
0C1F
ENDCHAR
STARTCHAR 254e
ENCODING 9550
SWIDTH 362 0
DWIDTH 16 0
BBX 16 16 0 -2
BITMAP
2060
6040
6040
69FC
FC4C
E84C
684C
684C
5FFF
D8C0
70D8
388C
2D86
4706
8602
0C02
ENDCHAR
STARTCHAR 254f
ENCODING 9551
SWIDTH 362 0
DWIDTH 16 0
BBX 16 16 0 -2
BITMAP
20C0
60C0
60C6
6983
FD02
EB02
6AF2
6802
5802
D802
70F2
3802
2C06
4406
803C
0008
ENDCHAR
STARTCHAR 2550
ENCODING 9552
SWIDTH 362 0
DWIDTH 16 0
BBX 16 16 0 -2
BITMAP
2018
67F8
6198
7998
F998
F99C
59FE
59C4
514C
D36C
7338
3230
7E38
4C7C
8CCF
1F02
ENDCHAR
STARTCHAR 2551
ENCODING 9553
SWIDTH 362 0
DWIDTH 16 0
BBX 16 16 0 -2
BITMAP
1018
1FF8
1018
1FF8
1018
1018
1FF8
0600
0630
FFFF
0C20
0860
1EC0
03F0
0E18
780C
ENDCHAR
STARTCHAR 2552
ENCODING 9554
SWIDTH 362 0
DWIDTH 16 0
BBX 16 16 0 -2
BITMAP
2088
61FC
618C
6D8C
FD8C
EFFF
698C
698C
598C
DBFF
718C
398C
2D0C
470C
833C
0618
ENDCHAR
STARTCHAR 2553
ENCODING 9555
SWIDTH 362 0
DWIDTH 16 0
BBX 16 16 0 -2
BITMAP
0180
318C
318C
218C
3FFC
0180
7FFE
0400
0630
0433
FFFF
0860
1860
03E0
0738
3C1C
ENDCHAR
STARTCHAR 2554
ENCODING 9556
SWIDTH 362 0
DWIDTH 16 0
BBX 16 16 0 -2
BITMAP
2000
6103
63FF
6B02
FED8
E8D8
68D8
68D8
58D8
D8D8
7098
3998
2D99
4519
831F
060F
ENDCHAR
STARTCHAR 2555
ENCODING 9557
SWIDTH 362 0
DWIDTH 16 0
BBX 16 16 0 -2
BITMAP
2070
6060
6060
6862
FFFF
EE66
6E60
6860
5870
D8F0
70F0
38B0
2DB1
4731
863F
0C1F
ENDCHAR
STARTCHAR 2556
ENCODING 9558
SWIDTH 362 0
DWIDTH 16 0
BBX 16 16 0 -2
BITMAP
3000
31FF
3010
3430
FE30
E470
24F4
64F2
6DB3
6F33
7A31
1C30
3C30
6430
C030
0030
ENDCHAR
STARTCHAR 2557
ENCODING 9559
SWIDTH 362 0
DWIDTH 16 0
BBX 16 16 0 -2
BITMAP
300C
301C
31E0
3460
FE60
E464
25FE
6460
6C60
6FFF
7860
1C60
3C61
6461
C07F
003F
ENDCHAR
STARTCHAR 2558
ENCODING 9560
SWIDTH 362 0
DWIDTH 16 0
BBX 16 16 0 -2
BITMAP
0300
0182
7FFE
0C60
03C0
03E0
0E7F
F03C
0FF0
0070
00C0
0182
7FFE
0180
0780
0180
ENDCHAR
STARTCHAR 2559
ENCODING 9561
SWIDTH 362 0
DWIDTH 16 0
BBX 16 16 0 -2
BITMAP
0300
4180
7FFF
C003
8104
0180
0198
001C
0030
0060
00C0
0180
0700
3E00
33FF
00FC
ENDCHAR
STARTCHAR 255a
ENCODING 9562
SWIDTH 362 0
DWIDTH 16 0
BBX 16 16 0 -2
BITMAP
0300
4180
7FFF
C003
8304
0180
0080
7FFF
0000
0000
0C30
1818
180C
3006
6006
C002
ENDCHAR
STARTCHAR 255b
ENCODING 9563
SWIDTH 362 0
DWIDTH 16 0
BBX 16 16 0 -2
BITMAP
0300
4180
7FFF
C003
C466
0630
0C18
081C
138F
6304
0200
0620
0C30
18F8
3F8C
1804
ENDCHAR
STARTCHAR 255c
ENCODING 9564
SWIDTH 362 0
DWIDTH 16 0
BBX 16 16 0 -2
BITMAP
200C
300C
1808
FF08
060F
040C
6408
2C88
3C68
1868
1828
1C08
3C08
2608
4678
8018
ENDCHAR
STARTCHAR 255d
ENCODING 9565
SWIDTH 362 0
DWIDTH 16 0
BBX 16 16 0 -2
BITMAP
0180
0184
7FFE
0180
3FFC
0100
0303
0730
0430
0832
7FFE
6630
8330
0130
00F0
0020
ENDCHAR
STARTCHAR 255e
ENCODING 9566
SWIDTH 362 0
DWIDTH 16 0
BBX 16 16 0 -2
BITMAP
0070
03C8
1E0C
0188
1890
0C20
0070
0060
FFFF
0060
0C60
0660
0260
0060
03E0
00C0
ENDCHAR
STARTCHAR 255f
ENCODING 9567
SWIDTH 362 0
DWIDTH 16 0
BBX 16 16 0 -2
BITMAP
0200
FF00
2DFC
2C20
2C20
2C20
2C20
2CFC
2C20
2C20
6C20
6C24
6DFF
4C01
CFFF
87FF
ENDCHAR
STARTCHAR 2560
ENCODING 9568
SWIDTH 362 0
DWIDTH 16 0
BBX 16 16 0 -2
BITMAP
3018
3010
3010
3113
F5FF
B593
B593
B593
B593
B5FF
B510
B410
FC10
0010
0010
0010
ENDCHAR
STARTCHAR 2561
ENCODING 9569
SWIDTH 362 0
DWIDTH 16 0
BBX 16 16 0 -2
BITMAP
1082
18FF
10C2
14C2
D6C2
D6FE
D6C2
D6C2
D6C2
D6FE
D6C2
D6C2
FE82
0182
030E
0206
ENDCHAR
STARTCHAR 2562
ENCODING 9570
SWIDTH 362 0
DWIDTH 16 0
BBX 16 16 0 -2
BITMAP
3010
30D8
30C8
3088
F48C
B506
B707
B7FF
B464
B464
B444
B4C4
FC8C
018C
0378
0630
ENDCHAR
STARTCHAR 2563
ENCODING 9571
SWIDTH 362 0
DWIDTH 16 0
BBX 16 16 0 -2
BITMAP
0180
318C
218C
218C
3FFC
0000
3FFC
218C
218C
3FFC
200C
2000
2001
2003
3FFF
1FFE
ENDCHAR
STARTCHAR 2564
ENCODING 9572
SWIDTH 362 0
DWIDTH 16 0
BBX 16 16 0 -2
BITMAP
0180
318C
218C
218C
3FFC
0300
0184
7FFE
0830
0430
0660
03C0
01E0
0778
1C1F
7004
ENDCHAR
STARTCHAR 2565
ENCODING 9573
SWIDTH 362 0
DWIDTH 16 0
BBX 16 16 0 -2
BITMAP
3060
3020
3022
33FF
F504
B48C
B48C
B4C8
B458
B470
B430
B470
FCD8
018E
0307
0602
ENDCHAR
STARTCHAR 2566
ENCODING 9574
SWIDTH 362 0
DWIDTH 16 0
BBX 16 16 0 -2
BITMAP
3000
31FE
3100
3100
F504
B5FE
B544
B54C
B54C
B568
B538
FF30
0338
066E
04C7
0B02
ENDCHAR
STARTCHAR 2567
ENCODING 9575
SWIDTH 362 0
DWIDTH 16 0
BBX 16 16 0 -2
BITMAP
0038
27E0
3C00
2000
3FFE
2000
2C0C
2CCC
2C44
2C44
2FFC
6C04
6C01
4C01
CFFF
87FF
ENDCHAR
STARTCHAR 2568
ENCODING 9576
SWIDTH 362 0
DWIDTH 16 0
BBX 16 16 0 -2
BITMAP
3010
3068
3048
FCCC
B484
B586
B503
B7FF
B466
B466
BC66
BC46
30C6
308C
313C
3218
ENDCHAR
STARTCHAR 2569
ENCODING 9577
SWIDTH 362 0
DWIDTH 16 0
BBX 16 16 0 -2
BITMAP
3030
3030
3070
FCC8
B4CC
B587
B7CA
B4D8
B4D8
B4D8
BCD8
B8D8
3098
3198
3118
3218
ENDCHAR
STARTCHAR 256a
ENCODING 9578
SWIDTH 362 0
DWIDTH 16 0
BBX 16 16 0 -2
BITMAP
0180
0180
01B7
018C
0198
FFFF
00C0
03C0
0CC8
7FFC
888C
088C
088C
089C
0888
0080
ENDCHAR
STARTCHAR 256b
ENCODING 9579
SWIDTH 362 0
DWIDTH 16 0
BBX 16 16 0 -2
BITMAP
00F8
7FC0
6180
7FFE
60C0
6064
7F3C
711C
018C
3188
3FFC
3188
3188
31B8
3198
0100
ENDCHAR
STARTCHAR 256c
ENCODING 9580
SWIDTH 362 0
DWIDTH 16 0
BBX 16 16 0 -2
BITMAP
0080
60C3
7FFF
60C0
6098
608C
60C2
60C0
60CE
60CC
6058
6070
4071
40FB
C30F
9C07
ENDCHAR
STARTCHAR 256d
ENCODING 9581
SWIDTH 362 0
DWIDTH 16 0
BBX 16 16 0 -2
BITMAP
0180
6083
7FFF
6060
6040
6040
6040
6FFE
6040
6040
6058
604C
4044
4040
C0C6
8000
ENDCHAR
STARTCHAR 256e
ENCODING 9582
SWIDTH 362 0
DWIDTH 16 0
BBX 16 16 0 -2
BITMAP
0180
6083
7FFF
600E
66FE
6600
67FE
6606
6606
67FE
6600
6600
6400
4C00
CC00
9800
ENDCHAR
STARTCHAR 256f
ENCODING 9583
SWIDTH 362 0
DWIDTH 16 0
BBX 16 16 0 -2
BITMAP
0300
0180
0186
0300
0710
0E18
1CFC
1C06
0C30
0630
0C33
0C30
0C20
0820
1020
6020
ENDCHAR
STARTCHAR 2570
ENCODING 9584
SWIDTH 362 0
DWIDTH 16 0
BBX 16 16 0 -2
BITMAP
1870
F860
1860
1860
5BFF
5860
C048
D8D8
F8D8
18B0
19B0
1960
1B44
1AC6
F4FF
20C3
ENDCHAR
STARTCHAR 2571
ENCODING 9585
SWIDTH 362 0
DWIDTH 16 0
BBX 16 16 0 -2
BITMAP
08C0
7CC0
0980
0986
49FE
6B64
4260
C860
FC70
0C70
08D0
08D8
188C
198E
F307
2602
ENDCHAR
STARTCHAR 2572
ENCODING 9586
SWIDTH 362 0
DWIDTH 16 0
BBX 16 16 0 -2
BITMAP
2004
300C
1818
1230
FE42
4406
2C0C
2C18
3862
1806
180C
3818
3CE0
6600
43FF
80FC
ENDCHAR
STARTCHAR 2573
ENCODING 9587
SWIDTH 362 0
DWIDTH 16 0
BBX 16 16 0 -2
BITMAP
3040
3020
2030
3018
38D8
B8C0
A0C0
A0C0
22C4
22C6
22C3
26C3
26C1
24C5
20FC
2078
ENDCHAR
STARTCHAR 2574
ENCODING 9588
SWIDTH 362 0
DWIDTH 16 0
BBX 16 16 0 -2
BITMAP
3070
3068
2064
3064
3862
B860
A060
A060
2070
2070
20F0
20F0
21B1
2331
263F
2C1F
ENDCHAR
STARTCHAR 2575
ENCODING 9589
SWIDTH 362 0
DWIDTH 16 0
BBX 16 16 0 -2
BITMAP
30C0
30C2
21FE
3180
3BFE
BA00
A018
A01C
2010
2020
2040
2080
2181
2101
21FF
20FF
ENDCHAR
STARTCHAR 2576
ENCODING 9590
SWIDTH 362 0
DWIDTH 16 0
BBX 16 16 0 -2
BITMAP
3030
3070
2070
30C8
38CC
B987
A38B
A4CC
2088
2088
2088
2188
2188
2108
2208
2408
ENDCHAR
STARTCHAR 2577
ENCODING 9591
SWIDTH 362 0
DWIDTH 16 0
BBX 16 16 0 -2
BITMAP
0180
6083
7FFF
6040
6020
6030
6198
6180
6580
6584
6D86
6D83
5983
4989
C1F8
80F8
ENDCHAR
STARTCHAR 2578
ENCODING 9592
SWIDTH 362 0
DWIDTH 16 0
BBX 16 16 0 -2
BITMAP
0078
1FC0
0180
0182
7FFE
0180
0180
0180
0100
0300
0D80
4CC6
480B
CC13
CFF1
07F0
ENDCHAR
STARTCHAR 2579
ENCODING 9593
SWIDTH 362 0
DWIDTH 16 0
BBX 16 16 0 -2
BITMAP
7080
60C0
6060
6003
77FF
F8C0
E0C4
E0FE
6084
6084
6184
6184
630C
630C
6678
6C30
ENDCHAR
STARTCHAR 257a
ENCODING 9594
SWIDTH 362 0
DWIDTH 16 0
BBX 16 16 0 -2
BITMAP
30C0
3060
2062
3000
3800
B9F8
A198
A198
2198
2198
2198
2198
2118
2319
261F
2C0F
ENDCHAR
STARTCHAR 257b
ENCODING 9595
SWIDTH 362 0
DWIDTH 16 0
BBX 16 16 0 -2
BITMAP
30C0
3060
2022
33FF
390C
B98C
A088
A098
20D0
2070
2060
2070
20F8
219E
230F
2C02
ENDCHAR
STARTCHAR 257c
ENCODING 9596
SWIDTH 362 0
DWIDTH 16 0
BBX 16 16 0 -2
BITMAP
3004
31FE
200C
30D8
3870
B823
A3FF
A022
2020
2020
2020
2020
2020
2020
21E0
2060
ENDCHAR
STARTCHAR 257d
ENCODING 9597
SWIDTH 362 0
DWIDTH 16 0
BBX 16 16 0 -2
BITMAP
3000
3004
21FE
3000
3800
B800
A3FF
A060
2040
20C0
20C0
2084
2186
23FB
2383
2000
ENDCHAR
STARTCHAR 257e
ENCODING 9598
SWIDTH 362 0
DWIDTH 16 0
BBX 16 16 0 -2
BITMAP
3070
3068
2064
3064
3862
B860
A060
A060
2070
2050
20D0
20D8
218C
210E
2307
2C02
ENDCHAR
STARTCHAR 2621
ENCODING 9761
SWIDTH 362 0
DWIDTH 16 0
BBX 16 16 0 -2
BITMAP
3070
3060
2060
3060
3866
B860
A060
A060
2070
2050
20D0
20D8
218C
21E6
2323
2601
ENDCHAR
STARTCHAR 2622
ENCODING 9762
SWIDTH 362 0
DWIDTH 16 0
BBX 16 16 0 -2
BITMAP
31C0
3180
2198
3198
3998
B999
A319
A30F
2646
2060
2060
27FF
2060
2060
2060
2040
ENDCHAR
STARTCHAR 2623
ENCODING 9763
SWIDTH 362 0
DWIDTH 16 0
BBX 16 16 0 -2
BITMAP
3000
31FC
2060
3060
3860
B860
A060
A7FF
2060
2060
2060
2060
2060
2060
23FE
2000
ENDCHAR
STARTCHAR 2624
ENCODING 9764
SWIDTH 362 0
DWIDTH 16 0
BBX 16 16 0 -2
BITMAP
3030
30D0
2098
3188
398C
BB0C
A307
A7FF
204C
204C
20CC
20CC
218C
2108
2378
2630
ENDCHAR
STARTCHAR 2625
ENCODING 9765
SWIDTH 362 0
DWIDTH 16 0
BBX 16 16 0 -2
BITMAP
0078
0048
0042
FFFF
0040
0246
7F44
636C
6268
6278
6230
7E30
6279
00DD
030F
1C07
ENDCHAR
STARTCHAR 2626
ENCODING 9766
SWIDTH 362 0
DWIDTH 16 0
BBX 16 16 0 -2
BITMAP
0048
004C
0044
FFFF
1040
1844
3046
2664
436C
FB68
4178
0230
3E71
E0DB
038F
0E07
ENDCHAR
STARTCHAR 2627
ENCODING 9767
SWIDTH 362 0
DWIDTH 16 0
BBX 16 16 0 -2
BITMAP
0068
004C
0044
7FFF
6040
6040
6040
7F46
646C
646C
6478
6431
5C71
48F9
C18F
8703
ENDCHAR
STARTCHAR 2628
ENCODING 9768
SWIDTH 362 0
DWIDTH 16 0
BBX 16 16 0 -2
BITMAP
001C
3FFC
3000
3FFE
3006
3006
3FFE
3060
3040
3044
37FE
30E0
2190
631C
C60F
9C04
ENDCHAR
STARTCHAR 2629
ENCODING 9769
SWIDTH 362 0
DWIDTH 16 0
BBX 16 16 0 -2
BITMAP
0000
7E7F
0660
0660
6666
6666
6666
6666
6666
6666
667E
466C
0C60
1860
3060
6040
ENDCHAR
STARTCHAR 262a
ENCODING 9770
SWIDTH 362 0
DWIDTH 16 0
BBX 16 16 0 -2
BITMAP
1800
13FF
1020
1420
7E20
1020
1020
1C24
79FE
F020
1020
1020
1020
1020
73FF
3000
ENDCHAR
STARTCHAR 262b
ENCODING 9771
SWIDTH 362 0
DWIDTH 16 0
BBX 16 16 0 -2
BITMAP
3002
31FE
3198
3198
7998
3118
33FF
3838
7038
F078
30D8
30D8
3198
3318
7678
2030
ENDCHAR
STARTCHAR 262c
ENCODING 9772
SWIDTH 362 0
DWIDTH 16 0
BBX 16 16 0 -2
BITMAP
1830
103C
1026
1422
7C22
11FF
1020
1C70
7070
F070
1058
10C8
108C
1186
7307
3602
ENDCHAR
STARTCHAR 262d
ENCODING 9773
SWIDTH 362 0
DWIDTH 16 0
BBX 16 16 0 -2
BITMAP
301C
31F0
3060
3060
7860
33FE
3060
3860
7060
F3FF
3060
3060
3061
3061
707F
203F
ENDCHAR
STARTCHAR 262e
ENCODING 9774
SWIDTH 362 0
DWIDTH 16 0
BBX 16 16 0 -2
BITMAP
19C7
1186
1186
1586
7D86
1186
1180
1D82
79FF
F183
1182
1182
1102
1302
7202
3602
ENDCHAR
STARTCHAR 262f
ENCODING 9775
SWIDTH 362 0
DWIDTH 16 0
BBX 16 16 0 -2
BITMAP
3040
3020
3030
3018
78D8
30C0
30C0
38C0
72C4
F2C6
32C3
36C3
36C1
34C5
70FC
2078
ENDCHAR
STARTCHAR 2630
ENCODING 9776
SWIDTH 362 0
DWIDTH 16 0
BBX 16 16 0 -2
BITMAP
30C0
3060
3060
3003
7BFF
3040
3044
38FE
70C4
F0C4
3084
3184
310C
330C
7678
2C30
ENDCHAR
STARTCHAR 2631
ENCODING 9777
SWIDTH 362 0
DWIDTH 16 0
BBX 16 16 0 -2
BITMAP
3106
31FE
3186
3D86
7D86
3186
31FE
39A2
71A0
F110
3110
3308
330C
3206
7403
2801
ENDCHAR
STARTCHAR 2632
ENCODING 9778
SWIDTH 362 0
DWIDTH 16 0
BBX 16 16 0 -2
BITMAP
1904
11FE
1106
1506
7F0E
111C
1100
1FFE
7946
F164
112C
113C
1118
113C
7167
31C3
ENDCHAR
STARTCHAR 2633
ENCODING 9779
SWIDTH 362 0
DWIDTH 16 0
BBX 16 16 0 -2
BITMAP
3310
3218
3218
7A98
37DE
32DB
329A
3A9A
F29A
F292
3292
32BE
36E7
34C1
7CFF
387F
ENDCHAR
STARTCHAR 2634
ENCODING 9780
SWIDTH 362 0
DWIDTH 16 0
BBX 16 16 0 -2
BITMAP
3060
3040
3040
33FF
78C0
30C0
30CE
38C6
70E4
F1AC
31A8
3338
3238
342C
70C7
2183
ENDCHAR
STARTCHAR 2635
ENCODING 9781
SWIDTH 362 0
DWIDTH 16 0
BBX 16 16 0 -2
BITMAP
300C
31FE
3020
3C20
7C22
33FE
3020
3820
7033
F030
3020
3020
3020
3020
71E0
2060
ENDCHAR
STARTCHAR 2636
ENCODING 9782
SWIDTH 362 0
DWIDTH 16 0
BBX 16 16 0 -2
BITMAP
30EC
31CC
30CC
30CC
78CC
30CC
30CF
38CC
70CC
F0CC
308C
318C
318C
310C
730C
260C
ENDCHAR
STARTCHAR 2637
ENCODING 9783
SWIDTH 362 0
DWIDTH 16 0
BBX 16 16 0 -2
BITMAP
30C0
30C0
3182
31FF
7B03
3203
30C3
38C3
7193
F13B
33DB
3103
3003
3006
703E
200C
ENDCHAR
STARTCHAR 2638
ENCODING 9784
SWIDTH 362 0
DWIDTH 16 0
BBX 16 16 0 -2
BITMAP
3000
3000
31C2
31BF
7B03
3203
36E3
3AC3
7183
F183
3103
33C3
3242
37FE
766C
2000
ENDCHAR
STARTCHAR 2639
ENCODING 9785
SWIDTH 362 0
DWIDTH 16 0
BBX 16 16 0 -2
BITMAP
3070
3060
3070
30D0
78D8
318C
3107
3E43
7420
F030
3018
3000
3060
3030
7030
2010
ENDCHAR
STARTCHAR 263a
ENCODING 9786
SWIDTH 362 0
DWIDTH 16 0
BBX 16 16 0 -2
BITMAP
00C0
7CC0
3080
3183
31FF
318C
3B8C
32C8
3058
3078
3030
3030
3078
30CE
7187
2602
ENDCHAR
STARTCHAR 263b
ENCODING 9787
SWIDTH 362 0
DWIDTH 16 0
BBX 16 16 0 -2
BITMAP
0300
0184
7FFE
0660
03C0
07E0
0C3F
718E
C188
1FFC
0180
0184
7FFE
0180
0180
0100
ENDCHAR
STARTCHAR 263c
ENCODING 9788
SWIDTH 362 0
DWIDTH 16 0
BBX 16 16 0 -2
BITMAP
00C0
00C0
F882
D9FF
D900
DA00
DC18
F81C
D830
D860
D8C0
D980
FB81
8301
03FF
00FF
ENDCHAR
STARTCHAR 263d
ENCODING 9789
SWIDTH 362 0
DWIDTH 16 0
BBX 16 16 0 -2
BITMAP
000C
000C
FC08
CC08
CC0F
CC0C
CC08
FD88
CCC8
CCC8
CC48
CC08
FC08
8008
0078
0018
ENDCHAR
STARTCHAR 263e
ENCODING 9790
SWIDTH 362 0
DWIDTH 16 0
BBX 16 16 0 -2
BITMAP
1018
1818
1818
1FF8
1818
1FF8
1018
0000
7FFE
0460
0460
0C60
0860
1860
307F
C03F
ENDCHAR
STARTCHAR 263f
ENCODING 9791
SWIDTH 362 0
DWIDTH 16 0
BBX 16 16 0 -2
BITMAP
1018
1FF8
1018
1FF8
1018
1018
1FF8
1008
0180
0100
010C
0100
0100
0100
0102
7FFF
ENDCHAR
STARTCHAR 2640
ENCODING 9792
SWIDTH 362 0
DWIDTH 16 0
BBX 16 16 0 -2
BITMAP
1018
1FF8
1018
1018
1FF8
1000
0030
0070
00C0
0182
7FFF
0180
0180
0180
0780
0300
ENDCHAR
STARTCHAR 2641
ENCODING 9793
SWIDTH 362 0
DWIDTH 16 0
BBX 16 16 0 -2
BITMAP
01A0
0130
0118
7FFC
610C
610C
7FFC
610C
7FFC
2188
019C
00F0
00C1
03E1
0E3F
700F
ENDCHAR
STARTCHAR 2642
ENCODING 9794
SWIDTH 362 0
DWIDTH 16 0
BBX 16 16 0 -2
BITMAP
1804
11FE
1006
1406
7C86
30C4
3880
3D82
75FF
7003
D002
9002
1006
1006
107C
1008
ENDCHAR
STARTCHAR 2643
ENCODING 9795
SWIDTH 362 0
DWIDTH 16 0
BBX 16 16 0 -2
BITMAP
3030
3030
3030
FC30
3030
31BC
79B4
7DB6
71B3
F333
B331
B630
3030
3030
31F0
3020
ENDCHAR
STARTCHAR 2644
ENCODING 9796
SWIDTH 362 0
DWIDTH 16 0
BBX 16 16 0 -2
BITMAP
180C
103C
10E0
1460
7C60
3060
3860
3DFF
7460
7060
D060
9060
1061
1061
107F
103F
ENDCHAR
STARTCHAR 2645
ENCODING 9797
SWIDTH 362 0
DWIDTH 16 0
BBX 16 16 0 -2
BITMAP
3002
31FF
3023
FC23
3023
3123
78A3
7CE3
7063
F063
B063
B0C3
30C2
3186
333C
3608
ENDCHAR
STARTCHAR 2646
ENCODING 9798
SWIDTH 362 0
DWIDTH 16 0
BBX 16 16 0 -2
BITMAP
1808
11FC
10C8
14C8
7CC8
30C8
38C8
3FF8
74C8
70C8
D0C8
90C8
10C9
10CD
10CF
10C0
ENDCHAR
STARTCHAR 2647
ENCODING 9799
SWIDTH 362 0
DWIDTH 16 0
BBX 16 16 0 -2
BITMAP
2004
7FFE
6006
6006
7FFE
60C0
60C0
60C6
6FFE
62C0
63F0
66CC
6CC6
48C3
D0C0
80C0
ENDCHAR
STARTCHAR 2648
ENCODING 9800
SWIDTH 362 0
DWIDTH 16 0
BBX 16 16 0 -2
BITMAP
301C
30F0
31A0
7C20
3020
3023
7BFF
7C20
F020
B020
3020
3020
3020
3020
3020
3020
ENDCHAR
STARTCHAR 2649
ENCODING 9801
SWIDTH 362 0
DWIDTH 16 0
BBX 16 16 0 -2
BITMAP
3102
3186
31B6
FDB6
31B6
31B6
79B6
7DB6
71B6
F1B6
B136
B136
3336
3236
3606
3C06
ENDCHAR
STARTCHAR 264a
ENCODING 9802
SWIDTH 362 0
DWIDTH 16 0
BBX 16 16 0 -2
BITMAP
0600
0618
0FF8
1E30
33E0
03E0
0E3F
790C
C180
0183
FFFF
0980
1998
318C
6186
0100
ENDCHAR
STARTCHAR 264b
ENCODING 9803
SWIDTH 362 0
DWIDTH 16 0
BBX 16 16 0 -2
BITMAP
201C
3198
10D8
00D8
8858
4818
7998
1098
3098
301F
67F8
E018
6018
6018
6018
2018
ENDCHAR
STARTCHAR 264c
ENCODING 9804
SWIDTH 362 0
DWIDTH 16 0
BBX 16 16 0 -2
BITMAP
2004
31FE
100C
0098
88F0
4863
7FFF
1062
3060
3060
6060
E060
6060
6060
61E0
20C0
ENDCHAR
STARTCHAR 264d
ENCODING 9805
SWIDTH 362 0
DWIDTH 16 0
BBX 16 16 0 -2
BITMAP
2000
33FC
108C
0088
8888
4888
7888
17FF
3198
3198
6198
E198
6198
6198
619B
2000
ENDCHAR
STARTCHAR 264e
ENCODING 9806
SWIDTH 362 0
DWIDTH 16 0
BBX 16 16 0 -2
BITMAP
2000
37FF
1020
0020
8B36
4B36
7B26
1326
3326
3326
6326
E33E
632C
6020
6020
2020
ENDCHAR
STARTCHAR 264f
ENCODING 9807
SWIDTH 362 0
DWIDTH 16 0
BBX 16 16 0 -2
BITMAP
2060
3050
1048
004C
8842
4BFF
7840
1046
3066
306C
6078
E038
6079
60FD
618F
2703
ENDCHAR
STARTCHAR 2650
ENCODING 9808
SWIDTH 362 0
DWIDTH 16 0
BBX 16 16 0 -2
BITMAP
20C0
30C0
1180
01FF
8B03
4B02
7E12
11FA
3002
3002
6012
E1FA
6006
6006
603C
2008
ENDCHAR
STARTCHAR 2651
ENCODING 9809
SWIDTH 362 0
DWIDTH 16 0
BBX 16 16 0 -2
BITMAP
2030
31B0
11A0
0120
8BFE
4B20
7A20
1420
3022
37FF
6020
E020
6020
6020
6020
2020
ENDCHAR
STARTCHAR 2652
ENCODING 9810
SWIDTH 362 0
DWIDTH 16 0
BBX 16 16 0 -2
BITMAP
21C0
1180
1982
01FF
C702
6A02
28C2
1882
11B2
3372
33DA
6102
6006
3006
303C
2008
ENDCHAR
STARTCHAR 2653
ENCODING 9811
SWIDTH 362 0
DWIDTH 16 0
BBX 16 16 0 -2
BITMAP
4060
2060
00E0
00D0
8998
D10C
531F
1607
3C00
21FC
600C
E00C
6018
6010
6030
2020
ENDCHAR
STARTCHAR 2654
ENCODING 9812
SWIDTH 362 0
DWIDTH 16 0
BBX 16 16 0 -2
BITMAP
0300
4180
7FFF
C003
8184
0180
018E
7D8C
0DD0
0DE0
19B0
1198
318F
6186
8780
0300
ENDCHAR
STARTCHAR 2655
ENCODING 9813
SWIDTH 362 0
DWIDTH 16 0
BBX 16 16 0 -2
BITMAP
0180
7186
6184
6184
7FFC
0180
0180
018C
7D9C
0DF0
09E0
19B0
319C
6187
C780
0300
ENDCHAR
STARTCHAR 2656
ENCODING 9814
SWIDTH 362 0
DWIDTH 16 0
BBX 16 16 0 -2
BITMAP
2106
31FE
1186
0186
8986
4986
79FE
11A2
31A0
3110
6110
E308
630C
6206
6403
2801
ENDCHAR
STARTCHAR 2657
ENCODING 9815
SWIDTH 362 0
DWIDTH 16 0
BBX 16 16 0 -2
BITMAP
4000
300C
368B
06DB
8E5A
4E72
7632
1632
367A
365A
66CA
E68A
6702
6602
67FE
2002
ENDCHAR
STARTCHAR 2658
ENCODING 9816
SWIDTH 362 0
DWIDTH 16 0
BBX 16 16 0 -2
BITMAP
21C0
3180
1180
0102
89FE
4B88
7A88
1698
30D8
3050
6070
E070
6058
609E
630F
2604
ENDCHAR
STARTCHAR 2659
ENCODING 9817
SWIDTH 362 0
DWIDTH 16 0
BBX 16 16 0 -2
BITMAP
2118
31F8
1198
0198
891C
4B0F
7A00
15FC
310C
3098
60D8
E070
6070
60DC
638F
2602
ENDCHAR
STARTCHAR 265a
ENCODING 9818
SWIDTH 362 0
DWIDTH 16 0
BBX 16 16 0 -2
BITMAP
20C0
30C0
1080
0186
89FE
4B64
7E60
1060
3070
3070
60D0
E0D8
608C
618E
6307
2C02
ENDCHAR
STARTCHAR 265b
ENCODING 9819
SWIDTH 362 0
DWIDTH 16 0
BBX 16 16 0 -2
BITMAP
200C
31FE
1100
01FF
8903
4902
7902
11FE
3102
3100
6300
E300
6300
6200
6600
2C00
ENDCHAR
STARTCHAR 265c
ENCODING 9820
SWIDTH 362 0
DWIDTH 16 0
BBX 16 16 0 -2
BITMAP
201C
3378
13E8
0368
8B68
4B68
7B68
1368
336C
336C
6264
E264
6666
6463
6C63
2840
ENDCHAR
STARTCHAR 265d
ENCODING 9821
SWIDTH 362 0
DWIDTH 16 0
BBX 16 16 0 -2
BITMAP
2020
3030
1090
00D8
8988
490C
7B4E
1267
3643
34C0
6080
E188
610C
633C
67E6
2304
ENDCHAR
STARTCHAR 265e
ENCODING 9822
SWIDTH 362 0
DWIDTH 16 0
BBX 16 16 0 -2
BITMAP
300C
303C
30E0
3460
BC60
F860
7062
33FF
3060
3060
3060
2860
6C61
4461
C07F
803F
ENDCHAR
STARTCHAR 265f
ENCODING 9823
SWIDTH 362 0
DWIDTH 16 0
BBX 16 16 0 -2
BITMAP
0180
0198
1998
0DB0
0340
0338
0E0E
3806
4630
0430
0C32
0C30
0C20
0C20
1820
3020
ENDCHAR
STARTCHAR 2660
ENCODING 9824
SWIDTH 362 0
DWIDTH 16 0
BBX 16 16 0 -2
BITMAP
0300
4180
7FFF
C003
C184
0188
318C
1998
0DB0
0DA0
0380
03C0
0660
0C38
381F
6004
ENDCHAR
STARTCHAR 2661
ENCODING 9825
SWIDTH 362 0
DWIDTH 16 0
BBX 16 16 0 -2
BITMAP
3060
3060
3040
34FF
BCC3
F882
7186
3146
3336
321C
300C
2818
6C30
4460
C0C0
8300
ENDCHAR
STARTCHAR 2662
ENCODING 9826
SWIDTH 362 0
DWIDTH 16 0
BBX 16 16 0 -2
BITMAP
0008
1FFC
0008
FFFF
0008
0008
1FF8
0180
018C
318C
1990
0BC0
0760
0E38
181F
7006
ENDCHAR
STARTCHAR 2663
ENCODING 9827
SWIDTH 362 0
DWIDTH 16 0
BBX 16 16 0 -2
BITMAP
0180
0180
0198
0180
0180
0182
7FFE
0180
018C
318C
1990
0BC0
0760
0E38
381F
6006
ENDCHAR
STARTCHAR 2664
ENCODING 9828
SWIDTH 362 0
DWIDTH 16 0
BBX 16 16 0 -2
BITMAP
1800
7040
5020
5030
FDFF
D180
9180
1180
3D80
F180
D180
1180
1180
1180
10FE
1000
ENDCHAR
STARTCHAR 2665
ENCODING 9829
SWIDTH 362 0
DWIDTH 16 0
BBX 16 16 0 -2
BITMAP
1804
59FE
5830
5830
FE30
D830
9833
1830
1E30
F830
D830
1830
1830
1830
1830
1030
ENDCHAR
STARTCHAR 2666
ENCODING 9830
SWIDTH 362 0
DWIDTH 16 0
BBX 16 16 0 -2
BITMAP
0830
5830
3033
3030
5020
99FE
1926
1926
3926
6926
C926
0926
093E
192C
7820
3020
ENDCHAR
STARTCHAR 2667
ENCODING 9831
SWIDTH 362 0
DWIDTH 16 0
BBX 16 16 0 -2
BITMAP
1068
F7F8
6058
6098
B198
3198
3198
39D8
7F98
DF98
9998
1998
1999
3199
F79F
630F
ENDCHAR
STARTCHAR 2668
ENCODING 9832
SWIDTH 362 0
DWIDTH 16 0
BBX 16 16 0 -2
BITMAP
1030
D830
7020
6020
F3FF
1070
1870
3878
38E8
58AC
99A6
1B23
1A23
1C20
7020
2020
ENDCHAR
STARTCHAR 2669
ENCODING 9833
SWIDTH 362 0
DWIDTH 16 0
BBX 16 16 0 -2
BITMAP
1070
D868
7064
6064
F062
1060
1860
3860
3870
58F0
98F0
18B0
19B1
1B31
763F
2C1F
ENDCHAR
STARTCHAR 266a
ENCODING 9834
SWIDTH 362 0
DWIDTH 16 0
BBX 16 16 0 -2
BITMAP
0830
583C
3026
3022
5032
9830
1820
1870
3870
6870
C858
08D8
088C
198E
7B07
3602
ENDCHAR
STARTCHAR 266b
ENCODING 9835
SWIDTH 362 0
DWIDTH 16 0
BBX 16 16 0 -2
BITMAP
0C30
0C3C
C826
6822
2832
0830
0820
0870
0870
0870
3858
E8C8
C8CC
0986
0907
0E02
ENDCHAR
STARTCHAR 266c
ENCODING 9836
SWIDTH 362 0
DWIDTH 16 0
BBX 16 16 0 -2
BITMAP
1070
D860
7062
67FF
F060
1366
1B64
3B64
3B64
5B64
9BFC
1864
1861
1861
707F
203F
ENDCHAR
STARTCHAR 266d
ENCODING 9837
SWIDTH 362 0
DWIDTH 16 0
BBX 16 16 0 -2
BITMAP
101E
D9F0
7100
6100
F100
11FF
1918
3918
3918
5B18
9B18
1B18
1A18
1E18
7418
2010
ENDCHAR
STARTCHAR 266e
ENCODING 9838
SWIDTH 362 0
DWIDTH 16 0
BBX 16 16 0 -2
BITMAP
0004
0DFE
FC06
3006
3006
3006
3986
3184
3180
3180
3180
3D80
F181
C183
01FF
0000
ENDCHAR
STARTCHAR 266f
ENCODING 9839
SWIDTH 362 0
DWIDTH 16 0
BBX 16 16 0 -2
BITMAP
0004
0DFE
FC0C
3018
3020
3020
3820
37FF
3020
3020
3020
3C20
F020
C020
01E0
0060
ENDCHAR
STARTCHAR 2670
ENCODING 9840
SWIDTH 362 0
DWIDTH 16 0
BBX 16 16 0 -2
BITMAP
0000
0DFE
FC00
3000
3002
33FF
38C0
3080
318E
3186
3006
3C06
F004
C00C
007C
0018
ENDCHAR
STARTCHAR 2671
ENCODING 9841
SWIDTH 362 0
DWIDTH 16 0
BBX 16 16 0 -2
BITMAP
0000
0DF8
FC98
3098
3098
3198
38D8
30F8
30F8
30B8
3098
3D99
F199
C31B
030F
0600
ENDCHAR
STARTCHAR 2672
ENCODING 9842
SWIDTH 362 0
DWIDTH 16 0
BBX 16 16 0 -2
BITMAP
0020
0030
CC20
FC20
B420
B420
B430
FC70
B470
B470
B458
FCC8
848C
0186
0303
0601
ENDCHAR
STARTCHAR 2673
ENCODING 9843
SWIDTH 362 0
DWIDTH 16 0
BBX 16 16 0 -2
BITMAP
0080
30C3
3FFF
B000
F018
718C
3198
3192
31BF
F182
B102
2302
6306
6606
443C
8808
ENDCHAR
STARTCHAR 2674
ENCODING 9844
SWIDTH 362 0
DWIDTH 16 0
BBX 16 16 0 -2
BITMAP
0600
0600
3FFC
200C
300C
300C
200C
3FFC
3000
1818
19F8
1E00
1802
1804
1FFC
0FFC
ENDCHAR
STARTCHAR 2675
ENCODING 9845
SWIDTH 362 0
DWIDTH 16 0
BBX 16 16 0 -2
BITMAP
0700
0600
3C18
300C
3008
3FF8
3008
3FF8
3008
0300
0600
0C18
180C
31FE
7E06
3002
ENDCHAR
STARTCHAR 2676
ENCODING 9846
SWIDTH 362 0
DWIDTH 16 0
BBX 16 16 0 -2
BITMAP
0700
0600
3C18
300C
3008
3FF8
3008
3008
3008
3668
0660
0460
0C61
0861
307F
603F
ENDCHAR
STARTCHAR 2677
ENCODING 9847
SWIDTH 362 0
DWIDTH 16 0
BBX 16 16 0 -2
BITMAP
0180
0100
0100
0180
01C0
0170
0130
0110
0100
0100
2008
3FFC
3648
3648
364A
FFFF
ENDCHAR
STARTCHAR 2678
ENCODING 9848
SWIDTH 362 0
DWIDTH 16 0
BBX 16 16 0 -2
BITMAP
0020
3FF0
0630
0666
047E
0C06
0806
1806
303C
6008
0008
3FFC
3648
3648
3648
FFFF
ENDCHAR
STARTCHAR 2679
ENCODING 9849
SWIDTH 362 0
DWIDTH 16 0
BBX 16 16 0 -2
BITMAP
0002
FBFF
D860
D840
D8C0
F8C0
D986
D986
D806
D806
D806
D806
D806
D804
007C
0018
ENDCHAR
STARTCHAR 267a
ENCODING 9850
SWIDTH 362 0
DWIDTH 16 0
BBX 16 16 0 -2
BITMAP
00C0
FEC0
30C0
30C0
20C0
60C7
7CF8
64C0
E4C0
E4C0
64C0
64C0
7CC1
64C1
00FF
007F
ENDCHAR
STARTCHAR 267b
ENCODING 9851
SWIDTH 362 0
DWIDTH 16 0
BBX 16 16 0 -2
BITMAP
0000
7C03
21FF
2010
6010
6010
7C10
EC10
EC10
EC10
6C10
6C10
7C10
6C10
40F0
0020
ENDCHAR
STARTCHAR 267c
ENCODING 9852
SWIDTH 362 0
DWIDTH 16 0
BBX 16 16 0 -2
BITMAP
0003
FF83
1832
1032
3032
3032
3F32
6132
E132
A132
2132
2132
3F02
2102
201E
0006
ENDCHAR
STARTCHAR 267d
ENCODING 9853
SWIDTH 362 0
DWIDTH 16 0
BBX 16 16 0 -2
BITMAP
1C08
79FC
10CC
10CC
7CC8
30D8
38DF
3C83
7483
7183
D183
9103
1303
1306
163E
140C
ENDCHAR
STARTCHAR 267e
ENCODING 9854
SWIDTH 362 0
DWIDTH 16 0
BBX 16 16 0 -2
BITMAP
0000
61FC
218C
0D88
FD88
0D88
8988
5988
5988
7988
7188
3D88
F109
C309
060F
0C07
ENDCHAR
STARTCHAR 2721
ENCODING 10017
SWIDTH 362 0
DWIDTH 16 0
BBX 16 16 0 -2
BITMAP
0030
6030
2030
0C30
FC30
0C30
8BFF
5830
5830
7830
7030
3C30
F030
C030
0030
0030
ENDCHAR
STARTCHAR 2722
ENCODING 10018
SWIDTH 362 0
DWIDTH 16 0
BBX 16 16 0 -2
BITMAP
3060
3040
2040
6C40
4C40
F840
3040
3C40
6440
FE40
E240
0441
5641
DA43
D87F
807E
ENDCHAR
STARTCHAR 2723
ENCODING 10019
SWIDTH 362 0
DWIDTH 16 0
BBX 16 16 0 -2
BITMAP
4800
7DFE
6C00
6C00
7C02
7DFF
6CC0
6CC0
6CCE
7C86
4C06
4C06
CC04
CC0C
9C7C
8818
ENDCHAR
STARTCHAR 2724
ENCODING 10020
SWIDTH 362 0
DWIDTH 16 0
BBX 16 16 0 -2
BITMAP
08C0
7CC0
6CC0
6CFF
7D83
7D02
6F02
6C62
6C32
7C32
4C12
4C02
CC06
CC06
BC3C
9808
ENDCHAR
STARTCHAR 2725
ENCODING 10021
SWIDTH 362 0
DWIDTH 16 0
BBX 16 16 0 -2
BITMAP
0840
7C60
6C60
6C4C
7C4C
7FFF
6CCC
6CCC
6C88
7D98
4D98
4CF0
CC38
CC6C
BCC6
9B02
ENDCHAR
STARTCHAR 2726
ENCODING 10022
SWIDTH 362 0
DWIDTH 16 0
BBX 16 16 0 -2
BITMAP
0818
7D90
6D90
6D90
7D93
7FF3
6D92
6D96
6D96
7D94
4D94
4D90
CD81
CD81
BDFF
98FF
ENDCHAR
STARTCHAR 2727
ENCODING 10023
SWIDTH 362 0
DWIDTH 16 0
BBX 16 16 0 -2
BITMAP
1C18
1810
FF7F
1810
1810
0180
0180
1180
1998
318C
3186
6186
C182
0180
0F80
0300
ENDCHAR
STARTCHAR 2728
ENCODING 10024
SWIDTH 362 0
DWIDTH 16 0
BBX 16 16 0 -2
BITMAP
1C18
1A13
FE7F
1810
0200
01B0
08B0
0C30
0420
0660
03C0
01C0
03E0
063C
181F
7006
ENDCHAR
STARTCHAR 2729
ENCODING 10025
SWIDTH 362 0
DWIDTH 16 0
BBX 16 16 0 -2
BITMAP
1C18
1A13
FE7F
1810
0000
1FF8
0000
0002
7FFE
0C08
0FFC
000C
0008
0018
00F0
0020
ENDCHAR
STARTCHAR 272a
ENCODING 10026
SWIDTH 362 0
DWIDTH 16 0
BBX 16 16 0 -2
BITMAP
1C18
1A13
FE7F
1810
0000
1FF8
0018
1818
1818
1FF8
1800
1801
1803
1802
1FFF
0FFE
ENDCHAR
STARTCHAR 272b
ENCODING 10027
SWIDTH 362 0
DWIDTH 16 0
BBX 16 16 0 -2
BITMAP
1C18
1A13
FE7F
1810
0200
0600
0618
0C1C
0C18
1E30
3370
01E0
01C0
0380
0E00
7800
ENDCHAR
STARTCHAR 272c
ENCODING 10028
SWIDTH 362 0
DWIDTH 16 0
BBX 16 16 0 -2
BITMAP
1C18
1A13
FE7F
1810
0C00
0C00
0C18
0FF8
1C18
1630
2360
01C0
03E0
073C
1C1F
7004
ENDCHAR
STARTCHAR 272d
ENCODING 10029
SWIDTH 362 0
DWIDTH 16 0
BBX 16 16 0 -2
BITMAP
1860
1040
1040
1440
FE40
D640
D640
D640
F640
F440
1040
1C41
1641
FE43
C27F
007E
ENDCHAR
STARTCHAR 272e
ENCODING 10030
SWIDTH 362 0
DWIDTH 16 0
BBX 16 16 0 -2
BITMAP
0030
01F8
1F80
0180
0180
3FFC
318C
3188
3188
3FF8
0180
0188
018C
07FE
7F02
3002
ENDCHAR
STARTCHAR 272f
ENCODING 10031
SWIDTH 362 0
DWIDTH 16 0
BBX 16 16 0 -2
BITMAP
0070
03C0
1E38
01F0
1F1C
01F0
1F80
0180
0180
0DFC
0980
1980
1D80
3780
63FF
C0FF
ENDCHAR
STARTCHAR 2730
ENCODING 10032
SWIDTH 362 0
DWIDTH 16 0
BBX 16 16 0 -2
BITMAP
0020
4060
3060
1062
07FE
3060
F870
3050
70D0
7898
198C
3307
3602
7800
CFFF
03FC
ENDCHAR
STARTCHAR 2731
ENCODING 10033
SWIDTH 362 0
DWIDTH 16 0
BBX 16 16 0 -2
BITMAP
0008
4018
3018
101A
07FF
3018
F918
3098
78D8
7858
1818
3018
3078
7810
CFFF
01FC
ENDCHAR
STARTCHAR 2732
ENCODING 10034
SWIDTH 362 0
DWIDTH 16 0
BBX 16 16 0 -2
BITMAP
0000
41FE
300E
1018
0030
3020
FFFF
3020
7820
7820
1820
3020
31E0
7840
CFFF
01FC
ENDCHAR
STARTCHAR 2733
ENCODING 10035
SWIDTH 362 0
DWIDTH 16 0
BBX 16 16 0 -2
BITMAP
000C
407C
31E0
1020
0020
3022
FBFE
3020
7820
7820
1820
3020
3020
7820
CFFF
01FC
ENDCHAR
STARTCHAR 2734
ENCODING 10036
SWIDTH 362 0
DWIDTH 16 0
BBX 16 16 0 -2
BITMAP
0C26
0C3E
0826
09A4
6B24
2A2C
2824
0822
0823
0823
1E23
1B3F
3326
31A0
6020
C020
ENDCHAR
STARTCHAR 2735
ENCODING 10037
SWIDTH 362 0
DWIDTH 16 0
BBX 16 16 0 -2
BITMAP
0726
7E3E
6026
6024
6024
7FAC
6624
6622
6623
6623
6623
663F
4626
4620
C620
8420
ENDCHAR
STARTCHAR 2736
ENCODING 10038
SWIDTH 362 0
DWIDTH 16 0
BBX 16 16 0 -2
BITMAP
0022
033F
7F32
0036
0034
003C
FFB6
1832
1833
3031
3031
223F
6337
FDB0
E1B0
0030
ENDCHAR
STARTCHAR 2737
ENCODING 10039
SWIDTH 362 0
DWIDTH 16 0
BBX 16 16 0 -2
BITMAP
0C26
0C3E
0C26
0D24
7FA4
0C2C
1E24
1F22
3D23
3DA3
6CA3
4C2F
8C26
0C20
0C20
0C20
ENDCHAR
STARTCHAR 2738
ENCODING 10040
SWIDTH 362 0
DWIDTH 16 0
BBX 16 16 0 -2
BITMAP
2126
7FBE
6136
7934
6D34
653C
6134
FFF2
6133
6133
6133
613F
6136
4130
CF30
8230
ENDCHAR
STARTCHAR 2739
ENCODING 10041
SWIDTH 362 0
DWIDTH 16 0
BBX 16 16 0 -2
BITMAP
0C26
0C3E
0DA6
0C24
0824
692C
6924
6922
6923
6923
7F23
092F
0826
0F20
0C20
0820
ENDCHAR
STARTCHAR 273a
ENCODING 10042
SWIDTH 362 0
DWIDTH 16 0
BBX 16 16 0 -2
BITMAP
981C
F898
D8D8
D078
F018
E018
D198
D8D8
C8D8
C81F
CBF8
F818
D018
C018
C018
C018
ENDCHAR
STARTCHAR 273b
ENCODING 10043
SWIDTH 362 0
DWIDTH 16 0
BBX 16 16 0 -2
BITMAP
9860
F860
D860
D466
F66C
F36C
D368
D960
C860
C8E0
C8D0
F990
D198
C30E
C607
CC02
ENDCHAR
STARTCHAR 273c
ENCODING 10044
SWIDTH 362 0
DWIDTH 16 0
BBX 16 16 0 -2
BITMAP
9800
F9FF
D810
D030
F030
E070
D0F4
D8F2
C9B3
CB33
CE31
F830
D030
C030
C030
C030
ENDCHAR
STARTCHAR 273d
ENCODING 10045
SWIDTH 362 0
DWIDTH 16 0
BBX 16 16 0 -2
BITMAP
9000
FB06
D3FE
D306
E306
E306
F306
D3FE
DB06
DB06
DB06
FB06
D306
C3FE
C306
C000
ENDCHAR
STARTCHAR 273e
ENCODING 10046
SWIDTH 362 0
DWIDTH 16 0
BBX 16 16 0 -2
BITMAP
9906
F9FE
D986
D186
F186
E1FE
D186
D986
C986
C9FE
C986
F906
D306
C306
C61E
CC0C
ENDCHAR
STARTCHAR 273f
ENCODING 10047
SWIDTH 362 0
DWIDTH 16 0
BBX 16 16 0 -2
BITMAP
98EC
FBCC
D888
D088
F088
E088
D0CF
D8CC
C888
C888
C988
F988
D108
C308
C208
C408
ENDCHAR
STARTCHAR 2740
ENCODING 10048
SWIDTH 362 0
DWIDTH 16 0
BBX 16 16 0 -2
BITMAP
0000
FF7F
0000
0000
4646
4646
4646
4646
5656
5E5E
4E4E
4646
4646
4646
5E5E
4C4C
ENDCHAR
STARTCHAR 2741
ENCODING 10049
SWIDTH 362 0
DWIDTH 16 0
BBX 16 16 0 -2
BITMAP
0404
7E7E
0C0C
6848
3030
1213
FFFF
1612
1414
1010
1010
1010
1010
1010
7070
2020
ENDCHAR
STARTCHAR 2742
ENCODING 10050
SWIDTH 362 0
DWIDTH 16 0
BBX 16 16 0 -2
BITMAP
0300
0620
0C38
1FDC
180C
1018
3030
6624
6F7E
F362
0000
000C
3FFC
0000
0002
FFFF
ENDCHAR
STARTCHAR 2743
ENCODING 10051
SWIDTH 362 0
DWIDTH 16 0
BBX 16 16 0 -2
BITMAP
0C60
1860
1BFC
106C
306F
306C
706C
F3FC
B060
37FE
3060
3063
37FF
3060
3060
3040
ENDCHAR
STARTCHAR 2744
ENCODING 10052
SWIDTH 362 0
DWIDTH 16 0
BBX 16 16 0 -2
BITMAP
1C70
1A66
1B66
316C
31E8
7068
7062
B0D8
3098
3098
3098
3198
3119
3319
361F
3C0F
ENDCHAR
STARTCHAR 2745
ENCODING 10053
SWIDTH 362 0
DWIDTH 16 0
BBX 16 16 0 -2
BITMAP
0C30
1820
183C
11E0
3024
33FE
7020
F022
B7FE
3070
30F8
30AC
3127
3223
3420
3020
ENDCHAR
STARTCHAR 2746
ENCODING 10054
SWIDTH 362 0
DWIDTH 16 0
BBX 16 16 0 -2
BITMAP
1A0C
360C
360C
27FC
664C
66CC
E6FC
E6FC
66BC
67BC
67EC
6664
6465
6CC7
6C83
7903
ENDCHAR
STARTCHAR 2747
ENCODING 10055
SWIDTH 362 0
DWIDTH 16 0
BBX 16 16 0 -2
BITMAP
1CC0
198C
19FC
3398
3270
7478
71DF
B776
3464
33FC
3360
3360
33FE
3060
3060
3060
ENDCHAR
STARTCHAR 2748
ENCODING 10056
SWIDTH 362 0
DWIDTH 16 0
BBX 16 16 0 -2
BITMAP
1C30
1834
1926
31AC
30A8
6020
63FF
A020
20A0
21A4
2326
2323
2623
2C21
2020
2020
ENDCHAR
STARTCHAR 2749
ENCODING 10057
SWIDTH 362 0
DWIDTH 16 0
BBX 16 16 0 -2
BITMAP
1C60
1860
1866
37FE
3064
666E
636C
A178
2066
20F0
20F0
20D0
2198
230E
2607
3C02
ENDCHAR
STARTCHAR 274a
ENCODING 10058
SWIDTH 362 0
DWIDTH 16 0
BBX 16 16 0 -2
BITMAP
1C04
1BFE
1860
306C
33FE
6364
6364
A7FF
2364
2364
236F
230C
2304
2304
231C
2308
ENDCHAR
STARTCHAR 274b
ENCODING 10059
SWIDTH 362 0
DWIDTH 16 0
BBX 16 16 0 -2
BITMAP
1C00
1FFF
18D0
30D0
30D0
77FE
76D6
B6D6
36D6
36D6
36D6
36D6
36D6
36D6
37FE
3202
ENDCHAR
STARTCHAR 274c
ENCODING 10060
SWIDTH 362 0
DWIDTH 16 0
BBX 16 16 0 -2
BITMAP
1C60
1840
1FFF
30C0
3086
71FE
7184
B308
3318
371B
35FF
3118
3118
3118
3178
3118
ENDCHAR
STARTCHAR 274d
ENCODING 10061
SWIDTH 362 0
DWIDTH 16 0
BBX 16 16 0 -2
BITMAP
0D04
19FE
1986
1186
3186
3186
71FE
F000
B202
33FF
3302
3302
3302
3302
33FE
3302
ENDCHAR
STARTCHAR 274e
ENCODING 10062
SWIDTH 362 0
DWIDTH 16 0
BBX 16 16 0 -2
BITMAP
0C06
19FE
1906
1106
3106
3106
7106
F106
B000
31B3
3332
3266
366C
3336
31B3
3099
ENDCHAR
STARTCHAR 274f
ENCODING 10063
SWIDTH 362 0
DWIDTH 16 0
BBX 16 16 0 -2
BITMAP
0CC0
18C0
18FE
1186
310C
33CC
7678
F030
B060
30FF
3183
3382
3482
3082
30FE
3082
ENDCHAR
STARTCHAR 2750
ENCODING 10064
SWIDTH 362 0
DWIDTH 16 0
BBX 16 16 0 -2
BITMAP
0C60
1860
19FE
1106
3106
3106
71FE
D106
9106
1106
11FE
1106
1106
1106
11FE
1102
ENDCHAR
STARTCHAR 2751
ENCODING 10065
SWIDTH 362 0
DWIDTH 16 0
BBX 16 16 0 -2
BITMAP
0180
03C0
0670
0FFF
3007
CFF0
0060
0048
1FF8
0000
7FFE
0300
0630
18F8
3F8C
1804
ENDCHAR
STARTCHAR 2752
ENCODING 10066
SWIDTH 362 0
DWIDTH 16 0
BBX 16 16 0 -2
BITMAP
0300
0182
7FFF
0C30
1B18
330C
6626
0C10
1FF8
1E68
0660
0460
0C61
0C63
187F
703E
ENDCHAR
STARTCHAR 2753
ENCODING 10067
SWIDTH 362 0
DWIDTH 16 0
BBX 16 16 0 -2
BITMAP
0010
3FF8
0610
0C30
0DE0
1848
3FFC
3188
1188
1FF8
03D0
03D8
06CD
0CC3
18FF
707E
ENDCHAR
STARTCHAR 2754
ENCODING 10068
SWIDTH 362 0
DWIDTH 16 0
BBX 16 16 0 -2
BITMAP
0018
1FF8
1818
1FF8
1818
1818
1FF8
1818
1818
1818
0002
FFFF
0430
0C18
380E
6006
ENDCHAR
STARTCHAR 2755
ENCODING 10069
SWIDTH 362 0
DWIDTH 16 0
BBX 16 16 0 -2
BITMAP
1008
1FFC
100C
1FFC
100C
1FFC
0000
1FF8
1818
1FF8
1818
1FF8
1818
1018
3078
6030
ENDCHAR
STARTCHAR 2756
ENCODING 10070
SWIDTH 362 0
DWIDTH 16 0
BBX 16 16 0 -2
BITMAP
0110
C198
6198
2198
0FFE
1198
1198
3198
2198
6FFF
E000
C388
630C
6606
6403
0801
ENDCHAR
STARTCHAR 2757
ENCODING 10071
SWIDTH 362 0
DWIDTH 16 0
BBX 16 16 0 -2
BITMAP
0202
C7FF
6602
260A
0EFA
1602
169A
36DA
269A
669A
E6FA
C68A
6602
6602
660E
0606
ENDCHAR
STARTCHAR 2758
ENCODING 10072
SWIDTH 362 0
DWIDTH 16 0
BBX 16 16 0 -2
BITMAP
0040
C060
60F0
2090
0988
130E
160F
3FFE
2060
6060
E060
C3FC
6060
6060
6062
07FE
ENDCHAR
STARTCHAR 2759
ENCODING 10073
SWIDTH 362 0
DWIDTH 16 0
BBX 16 16 0 -2
BITMAP
1C00
1BFC
3060
3062
77FE
9060
106C
1000
0020
0FF0
0C20
0C20
0821
1821
303F
601F
ENDCHAR
STARTCHAR 275a
ENCODING 10074
SWIDTH 362 0
DWIDTH 16 0
BBX 16 16 0 -2
BITMAP
0010
0FF8
0060
00C0
4187
41FE
5D9E
55D6
55B6
55B6
55BE
55CE
47C6
4306
4006
4006
ENDCHAR
STARTCHAR 275b
ENCODING 10075
SWIDTH 362 0
DWIDTH 16 0
BBX 16 16 0 -2
BITMAP
0103
7F83
0032
6332
7F32
6332
6332
7F32
6332
6332
6332
7F32
0002
0F82
F81E
4006
ENDCHAR
STARTCHAR 275c
ENCODING 10076
SWIDTH 362 0
DWIDTH 16 0
BBX 16 16 0 -2
BITMAP
0003
7BC3
2112
211A
2112
2112
3112
FFD2
2112
2112
2112
6112
6102
4102
C11E
8106
ENDCHAR
STARTCHAR 275d
ENCODING 10077
SWIDTH 362 0
DWIDTH 16 0
BBX 16 16 0 -2
BITMAP
1000
19FE
1866
1C66
7E66
1966
18E6
FFE6
1066
3066
2476
665E
DEC7
E2CD
01BC
0318
ENDCHAR
STARTCHAR 275e
ENCODING 10078
SWIDTH 362 0
DWIDTH 16 0
BBX 16 16 0 -2
BITMAP
0203
7F03
131A
17D2
30D2
2092
6792
C312
8C12
0C92
7F92
3E12
3F02
6D82
CC9E
0C06
ENDCHAR
STARTCHAR 275f
ENCODING 10079
SWIDTH 362 0
DWIDTH 16 0
BBX 16 16 0 -2
BITMAP
0303
3303
0E1A
1B12
6192
CC12
0C12
7F92
0C12
3D92
2D12
2D12
6D02
4DC2
CCDE
8C06
ENDCHAR
STARTCHAR 2760
ENCODING 10080
SWIDTH 362 0
DWIDTH 16 0
BBX 16 16 0 -2
BITMAP
3030
1830
1830
FF30
0033
7633
6333
4733
E633
BC33
1C23
1C63
1663
3246
62DE
C18C
ENDCHAR
STARTCHAR 2761
ENCODING 10081
SWIDTH 362 0
DWIDTH 16 0
BBX 16 16 0 -2
BITMAP
0180
1198
0D90
05AC
3FFC
0300
0303
0630
0F18
1B0F
733F
C318
0618
0410
0DF0
3060
ENDCHAR
STARTCHAR 2762
ENCODING 10082
SWIDTH 362 0
DWIDTH 16 0
BBX 16 16 0 -2
BITMAP
1860
1860
7DFC
186C
3CEC
F8ED
18FF
7987
1300
0300
7FFC
0204
0604
0C0C
187C
6018
ENDCHAR
STARTCHAR 2763
ENCODING 10083
SWIDTH 362 0
DWIDTH 16 0
BBX 16 16 0 -2
BITMAP
1038
0C30
0620
244C
3FFC
218C
318C
318C
218C
3FFC
2180
0183
FFFF
0180
0180
0100
ENDCHAR
STARTCHAR 2764
ENCODING 10084
SWIDTH 362 0
DWIDTH 16 0
BBX 16 16 0 -2
BITMAP
0180
0182
01FF
0180
4184
7FFE
6006
6026
6FF6
6C26
6C26
6C26
6FE6
6006
7FFE
4004
ENDCHAR
STARTCHAR 2765
ENCODING 10085
SWIDTH 362 0
DWIDTH 16 0
BBX 16 16 0 -2
BITMAP
1822
187F
3F62
2362
5B62
0E62
1C62
3862
C962
1FE2
3362
5B7E
0E66
0C60
3860
6060
ENDCHAR
STARTCHAR 2766
ENCODING 10086
SWIDTH 362 0
DWIDTH 16 0
BBX 16 16 0 -2
BITMAP
0018
0038
00C0
3F8C
07F8
0DB8
399F
E386
0100
0000
1FF8
1818
187A
1814
1FFC
0FFC
ENDCHAR
STARTCHAR 2767
ENCODING 10087
SWIDTH 362 0
DWIDTH 16 0
BBX 16 16 0 -2
BITMAP
2002
3FFF
2040
2040
27FC
2040
2040
2FFE
2000
2040
2040
67FC
6040
4040
C042
9FFF
ENDCHAR
STARTCHAR 2768
ENCODING 10088
SWIDTH 362 0
DWIDTH 16 0
BBX 16 16 0 -2
BITMAP
2002
7FFF
6100
60C0
6042
6FFF
60C0
61C6
634C
6338
6630
6A30
5218
426E
8387
8302
ENDCHAR
STARTCHAR 2769
ENCODING 10089
SWIDTH 362 0
DWIDTH 16 0
BBX 16 16 0 -2
BITMAP
0700
0E18
180C
3F8C
1900
0186
7FFE
0240
0C3C
180F
EFE2
0000
1FF8
0000
0002
0000
ENDCHAR
STARTCHAR 276a
ENCODING 10090
SWIDTH 362 0
DWIDTH 16 0
BBX 16 16 0 -2
BITMAP
0300
0E18
380C
3F0C
1180
0182
7FFE
0240
0CF8
199F
EE66
38E0
079C
3C78
03C0
7C00
ENDCHAR
STARTCHAR 276b
ENCODING 10091
SWIDTH 362 0
DWIDTH 16 0
BBX 16 16 0 -2
BITMAP
0204
7F7E
2264
1E3C
0C1C
1F3E
3362
42C4
7F7E
4246
364C
1C28
1C38
363C
6267
C1C3
ENDCHAR
STARTCHAR 276c
ENCODING 10092
SWIDTH 362 0
DWIDTH 16 0
BBX 16 16 0 -2
BITMAP
0300
0180
0184
3FFC
1030
0C30
0C20
0443
FFFF
0010
1FF8
1018
1018
1018
1018
1010
ENDCHAR
STARTCHAR 276d
ENCODING 10093
SWIDTH 362 0
DWIDTH 16 0
BBX 16 16 0 -2
BITMAP
0040
0060
D820
DBFF
D804
D806
D804
D90C
D98C
D988
D888
D898
C098
0090
0003
0000
ENDCHAR
STARTCHAR 276e
ENCODING 10094
SWIDTH 362 0
DWIDTH 16 0
BBX 16 16 0 -2
BITMAP
0040
0020
D822
DFFF
D860
D840
D8CC
D998
D9B0
D8F0
D860
D8C0
C184
033E
03E2
0102
ENDCHAR
STARTCHAR 276f
ENCODING 10095
SWIDTH 362 0
DWIDTH 16 0
BBX 16 16 0 -2
BITMAP
0002
03FF
D980
D980
D98C
D98C
D984
D9C4
D9A4
D9BC
D93C
D90C
C10C
017D
03CF
0307
ENDCHAR
STARTCHAR 2770
ENCODING 10096
SWIDTH 362 0
DWIDTH 16 0
BBX 16 16 0 -2
BITMAP
0070
0060
D860
DB6C
DBFE
DB64
DB64
DB64
DB64
DFFF
D860
D840
C0CC
0186
0306
0602
ENDCHAR
STARTCHAR 2771
ENCODING 10097
SWIDTH 362 0
DWIDTH 16 0
BBX 16 16 0 -2
BITMAP
0070
0060
D9E0
DB6C
DBFC
DE60
DC60
D862
DFFF
D870
D8D0
D8D0
C188
030E
0607
0C02
ENDCHAR
STARTCHAR 2772
ENCODING 10098
SWIDTH 362 0
DWIDTH 16 0
BBX 16 16 0 -2
BITMAP
1038
1818
1818
1818
1FF8
1180
3198
318C
3188
3FF8
3188
3FF8
3189
0181
01FF
00FF
ENDCHAR
STARTCHAR 2773
ENCODING 10099
SWIDTH 362 0
DWIDTH 16 0
BBX 16 16 0 -2
BITMAP
00C0
0060
D800
D820
DBF0
D826
D9A6
DFB8
D9B0
D9B8
D928
DB2C
C227
0423
08E0
0060
ENDCHAR
STARTCHAR 2774
ENCODING 10100
SWIDTH 362 0
DWIDTH 16 0
BBX 16 16 0 -2
BITMAP
0004
00FE
D800
CC00
C800
CBFF
C830
C830
C9B4
C9B6
C932
CB33
CA33
0631
0030
0030
ENDCHAR
STARTCHAR 2775
ENCODING 10101
SWIDTH 362 0
DWIDTH 16 0
BBX 16 16 0 -2
BITMAP
007C
01EC
D96C
D96C
D96C
DFFF
D96C
D96C
D96C
D96C
D96C
D96C
F900
8100
0303
0100
ENDCHAR
STARTCHAR 2776
ENCODING 10102
SWIDTH 362 0
DWIDTH 16 0
BBX 16 16 0 -2
BITMAP
0204
3F7E
3264
3264
3E7C
2040
0006
7FFE
0400
0C08
0FFC
0008
0008
0018
01F8
0030
ENDCHAR
STARTCHAR 2777
ENCODING 10103
SWIDTH 362 0
DWIDTH 16 0
BBX 16 16 0 -2
BITMAP
0040
0060
D864
D87E
D860
D863
DFFF
D860
D870
D87C
D86C
D864
C060
0060
0060
0040
ENDCHAR
STARTCHAR 2778
ENCODING 10104
SWIDTH 362 0
DWIDTH 16 0
BBX 16 16 0 -2
BITMAP
0206
03FE
DB06
DB06
DB06
DB06
DB06
DBDE
D858
D8D8
D8D8
D898
C199
0119
031F
0C0F
ENDCHAR
STARTCHAR 2779
ENCODING 10105
SWIDTH 362 0
DWIDTH 16 0
BBX 16 16 0 -2
BITMAP
001C
00F8
D9A0
D820
D822
DBFF
D870
D870
D8F8
D8E8
D9AC
D927
C323
0620
0020
0020
ENDCHAR
STARTCHAR 277a
ENCODING 10106
SWIDTH 362 0
DWIDTH 16 0
BBX 16 16 0 -2
BITMAP
0030
0030
D860
CDFF
C983
C982
C982
C982
C982
C982
C982
C982
C182
0182
01FE
0102
ENDCHAR
STARTCHAR 277b
ENCODING 10107
SWIDTH 362 0
DWIDTH 16 0
BBX 16 16 0 -2
BITMAP
4006
7FFE
4016
5FF6
4186
4186
4186
4FF6
4186
41E6
41A6
41A6
419E
4006
7FFE
4002
ENDCHAR
STARTCHAR 277c
ENCODING 10108
SWIDTH 362 0
DWIDTH 16 0
BBX 16 16 0 -2
BITMAP
4006
7FFE
4026
5FF6
5836
5FF6
5986
5996
5FFE
58C6
586E
5F7E
5C3E
481E
7FFE
4002
ENDCHAR
STARTCHAR 277d
ENCODING 10109
SWIDTH 362 0
DWIDTH 16 0
BBX 16 16 0 -2
BITMAP
4006
7FFE
4006
4FFE
4186
4186
4D86
4D86
4DF6
4D86
4D86
4D86
4D9E
4006
7FFE
4002
ENDCHAR
STARTCHAR 277e
ENCODING 10110
SWIDTH 362 0
DWIDTH 16 0
BBX 16 16 0 -2
BITMAP
4006
7FFE
4816
5FFE
5996
5FF6
5996
5996
5FF6
4986
4186
4186
4186
4106
7FFE
4002
ENDCHAR
STARTCHAR 2821
ENCODING 10273
SWIDTH 362 0
DWIDTH 16 0
BBX 16 16 0 -2
BITMAP
4006
7FFE
4306
4306
4626
4C36
5FFE
581E
4026
4FF6
4C26
4C26
4C26
4C26
7FFE
4002
ENDCHAR
STARTCHAR 2822
ENCODING 10274
SWIDTH 362 0
DWIDTH 16 0
BBX 16 16 0 -2
BITMAP
4006
7FFE
4666
4466
4C66
487E
713E
4186
41A6
4186
4186
4186
5FFE
4006
7FFE
4002
ENDCHAR
STARTCHAR 2823
ENCODING 10275
SWIDTH 362 0
DWIDTH 16 0
BBX 16 16 0 -2
BITMAP
3000
31FC
318C
318C
318C
7D8C
31FC
318C
318C
318C
35FC
398C
E18C
418C
018F
0000
ENDCHAR
STARTCHAR 2824
ENCODING 10276
SWIDTH 362 0
DWIDTH 16 0
BBX 16 16 0 -2
BITMAP
3080
3180
3186
31B0
3330
7E30
3030
3033
33FF
3020
3468
384C
E0C6
4083
0103
0601
ENDCHAR
STARTCHAR 2825
ENCODING 10277
SWIDTH 362 0
DWIDTH 16 0
BBX 16 16 0 -2
BITMAP
0100
0198
1998
0990
4DB3
C003
C102
8180
0180
018C
3FFC
0180
0180
0180
0186
0000
ENDCHAR
STARTCHAR 2826
ENCODING 10278
SWIDTH 362 0
DWIDTH 16 0
BBX 16 16 0 -2
BITMAP
2000
33FF
2060
2040
2040
78C0
20C0
2086
21FE
2186
3B86
7286
C486
4086
00FE
0080
ENDCHAR
STARTCHAR 2827
ENCODING 10279
SWIDTH 362 0
DWIDTH 16 0
BBX 16 16 0 -2
BITMAP
2030
3030
2020
21FE
2126
7926
2336
2336
2126
2126
3BFF
7106
C106
4106
011E
010C
ENDCHAR
STARTCHAR 2828
ENCODING 10280
SWIDTH 362 0
DWIDTH 16 0
BBX 16 16 0 -2
BITMAP
2070
3060
2040
20C0
2084
7982
231F
23E3
2001
21FE
3986
7186
C186
4186
01FE
0104
ENDCHAR
STARTCHAR 2829
ENCODING 10281
SWIDTH 362 0
DWIDTH 16 0
BBX 16 16 0 -2
BITMAP
21C0
3180
2182
21FF
2302
7E02
25F2
2192
2192
2192
39F2
7112
C006
4006
003C
0008
ENDCHAR
STARTCHAR 282a
ENCODING 10282
SWIDTH 362 0
DWIDTH 16 0
BBX 16 16 0 -2
BITMAP
21C6
3184
2184
2104
230F
7B0C
2304
2764
2734
2334
2304
3B04
E304
4304
033C
0308
ENDCHAR
STARTCHAR 282b
ENCODING 10283
SWIDTH 362 0
DWIDTH 16 0
BBX 16 16 0 -2
BITMAP
0660
0460
0462
7C7E
0460
0461
0C63
7C7F
C03E
0180
0180
1FFC
0180
0180
0183
0000
ENDCHAR
STARTCHAR 282c
ENCODING 10284
SWIDTH 362 0
DWIDTH 16 0
BBX 16 16 0 -2
BITMAP
0100
0180
6D8C
6D8C
6598
659C
65B6
7DB2
45E0
0184
7FFE
0180
0180
0180
0182
FFFF
ENDCHAR
STARTCHAR 282d
ENCODING 10285
SWIDTH 362 0
DWIDTH 16 0
BBX 16 16 0 -2
BITMAP
0180
0182
7FFF
0180
018C
0000
4003
C003
801A
0000
0FF0
0C30
0C21
1821
303F
601F
ENDCHAR
STARTCHAR 282e
ENCODING 10286
SWIDTH 362 0
DWIDTH 16 0
BBX 16 16 0 -2
BITMAP
0180
0300
0306
0660
0C30
181C
300F
FFFA
1198
1198
1198
1FF8
1198
1198
1198
1018
ENDCHAR
STARTCHAR 282f
ENCODING 10287
SWIDTH 362 0
DWIDTH 16 0
BBX 16 16 0 -2
BITMAP
0180
0184
01FE
0180
1FFC
180C
1808
1808
1FF8
0180
0100
FFFF
0620
0C18
1806
7002
ENDCHAR
STARTCHAR 2830
ENCODING 10288
SWIDTH 362 0
DWIDTH 16 0
BBX 16 16 0 -2
BITMAP
2006
61FE
6020
6B26
FDA4
E8AC
68B8
6830
5833
D830
7020
3820
2C20
4420
8020
0020
ENDCHAR
STARTCHAR 2831
ENCODING 10289
SWIDTH 362 0
DWIDTH 16 0
BBX 16 16 0 -2
BITMAP
2000
61FF
6010
6830
FC30
E878
68FC
68F6
59B3
DB33
7230
3830
2C30
4430
8033
0000
ENDCHAR
STARTCHAR 2832
ENCODING 10290
SWIDTH 362 0
DWIDTH 16 0
BBX 16 16 0 -2
BITMAP
2060
6060
60C3
78F0
F8B0
F9B0
59FE
5BB6
53B6
D7B6
7DB6
31B6
79B6
41BE
8130
0030
ENDCHAR
STARTCHAR 2833
ENCODING 10291
SWIDTH 362 0
DWIDTH 16 0
BBX 16 16 0 -2
BITMAP
20C0
60C8
60CC
68C4
FFFF
E880
68C6
68E4
59AC
D9AC
71B8
3938
2F18
473C
8647
0582
ENDCHAR
STARTCHAR 2834
ENCODING 10292
SWIDTH 362 0
DWIDTH 16 0
BBX 16 16 0 -2
BITMAP
3002
31FF
3003
340B
FEFB
E403
24FB
64DB
6C9B
6C9B
78DB
1CD3
3C83
6403
C00F
0006
ENDCHAR
STARTCHAR 2835
ENCODING 10293
SWIDTH 362 0
DWIDTH 16 0
BBX 16 16 0 -2
BITMAP
2204
63FE
6306
6B06
FF06
EB34
6B20
6B22
5BFF
DB30
7310
3B18
2F18
47ED
8387
0303
ENDCHAR
STARTCHAR 2836
ENCODING 10294
SWIDTH 362 0
DWIDTH 16 0
BBX 16 16 0 -2
BITMAP
2000
6102
61FF
6932
FD32
E932
6932
6932
59FE
D932
7132
3932
2D32
4532
81FE
0100
ENDCHAR
STARTCHAR 2837
ENCODING 10295
SWIDTH 362 0
DWIDTH 16 0
BBX 16 16 0 -2
BITMAP
200C
607C
61C0
6840
FC60
E824
69FE
680C
580C
D818
7030
3860
2CC0
4580
87FF
023C
ENDCHAR
STARTCHAR 2838
ENCODING 10296
SWIDTH 362 0
DWIDTH 16 0
BBX 16 16 0 -2
BITMAP
30C0
30C0
3082
35FF
FFA0
E520
2622
643E
6C20
6C20
7822
1C3E
3C20
6420
C020
0020
ENDCHAR
STARTCHAR 2839
ENCODING 10297
SWIDTH 362 0
DWIDTH 16 0
BBX 16 16 0 -2
BITMAP
21C0
6180
6186
6903
FF02
EFF2
6D92
6992
5992
D9F2
7186
398E
2D81
4581
81FF
00FF
ENDCHAR
STARTCHAR 283a
ENCODING 10298
SWIDTH 362 0
DWIDTH 16 0
BBX 16 16 0 -2
BITMAP
20C0
60C0
6084
69FC
FD8C
EAD8
6C70
6870
58CC
DB87
7660
3830
2CD0
4460
8030
0018
ENDCHAR
STARTCHAR 283b
ENCODING 10299
SWIDTH 362 0
DWIDTH 16 0
BBX 16 16 0 -2
BITMAP
200C
601C
61E0
6980
FD80
E986
69FE
6998
4998
D998
F998
3198
3998
6D98
C7FF
0000
ENDCHAR
STARTCHAR 283c
ENCODING 10300
SWIDTH 362 0
DWIDTH 16 0
BBX 16 16 0 -2
BITMAP
0002
7DFF
1040
10C6
10FE
1406
F806
403C
061C
0630
FFFF
0C20
1C60
1FE0
0738
7C0C
ENDCHAR
STARTCHAR 283d
ENCODING 10301
SWIDTH 362 0
DWIDTH 16 0
BBX 16 16 0 -2
BITMAP
1800
1802
7F7F
1162
3162
3362
6F7E
C222
0600
0630
FFFF
0C20
1C60
1FE0
0738
7C0C
ENDCHAR
STARTCHAR 283e
ENCODING 10302
SWIDTH 362 0
DWIDTH 16 0
BBX 16 16 0 -2
BITMAP
2008
3FFC
3188
3188
3FF8
3188
3188
3008
0630
0630
FFFF
0C20
1C60
1FE0
0738
7C0C
ENDCHAR
STARTCHAR 283f
ENCODING 10303
SWIDTH 362 0
DWIDTH 16 0
BBX 16 16 0 -2
BITMAP
2060
6030
6033
6830
FC30
E9FE
69B6
69B6
59B6
D9B6
71B6
39B6
2DBE
4536
8030
0030
ENDCHAR
STARTCHAR 2840
ENCODING 10304
SWIDTH 362 0
DWIDTH 16 0
BBX 16 16 0 -2
BITMAP
2000
61FF
6006
6806
FD66
E936
6926
6926
5926
D9E6
7126
3806
2C06
4406
803E
000C
ENDCHAR
STARTCHAR 2841
ENCODING 10305
SWIDTH 362 0
DWIDTH 16 0
BBX 16 16 0 -2
BITMAP
2000
63FF
6060
6840
FC40
E8C0
68C0
6886
59FE
D986
7386
3A86
2C86
4486
80FE
0080
ENDCHAR
STARTCHAR 2842
ENCODING 10306
SWIDTH 362 0
DWIDTH 16 0
BBX 16 16 0 -2
BITMAP
2300
6300
6300
7B43
FFFF
FB7B
5B7B
5B7B
537B
D27B
727B
367B
7E7B
4C7B
8DDF
1888
ENDCHAR
STARTCHAR 2843
ENCODING 10307
SWIDTH 362 0
DWIDTH 16 0
BBX 16 16 0 -2
BITMAP
3000
31FE
3186
3586
FF86
E586
25FE
6580
6D82
6DFF
7982
1D82
3D82
6582
C1FE
0080
ENDCHAR
STARTCHAR 2844
ENCODING 10308
SWIDTH 362 0
DWIDTH 16 0
BBX 16 16 0 -2
BITMAP
200C
60CC
60DB
689B
FC83
E983
6B0E
6A04
5DFC
D818
7030
3BFF
2C20
4420
80E0
0060
ENDCHAR
STARTCHAR 2845
ENCODING 10309
SWIDTH 362 0
DWIDTH 16 0
BBX 16 16 0 -2
BITMAP
2030
6030
61F0
69B6
FDFE
EB30
6A30
6833
5BFF
D830
7038
3868
2CCC
448E
8107
0602
ENDCHAR
STARTCHAR 2846
ENCODING 10310
SWIDTH 362 0
DWIDTH 16 0
BBX 16 16 0 -2
BITMAP
2042
63FF
625A
7A5A
FA5A
FA5A
5A5A
5FFF
525A
D25A
725A
325A
7A5A
465A
86D2
04E6
ENDCHAR
STARTCHAR 2847
ENCODING 10311
SWIDTH 362 0
DWIDTH 16 0
BBX 16 16 0 -2
BITMAP
2070
6060
60F0
68D0
FD98
E90E
6B77
6E62
5860
D9E8
7366
3B62
2E62
4860
80E0
0060
ENDCHAR
STARTCHAR 2848
ENCODING 10312
SWIDTH 362 0
DWIDTH 16 0
BBX 16 16 0 -2
BITMAP
0006
0006
0036
0006
1FC6
1046
1FC6
000E
0030
0070
00C0
FFFF
0080
0080
0780
0180
ENDCHAR
STARTCHAR 2849
ENCODING 10313
SWIDTH 362 0
DWIDTH 16 0
BBX 16 16 0 -2
BITMAP
4206
7F7E
6204
7208
6A18
6A18
6318
C3FF
5218
5A18
CA18
C218
FF18
0618
1E78
0C30
ENDCHAR
STARTCHAR 284a
ENCODING 10314
SWIDTH 362 0
DWIDTH 16 0
BBX 16 16 0 -2
BITMAP
0300
4180
7FFF
C003
BE1C
0610
0630
3E30
3020
3660
3E60
06C4
06C6
05FE
3DC2
1800
ENDCHAR
STARTCHAR 284b
ENCODING 10315
SWIDTH 362 0
DWIDTH 16 0
BBX 16 16 0 -2
BITMAP
0300
4180
7FFF
C883
8CC4
0680
0880
0C80
0486
7FFE
01C0
0120
0330
061C
0C0F
7004
ENDCHAR
STARTCHAR 284c
ENCODING 10316
SWIDTH 362 0
DWIDTH 16 0
BBX 16 16 0 -2
BITMAP
0300
4183
7FFF
C202
8300
0180
3FFC
0180
0180
0180
1FF8
0180
0180
0180
0186
0000
ENDCHAR
STARTCHAR 284d
ENCODING 10317
SWIDTH 362 0
DWIDTH 16 0
BBX 16 16 0 -2
BITMAP
0300
4180
7FFF
C183
818C
1FF8
0180
1FFC
0180
0184
7FFE
03C0
0660
0C38
381F
6004
ENDCHAR
STARTCHAR 284e
ENCODING 10318
SWIDTH 362 0
DWIDTH 16 0
BBX 16 16 0 -2
BITMAP
0300
4180
7FFF
C003
800A
0180
0180
0180
0188
1FF8
01A0
01B0
0198
0190
7FFE
0000
ENDCHAR
STARTCHAR 284f
ENCODING 10319
SWIDTH 362 0
DWIDTH 16 0
BBX 16 16 0 -2
BITMAP
0300
4180
7FFF
C103
8184
0180
0186
7FFE
0180
0180
1198
1018
1018
1018
1FF8
1008
ENDCHAR
STARTCHAR 2850
ENCODING 10320
SWIDTH 362 0
DWIDTH 16 0
BBX 16 16 0 -2
BITMAP
010C
FF8C
C00C
C00C
D6FF
D30C
D20C
D20C
D26C
D22C
D22C
D20C
C00C
C00C
C1BC
C018
ENDCHAR
STARTCHAR 2851
ENCODING 10321
SWIDTH 362 0
DWIDTH 16 0
BBX 16 16 0 -2
BITMAP
0180
0180
0DB0
1998
318C
6186
0100
7FFE
6006
6FF6
6C36
6C26
6FE6
6826
601E
400C
ENDCHAR
STARTCHAR 2852
ENCODING 10322
SWIDTH 362 0
DWIDTH 16 0
BBX 16 16 0 -2
BITMAP
2004
7FFE
6006
6006
7FFE
6180
6088
6FFC
6010
6418
6230
6320
4160
C140
8046
0000
ENDCHAR
STARTCHAR 2853
ENCODING 10323
SWIDTH 362 0
DWIDTH 16 0
BBX 16 16 0 -2
BITMAP
400C
600C
6004
6004
7FFC
6180
6180
6180
7FB8
6180
6180
5FB8
4181
C181
81C3
80FF
ENDCHAR
STARTCHAR 2854
ENCODING 10324
SWIDTH 362 0
DWIDTH 16 0
BBX 16 16 0 -2
BITMAP
2006
6003
6002
7FFE
6002
64D8
6498
6498
7FFF
6498
6498
6498
64F0
4400
CC02
8400
ENDCHAR
STARTCHAR 2855
ENCODING 10325
SWIDTH 362 0
DWIDTH 16 0
BBX 16 16 0 -2
BITMAP
2006
6003
6002
7FFE
6002
6060
6060
6062
6FFF
6C62
6C62
6FFE
4C62
CC62
8FFE
8802
ENDCHAR
STARTCHAR 2856
ENCODING 10326
SWIDTH 362 0
DWIDTH 16 0
BBX 16 16 0 -2
BITMAP
3106
31FE
3186
3186
F586
B586
B5A0
B5E0
B5E0
B5FE
B560
B760
FF61
0261
067F
043F
ENDCHAR
STARTCHAR 2857
ENCODING 10327
SWIDTH 362 0
DWIDTH 16 0
BBX 16 16 0 -2
BITMAP
301C
31F0
3130
3130
F530
B5FF
B530
B510
B518
B518
B50C
B50D
FDC7
0183
0004
00FE
ENDCHAR
STARTCHAR 2858
ENCODING 10328
SWIDTH 362 0
DWIDTH 16 0
BBX 16 16 0 -2
BITMAP
0180
7186
6184
6184
7FFC
0F40
787E
6066
6766
6666
6E66
7E66
667E
0C6C
1860
3040
ENDCHAR
STARTCHAR 2859
ENCODING 10329
SWIDTH 362 0
DWIDTH 16 0
BBX 16 16 0 -2
BITMAP
0078
07E0
1980
0182
7FFE
03E0
07B8
0D8C
3186
C102
0180
318C
318C
218C
318C
200C
ENDCHAR
STARTCHAR 285a
ENCODING 10330
SWIDTH 362 0
DWIDTH 16 0
BBX 16 16 0 -2
BITMAP
3102
31FF
3180
3182
F5BE
B598
B598
B598
B5FF
B518
B518
B718
FF18
0318
0218
0018
ENDCHAR
STARTCHAR 285b
ENCODING 10331
SWIDTH 362 0
DWIDTH 16 0
BBX 16 16 0 -2
BITMAP
3000
33FF
3006
3006
F566
B536
B526
B526
B526
B5E6
B526
B406
FC06
0006
003E
000C
ENDCHAR
STARTCHAR 285c
ENCODING 10332
SWIDTH 362 0
DWIDTH 16 0
BBX 16 16 0 -2
BITMAP
2002
31FF
2062
A062
AC42
ACC2
AC9E
AD8C
AF00
ADFE
AD86
AD86
FD86
0186
01FE
0102
ENDCHAR
STARTCHAR 285d
ENCODING 10333
SWIDTH 362 0
DWIDTH 16 0
BBX 16 16 0 -2
BITMAP
20C0
30C0
2082
A1FF
AD60
AF60
AE62
AC7E
AC60
AC60
AC62
AC7E
FC60
0060
0060
0060
ENDCHAR
STARTCHAR 285e
ENCODING 10334
SWIDTH 362 0
DWIDTH 16 0
BBX 16 16 0 -2
BITMAP
3004
30BE
30E0
3080
F480
B480
B4FF
B488
B488
B488
B488
B488
FC88
0088
00CF
0000
ENDCHAR
STARTCHAR 285f
ENCODING 10335
SWIDTH 362 0
DWIDTH 16 0
BBX 16 16 0 -2
BITMAP
0180
7186
6184
7FFC
0180
0380
0660
0C30
1FFF
7006
8FF0
0030
0060
03C0
0180
0080
ENDCHAR
STARTCHAR 2860
ENCODING 10336
SWIDTH 362 0
DWIDTH 16 0
BBX 16 16 0 -2
BITMAP
0002
FF7F
1162
1162
3162
3362
6F62
4662
8062
7F60
4360
4360
4361
4361
7F7F
423F
ENDCHAR
STARTCHAR 2861
ENCODING 10337
SWIDTH 362 0
DWIDTH 16 0
BBX 16 16 0 -2
BITMAP
3030
3030
3020
FDFF
B420
B420
B422
B5FE
B470
B470
BCF8
B9AC
3127
3227
3420
3020
ENDCHAR
STARTCHAR 2862
ENCODING 10338
SWIDTH 362 0
DWIDTH 16 0
BBX 16 16 0 -2
BITMAP
0C68
184C
1844
37FF
7040
D060
9031
1019
118F
0187
7FFC
6184
618C
619C
0180
0100
ENDCHAR
STARTCHAR 2863
ENCODING 10339
SWIDTH 362 0
DWIDTH 16 0
BBX 16 16 0 -2
BITMAP
0C18
0C18
0830
1026
3E7E
1810
1810
1810
1812
7E7F
1810
1810
1810
1010
3010
6010
ENDCHAR
STARTCHAR 2864
ENCODING 10340
SWIDTH 362 0
DWIDTH 16 0
BBX 16 16 0 -2
BITMAP
0180
6083
7FFF
6410
67F8
6618
6618
67F8
6618
6618
6618
67F8
4618
4618
C61E
8000
ENDCHAR
STARTCHAR 2865
ENCODING 10341
SWIDTH 362 0
DWIDTH 16 0
BBX 16 16 0 -2
BITMAP
0180
6083
7FFF
6000
67FC
6444
6444
67FC
6444
67FC
6444
6040
4040
4040
C040
8040
ENDCHAR
STARTCHAR 2866
ENCODING 10342
SWIDTH 362 0
DWIDTH 16 0
BBX 16 16 0 -2
BITMAP
0080
60C3
7FFF
61A2
6FBF
6823
69A2
69A2
69A2
69A2
6FA2
6DAE
6126
4320
C620
8C20
ENDCHAR
STARTCHAR 2867
ENCODING 10343
SWIDTH 362 0
DWIDTH 16 0
BBX 16 16 0 -2
BITMAP
0180
6083
7FFF
6060
6040
6044
6FFE
6C46
6C46
6C46
6FFE
6C46
4C46
4C46
CFFE
8C04
ENDCHAR
STARTCHAR 2868
ENCODING 10344
SWIDTH 362 0
DWIDTH 16 0
BBX 16 16 0 -2
BITMAP
0180
6083
7FFF
6300
63F8
6718
6530
68A0
60E0
61F8
630F
6CE6
5020
4080
C060
8020
ENDCHAR
STARTCHAR 2869
ENCODING 10345
SWIDTH 362 0
DWIDTH 16 0
BBX 16 16 0 -2
BITMAP
0030
1030
7820
1826
33FE
3326
7B26
6F26
0BFE
5B26
5B26
3326
33FE
3800
6FFF
C3FC
ENDCHAR
STARTCHAR 286a
ENCODING 10346
SWIDTH 362 0
DWIDTH 16 0
BBX 16 16 0 -2
BITMAP
0000
1002
7BFF
1B02
335A
335A
7B5A
6F5A
0B5A
5B7A
5B5A
3342
330E
3A02
6FFF
C3FC
ENDCHAR
STARTCHAR 286b
ENCODING 10347
SWIDTH 362 0
DWIDTH 16 0
BBX 16 16 0 -2
BITMAP
0030
1030
7866
19FE
3186
3186
7986
6DFE
0986
5986
5986
3186
31FE
3800
6FFF
C3FC
ENDCHAR
STARTCHAR 286c
ENCODING 10348
SWIDTH 362 0
DWIDTH 16 0
BBX 16 16 0 -2
BITMAP
6C34
6C24
6C24
6E24
FE7E
6C24
6C24
6C24
6E3F
6C3C
6C24
6C24
6C64
4C64
CCC4
8C84
ENDCHAR
STARTCHAR 286d
ENCODING 10349
SWIDTH 362 0
DWIDTH 16 0
BBX 16 16 0 -2
BITMAP
0180
0180
3FFC
0180
0186
0700
0C30
3FFC
3F0C
1630
0432
7FFF
0C30
0830
1030
6030
ENDCHAR
STARTCHAR 286e
ENCODING 10350
SWIDTH 362 0
DWIDTH 16 0
BBX 16 16 0 -2
BITMAP
0802
FDFF
0980
0980
4980
49FE
C186
CD86
FD86
0D86
0DFE
0D80
0D80
0D80
7983
3000
ENDCHAR
STARTCHAR 286f
ENCODING 10351
SWIDTH 362 0
DWIDTH 16 0
BBX 16 16 0 -2
BITMAP
19C0
7980
1982
19FF
5B30
7B30
41B0
C1BE
FFF6
19B6
19B4
19B4
19B1
1181
F1FF
60FF
ENDCHAR
STARTCHAR 2870
ENCODING 10352
SWIDTH 362 0
DWIDTH 16 0
BBX 16 16 0 -2
BITMAP
18C0
78C0
1980
19FF
5B30
7A30
4030
C1B0
F9B4
19B6
1B33
1A33
1C30
1030
F0F0
6060
ENDCHAR
STARTCHAR 2871
ENCODING 10353
SWIDTH 362 0
DWIDTH 16 0
BBX 16 16 0 -2
BITMAP
0018
0018
0018
0FF8
0018
7FFF
0180
118C
0D98
05A0
0180
0DB8
798E
6186
0780
0300
ENDCHAR
STARTCHAR 2872
ENCODING 10354
SWIDTH 362 0
DWIDTH 16 0
BBX 16 16 0 -2
BITMAP
1002
1806
300C
3018
2230
6106
DF86
F08C
0018
7F30
4343
4306
430C
4318
7F30
4260
ENDCHAR
STARTCHAR 2873
ENCODING 10355
SWIDTH 362 0
DWIDTH 16 0
BBX 16 16 0 -2
BITMAP
3702
3606
260C
2618
7FB0
3602
2E06
2E0C
3798
3630
2643
2606
660C
4618
C630
86C0
ENDCHAR
STARTCHAR 2874
ENCODING 10356
SWIDTH 362 0
DWIDTH 16 0
BBX 16 16 0 -2
BITMAP
1C30
1830
3030
2030
4D36
1933
1132
3132
7132
F1FE
B132
3132
3132
3132
31FE
3102
ENDCHAR
STARTCHAR 2875
ENCODING 10357
SWIDTH 362 0
DWIDTH 16 0
BBX 16 16 0 -2
BITMAP
1804
19FE
310C
2098
58F8
1870
3078
60CF
63B7
A630
2024
21FE
2020
2020
2022
27FF
ENDCHAR
STARTCHAR 2876
ENCODING 10358
SWIDTH 362 0
DWIDTH 16 0
BBX 16 16 0 -2
BITMAP
1830
19B0
3120
2320
5B36
1B30
3620
6420
6020
A1FE
2020
2020
2020
2020
2022
27FF
ENDCHAR
STARTCHAR 2877
ENCODING 10359
SWIDTH 362 0
DWIDTH 16 0
BBX 16 16 0 -2
BITMAP
3040
3060
2022
37FF
3860
B840
A0CC
A198
21B0
20F0
2060
20C0
2184
233E
23E2
2102
ENDCHAR
STARTCHAR 2878
ENCODING 10360
SWIDTH 362 0
DWIDTH 16 0
BBX 16 16 0 -2
BITMAP
3002
33FF
2100
3100
3900
B9FE
A106
A106
2106
2106
21FE
2100
2100
2100
2303
2000
ENDCHAR
STARTCHAR 2879
ENCODING 10361
SWIDTH 362 0
DWIDTH 16 0
BBX 16 16 0 -2
BITMAP
318C
318C
218C
318F
3FFF
B98C
A18C
A18C
218C
21FC
218C
218C
218C
218C
218C
218C
ENDCHAR
STARTCHAR 287a
ENCODING 10362
SWIDTH 362 0
DWIDTH 16 0
BBX 16 16 0 -2
BITMAP
3030
3030
2020
33FF
3A23
BA26
A220
A3FE
228E
228C
2258
2278
2678
24FC
2DCF
2B02
ENDCHAR
STARTCHAR 287b
ENCODING 10363
SWIDTH 362 0
DWIDTH 16 0
BBX 16 16 0 -2
BITMAP
0004
3FFC
0180
0100
FFFF
0340
0660
0C38
181F
7186
8CC0
0C40
6816
4C13
CFF1
87F0
ENDCHAR
STARTCHAR 287c
ENCODING 10364
SWIDTH 362 0
DWIDTH 16 0
BBX 16 16 0 -2
BITMAP
200C
3180
2180
6180
7FFE
0360
0641
0C43
387F
E1FE
0CC0
2CC4
680A
CC13
CFF1
07F0
ENDCHAR
STARTCHAR 287d
ENCODING 10365
SWIDTH 362 0
DWIDTH 16 0
BBX 16 16 0 -2
BITMAP
0060
0C30
0C60
0FF8
0A18
0930
19E0
10E0
33BC
6E0F
1902
0DC0
48D6
4C13
CFF1
87F0
ENDCHAR
STARTCHAR 287e
ENCODING 10366
SWIDTH 362 0
DWIDTH 16 0
BBX 16 16 0 -2
BITMAP
00C0
0660
0C30
199C
330F
6204
0418
0FF8
0E08
0000
0980
4CC4
4802
CC1B
CFF1
07F0
ENDCHAR
STARTCHAR 2921
ENCODING 10529
SWIDTH 362 0
DWIDTH 16 0
BBX 16 16 0 -2
BITMAP
3030
3030
2020
31FE
3820
B820
A022
A3FF
2070
2070
20F8
21AC
2127
2227
2420
2020
ENDCHAR
STARTCHAR 2922
ENCODING 10530
SWIDTH 362 0
DWIDTH 16 0
BBX 16 16 0 -2
BITMAP
306C
31EC
216C
316C
396C
B96F
A3FF
A16C
216C
216C
216C
216C
2100
2100
2306
2100
ENDCHAR
STARTCHAR 2923
ENCODING 10531
SWIDTH 362 0
DWIDTH 16 0
BBX 16 16 0 -2
BITMAP
3070
3060
2060
3062
3BFE
B860
A0F0
A0F8
21E8
236C
2267
246F
21FC
2060
2060
2060
ENDCHAR
STARTCHAR 2924
ENCODING 10532
SWIDTH 362 0
DWIDTH 16 0
BBX 16 16 0 -2
BITMAP
3060
3060
2060
3043
3FFF
B8C0
A080
A180
218E
2386
2786
2586
2186
2186
21FE
2184
ENDCHAR
STARTCHAR 2925
ENCODING 10533
SWIDTH 362 0
DWIDTH 16 0
BBX 16 16 0 -2
BITMAP
3030
3030
3020
31FE
7820
3020
3022
33FF
7870
F070
30F8
31AC
3127
3227
7420
2020
ENDCHAR
STARTCHAR 2926
ENCODING 10534
SWIDTH 362 0
DWIDTH 16 0
BBX 16 16 0 -2
BITMAP
3000
33FF
3006
3006
7966
3136
3126
3926
7126
F1E6
3126
3006
3006
3006
703E
200C
ENDCHAR
STARTCHAR 2927
ENCODING 10535
SWIDTH 362 0
DWIDTH 16 0
BBX 16 16 0 -2
BITMAP
3030
3030
3066
30E0
78C0
30CC
3186
3BFF
73DB
F058
30D8
30D8
3099
3199
731F
260F
ENDCHAR
STARTCHAR 2928
ENCODING 10536
SWIDTH 362 0
DWIDTH 16 0
BBX 16 16 0 -2
BITMAP
3000
31FF
3010
3030
7830
3078
30FC
38F6
71B3
F333
3230
3030
3030
3030
7033
2000
ENDCHAR
STARTCHAR 2929
ENCODING 10537
SWIDTH 362 0
DWIDTH 16 0
BBX 16 16 0 -2
BITMAP
3040
3060
3064
307E
7860
3063
33FF
3860
7070
F06C
3064
3064
3060
3060
7060
2040
ENDCHAR
STARTCHAR 292a
ENCODING 10538
SWIDTH 362 0
DWIDTH 16 0
BBX 16 16 0 -2
BITMAP
3000
31FE
3186
3186
7986
3186
3186
39FE
7104
F080
30C8
3184
3186
3303
7203
2401
ENDCHAR
STARTCHAR 292b
ENCODING 10539
SWIDTH 362 0
DWIDTH 16 0
BBX 16 16 0 -2
BITMAP
3002
37FF
3180
3180
7998
318C
3188
39C8
71E8
F1B8
3118
3118
3118
3139
73DF
230F
ENDCHAR
STARTCHAR 292c
ENCODING 10540
SWIDTH 362 0
DWIDTH 16 0
BBX 16 16 0 -2
BITMAP
30C0
3793
26DF
26D3
7ED3
26D3
26D3
36D3
76D3
E7D3
27D3
2697
2196
2110
E310
6610
ENDCHAR
STARTCHAR 292d
ENCODING 10541
SWIDTH 362 0
DWIDTH 16 0
BBX 16 16 0 -2
BITMAP
300C
303C
33F0
3370
7B78
3378
3378
3B68
7368
F34C
33CC
32C4
3296
37BE
75CB
2901
ENDCHAR
STARTCHAR 292e
ENCODING 10542
SWIDTH 362 0
DWIDTH 16 0
BBX 16 16 0 -2
BITMAP
3060
3030
3133
3303
7A02
30C0
30C0
3884
708E
F0F8
30C0
3080
3081
3083
70FF
207E
ENDCHAR
STARTCHAR 292f
ENCODING 10543
SWIDTH 362 0
DWIDTH 16 0
BBX 16 16 0 -2
BITMAP
3030
331B
33FF
3300
7B30
3330
3330
3B20
7320
F360
3344
32C6
3282
37FF
75E3
2080
ENDCHAR
STARTCHAR 2930
ENCODING 10544
SWIDTH 362 0
DWIDTH 16 0
BBX 16 16 0 -2
BITMAP
1802
11FF
1020
1020
7DFE
1020
1020
1DFE
7020
F020
5032
1030
1020
1020
7020
3020
ENDCHAR
STARTCHAR 2931
ENCODING 10545
SWIDTH 362 0
DWIDTH 16 0
BBX 16 16 0 -2
BITMAP
3002
33FF
3020
3020
7B36
3333
3232
3A7A
724E
F2CE
3386
3302
3202
3202
721E
2206
ENDCHAR
STARTCHAR 2932
ENCODING 10546
SWIDTH 362 0
DWIDTH 16 0
BBX 16 16 0 -2
BITMAP
3300
3300
2300
2343
77FF
237B
237B
337B
737B
E27B
227B
267B
267B
247B
EDDF
7888
ENDCHAR
STARTCHAR 2933
ENCODING 10547
SWIDTH 362 0
DWIDTH 16 0
BBX 16 16 0 -2
BITMAP
3000
31FC
3104
3104
7904
3104
31FC
3904
7104
F104
3104
31FC
3100
3000
77FF
2000
ENDCHAR
STARTCHAR 2934
ENCODING 10548
SWIDTH 362 0
DWIDTH 16 0
BBX 16 16 0 -2
BITMAP
3204
33FE
3206
3206
7A06
3206
3306
3BF4
70D0
F0D0
3090
3190
3111
3311
761F
2C1F
ENDCHAR
STARTCHAR 2935
ENCODING 10549
SWIDTH 362 0
DWIDTH 16 0
BBX 16 16 0 -2
BITMAP
3004
3006
3304
3304
7A04
3204
3244
3A6C
722C
F26C
3388
331C
361E
3633
7063
21C1
ENDCHAR
STARTCHAR 2936
ENCODING 10550
SWIDTH 362 0
DWIDTH 16 0
BBX 16 16 0 -2
BITMAP
3300
3300
2316
2BD6
7AD6
26D6
26D6
3496
7F96
EBB6
21A7
21A0
23C0
2260
E43F
680E
ENDCHAR
STARTCHAR 2937
ENCODING 10551
SWIDTH 362 0
DWIDTH 16 0
BBX 16 16 0 -2
BITMAP
300C
317E
31C0
3180
7980
3180
31FF
3988
7188
F188
3188
3188
3188
3188
718F
2000
ENDCHAR
STARTCHAR 2938
ENCODING 10552
SWIDTH 362 0
DWIDTH 16 0
BBX 16 16 0 -2
BITMAP
301E
33F0
3306
3303
7B02
33FE
3300
3BFC
730C
F318
3230
3660
36C1
3481
75FF
20FF
ENDCHAR
STARTCHAR 2939
ENCODING 10553
SWIDTH 362 0
DWIDTH 16 0
BBX 16 16 0 -2
BITMAP
0100
7FFE
0830
0660
03C0
07F0
1C1F
780E
8C30
0FF0
0830
0830
0FF0
1830
1830
3030
ENDCHAR
STARTCHAR 293a
ENCODING 10554
SWIDTH 362 0
DWIDTH 16 0
BBX 16 16 0 -2
BITMAP
000C
04CC
7C68
0028
0008
0288
FEC8
6868
6828
680F
69F8
6808
4B08
CE08
8C08
8008
ENDCHAR
STARTCHAR 293b
ENCODING 10555
SWIDTH 362 0
DWIDTH 16 0
BBX 16 16 0 -2
BITMAP
0606
7C7C
6060
6060
6060
7F7F
6C6C
6C6C
6C6C
6C6C
6C4C
6C4C
4CCC
4C8C
8D8C
8D0C
ENDCHAR
STARTCHAR 293c
ENCODING 10556
SWIDTH 362 0
DWIDTH 16 0
BBX 16 16 0 -2
BITMAP
2030
3030
3078
FE4C
20C6
2187
3DCB
2CCC
6CC8
6CC8
6CC8
4CC8
4C88
CC88
B988
9B08
ENDCHAR
STARTCHAR 293d
ENCODING 10557
SWIDTH 362 0
DWIDTH 16 0
BBX 16 16 0 -2
BITMAP
0030
0030
FC20
CC24
CDFE
CC20
CC20
FC22
CFFE
CC70
CC70
CCD8
FCCC
818E
0307
0602
ENDCHAR
STARTCHAR 293e
ENCODING 10558
SWIDTH 362 0
DWIDTH 16 0
BBX 16 16 0 -2
BITMAP
00C0
00C0
FD82
CDFE
CD30
CF30
CE30
FC30
CC33
CC30
CC30
CC30
FC30
8030
0030
0030
ENDCHAR
STARTCHAR 293f
ENCODING 10559
SWIDTH 362 0
DWIDTH 16 0
BBX 16 16 0 -2
BITMAP
0006
7FFE
0180
0360
071C
1D0E
6100
0100
1318
1018
1018
1FF8
1018
1018
1FF8
1008
ENDCHAR
STARTCHAR 2940
ENCODING 10560
SWIDTH 362 0
DWIDTH 16 0
BBX 16 16 0 -2
BITMAP
0818
1FF8
1818
1FF8
1818
1818
1FF8
0100
0180
7FFF
0000
0410
0C0C
1806
3006
6002
ENDCHAR
STARTCHAR 2941
ENCODING 10561
SWIDTH 362 0
DWIDTH 16 0
BBX 16 16 0 -2
BITMAP
1818
180C
1808
1FF8
1808
1FF8
1188
0083
FFFF
0600
07FC
060C
0C0C
080C
3078
6038
ENDCHAR
STARTCHAR 2942
ENCODING 10562
SWIDTH 362 0
DWIDTH 16 0
BBX 16 16 0 -2
BITMAP
0030
0030
F833
D830
D820
DBFE
DB26
FB26
DB26
DB26
DB26
DB26
FB3E
832C
0020
0020
ENDCHAR
STARTCHAR 2943
ENCODING 10563
SWIDTH 362 0
DWIDTH 16 0
BBX 16 16 0 -2
BITMAP
0180
0186
7FFE
3188
3188
3FF8
0189
01FF
00FF
0008
1FF8
1018
1FF8
1018
1018
1018
ENDCHAR
STARTCHAR 2944
ENCODING 10564
SWIDTH 362 0
DWIDTH 16 0
BBX 16 16 0 -2
BITMAP
08C0
7CC0
6C82
6DFE
6D30
7F30
6E30
6C33
6FFF
7C30
6C30
6C30
4C30
CC30
BC30
9830
ENDCHAR
STARTCHAR 2945
ENCODING 10565
SWIDTH 362 0
DWIDTH 16 0
BBX 16 16 0 -2
BITMAP
0810
7CD8
6CC8
6CCC
6C8C
7D86
6D07
6FFF
6C64
7C64
6C44
6CC4
4CCC
CD8C
BD38
9A18
ENDCHAR
STARTCHAR 2946
ENCODING 10566
SWIDTH 362 0
DWIDTH 16 0
BBX 16 16 0 -2
BITMAP
3060
3040
2040
7BFC
204C
604C
704C
784C
EFFF
A0C0
20D8
208C
2186
2306
2602
3C02
ENDCHAR
STARTCHAR 2947
ENCODING 10567
SWIDTH 362 0
DWIDTH 16 0
BBX 16 16 0 -2
BITMAP
3030
3030
3030
7C30
3030
31B0
79B2
7DBF
71B0
F1B0
B1B0
31B0
31B0
31B0
31B3
3000
ENDCHAR
STARTCHAR 2948
ENCODING 10568
SWIDTH 362 0
DWIDTH 16 0
BBX 16 16 0 -2
BITMAP
301C
33F0
2060
7860
2060
6063
77FF
7860
E8E0
A0F0
2090
2198
211C
230E
2607
3C02
ENDCHAR
STARTCHAR 2949
ENCODING 10569
SWIDTH 362 0
DWIDTH 16 0
BBX 16 16 0 -2
BITMAP
1882
10FF
1082
FE82
3082
30FE
3882
7482
7682
50FE
D082
9182
1182
1102
130E
1206
ENDCHAR
STARTCHAR 294a
ENCODING 10570
SWIDTH 362 0
DWIDTH 16 0
BBX 16 16 0 -2
BITMAP
3040
32C2
333F
7E33
3232
3232
7A32
7A32
7A32
F232
B232
33B2
333E
3334
3030
3030
ENDCHAR
STARTCHAR 294b
ENCODING 10571
SWIDTH 362 0
DWIDTH 16 0
BBX 16 16 0 -2
BITMAP
3060
30C0
20C0
7980
210C
6306
77FE
7F92
E890
A090
2090
2190
2111
2311
261F
3C1F
ENDCHAR
STARTCHAR 294c
ENCODING 10572
SWIDTH 362 0
DWIDTH 16 0
BBX 16 16 0 -2
BITMAP
01C0
0183
FFFF
3FFC
3184
3184
33DC
27F8
199C
7187
8300
01C0
0060
0300
01C0
0060
ENDCHAR
STARTCHAR 294d
ENCODING 10573
SWIDTH 362 0
DWIDTH 16 0
BBX 16 16 0 -2
BITMAP
3020
3030
3024
FC7E
31E0
3020
7824
7DFE
7020
F020
B033
B030
3020
3020
3020
3020
ENDCHAR
STARTCHAR 294e
ENCODING 10574
SWIDTH 362 0
DWIDTH 16 0
BBX 16 16 0 -2
BITMAP
3002
33FF
3302
7F06
3346
332C
7B3C
7F18
733C
F334
B366
33C2
3380
3300
33FF
3000
ENDCHAR
STARTCHAR 294f
ENCODING 10575
SWIDTH 362 0
DWIDTH 16 0
BBX 16 16 0 -2
BITMAP
3104
31FE
3186
FD86
3186
33FE
7986
7D86
7186
F3FF
B186
3186
3186
3186
319E
310C
ENDCHAR
STARTCHAR 2950
ENCODING 10576
SWIDTH 362 0
DWIDTH 16 0
BBX 16 16 0 -2
BITMAP
1887
1186
1186
7D86
3186
31FE
3980
7D80
7586
D183
9182
1182
1102
1302
1202
1602
ENDCHAR
STARTCHAR 2951
ENCODING 10577
SWIDTH 362 0
DWIDTH 16 0
BBX 16 16 0 -2
BITMAP
3030
3034
303E
7DF0
3130
3130
7930
7FFF
7033
F073
B0F3
B0F3
31BF
3332
3630
3030
ENDCHAR
STARTCHAR 2952
ENCODING 10578
SWIDTH 362 0
DWIDTH 16 0
BBX 16 16 0 -2
BITMAP
04C0
0E60
1C38
3B1F
6307
C620
0C38
1F98
0900
0180
0183
0180
0DB0
199C
3186
4102
ENDCHAR
STARTCHAR 2953
ENCODING 10579
SWIDTH 362 0
DWIDTH 16 0
BBX 16 16 0 -2
BITMAP
1860
3060
3860
2442
66FF
42D2
CD90
8110
0038
7E38
0628
046C
0C64
0CC6
0983
1301
ENDCHAR
STARTCHAR 2954
ENCODING 10580
SWIDTH 362 0
DWIDTH 16 0
BBX 16 16 0 -2
BITMAP
0170
FF60
4260
4362
727F
565A
4CDE
4C9C
4C18
4E18
5B3C
7334
4024
7E66
7F43
0181
ENDCHAR
STARTCHAR 2955
ENCODING 10581
SWIDTH 362 0
DWIDTH 16 0
BBX 16 16 0 -2
BITMAP
01C0
0180
1D80
19FE
1980
1980
1982
FFFF
1180
1980
19FC
3180
3980
6D80
47FF
81FE
ENDCHAR
STARTCHAR 2956
ENCODING 10582
SWIDTH 362 0
DWIDTH 16 0
BBX 16 16 0 -2
BITMAP
01C0
0180
1D80
19FE
1980
1980
1982
FFFF
0D80
0D98
198E
319E
61F0
01C0
0F00
7800
ENDCHAR
STARTCHAR 2957
ENCODING 10583
SWIDTH 362 0
DWIDTH 16 0
BBX 16 16 0 -2
BITMAP
0082
7FFF
30C2
34C2
3EC2
66FE
64C2
6CC2
FCC2
98FE
18C2
30C2
3082
6182
830E
0206
ENDCHAR
STARTCHAR 2958
ENCODING 10584
SWIDTH 362 0
DWIDTH 16 0
BBX 16 16 0 -2
BITMAP
0088
7EFC
30C8
34C8
3ECC
668F
6506
6DFC
FC8C
98CC
1858
3070
3078
60DC
818F
0702
ENDCHAR
STARTCHAR 2959
ENCODING 10585
SWIDTH 362 0
DWIDTH 16 0
BBX 16 16 0 -2
BITMAP
0108
FF7C
406C
436C
726C
564F
4EC7
4CFC
4C4C
4E2C
5B28
7338
4038
7E2E
7F47
0182
ENDCHAR
STARTCHAR 295a
ENCODING 10586
SWIDTH 362 0
DWIDTH 16 0
BBX 16 16 0 -2
BITMAP
0610
7ED0
66D0
76D0
7ED6
6FF3
66D2
C6D6
46D6
56D4
DED4
C6D0
FFD1
06C1
1CFF
087F
ENDCHAR
STARTCHAR 295b
ENCODING 10587
SWIDTH 362 0
DWIDTH 16 0
BBX 16 16 0 -2
BITMAP
040C
1E1C
70F0
3020
3020
3424
7EFE
3020
3020
FEFF
3020
3020
30A1
3121
3F3F
1F1F
ENDCHAR
STARTCHAR 295c
ENCODING 10588
SWIDTH 362 0
DWIDTH 16 0
BBX 16 16 0 -2
BITMAP
3000
3FFE
2000
7FFC
4000
FFF8
8218
0618
26F8
6678
6668
7FED
664D
0607
0607
0203
ENDCHAR
STARTCHAR 295d
ENCODING 10589
SWIDTH 362 0
DWIDTH 16 0
BBX 16 16 0 -2
BITMAP
3000
3FFE
2000
7FFC
4000
FFF8
8018
3058
3FF8
3078
3068
306D
306D
3FE7
3047
0003
ENDCHAR
STARTCHAR 295e
ENCODING 10590
SWIDTH 362 0
DWIDTH 16 0
BBX 16 16 0 -2
BITMAP
4060
2060
00C3
00F0
88B0
D1B0
51FE
13B6
33B6
27B6
6DB6
E1B6
61B6
61BE
6130
2030
ENDCHAR
STARTCHAR 295f
ENCODING 10591
SWIDTH 362 0
DWIDTH 16 0
BBX 16 16 0 -2
BITMAP
2102
31FF
1132
0132
8932
49FE
7932
1132
3132
31FE
6132
E030
6030
6030
6030
2030
ENDCHAR
STARTCHAR 2960
ENCODING 10592
SWIDTH 362 0
DWIDTH 16 0
BBX 16 16 0 -2
BITMAP
2030
3030
1020
03FE
8B26
4B26
7B26
1326
33FE
3222
6260
E1E0
60E0
60B8
630F
2607
ENDCHAR
STARTCHAR 2961
ENCODING 10593
SWIDTH 362 0
DWIDTH 16 0
BBX 16 16 0 -2
BITMAP
2008
307C
1180
0100
8900
4900
79FE
1118
3118
3118
6118
E118
6118
6118
631B
2000
ENDCHAR
STARTCHAR 2962
ENCODING 10594
SWIDTH 362 0
DWIDTH 16 0
BBX 16 16 0 -2
BITMAP
2030
3060
10C4
0186
8BFF
4B03
788C
118C
318C
37FF
618C
E18C
618C
630C
630C
260C
ENDCHAR
STARTCHAR 2963
ENCODING 10595
SWIDTH 362 0
DWIDTH 16 0
BBX 16 16 0 -2
BITMAP
0004
3FFC
0180
0103
FFFF
0240
0430
199F
7186
0D98
7FF0
0DE0
0DB0
199F
678F
C300
ENDCHAR
STARTCHAR 2964
ENCODING 10596
SWIDTH 362 0
DWIDTH 16 0
BBX 16 16 0 -2
BITMAP
0430
0432
3FFE
0430
0C33
0C30
0830
1930
61B0
018C
3D9C
0DF0
19B8
319F
E786
0300
ENDCHAR
STARTCHAR 2965
ENCODING 10597
SWIDTH 362 0
DWIDTH 16 0
BBX 16 16 0 -2
BITMAP
2000
33FF
1030
0030
8830
4830
79B0
113E
3130
3130
6130
E130
6130
6130
6333
2000
ENDCHAR
STARTCHAR 2966
ENCODING 10598
SWIDTH 362 0
DWIDTH 16 0
BBX 16 16 0 -2
BITMAP
2070
3060
1062
00D0
88D8
488C
790E
1267
3460
30C0
60C8
E18C
6106
63FE
6302
2000
ENDCHAR
STARTCHAR 2967
ENCODING 10599
SWIDTH 362 0
DWIDTH 16 0
BBX 16 16 0 -2
BITMAP
2000
31FF
1103
0102
8902
49FE
7902
1102
3102
3102
61FE
E102
6102
6102
61FE
2000
ENDCHAR
STARTCHAR 2968
ENCODING 10600
SWIDTH 362 0
DWIDTH 16 0
BBX 16 16 0 -2
BITMAP
2000
3204
13FE
02D6
8AD6
4AD6
7AD6
12D6
32D6
32D6
62D6
E2D6
62D6
62D6
67FF
2000
ENDCHAR
STARTCHAR 2969
ENCODING 10601
SWIDTH 362 0
DWIDTH 16 0
BBX 16 16 0 -2
BITMAP
200C
330C
130C
030C
8B0C
4B0C
7B4C
136C
332C
336C
63AC
E70C
661A
6033
6061
20C1
ENDCHAR
STARTCHAR 296a
ENCODING 10602
SWIDTH 362 0
DWIDTH 16 0
BBX 16 16 0 -2
BITMAP
201E
31F8
13A0
0026
8924
49AC
78A8
1023
37FF
3020
6020
E020
6020
6020
61E0
2060
ENDCHAR
STARTCHAR 296b
ENCODING 10603
SWIDTH 362 0
DWIDTH 16 0
BBX 16 16 0 -2
BITMAP
21C0
3180
1182
01FF
8B30
4B30
79B0
11BE
33F6
31B6
61B4
E1B4
61B1
6181
61FF
20FF
ENDCHAR
STARTCHAR 296c
ENCODING 10604
SWIDTH 362 0
DWIDTH 16 0
BBX 16 16 0 -2
BITMAP
2180
3180
1102
03FF
8A60
4E60
7C62
107E
3060
3060
6062
E07E
6060
6060
6060
2040
ENDCHAR
STARTCHAR 296d
ENCODING 10605
SWIDTH 362 0
DWIDTH 16 0
BBX 16 16 0 -2
BITMAP
20C0
30C0
1088
01FC
898C
4BD8
7E70
1070
30D8
318F
6767
EC30
6010
6060
6030
2010
ENDCHAR
STARTCHAR 296e
ENCODING 10606
SWIDTH 362 0
DWIDTH 16 0
BBX 16 16 0 -2
BITMAP
3004
31FE
300C
34C8
BC70
F833
73FF
3032
3030
3030
3030
2830
6C30
4430
C0F0
8060
ENDCHAR
STARTCHAR 296f
ENCODING 10607
SWIDTH 362 0
DWIDTH 16 0
BBX 16 16 0 -2
BITMAP
3000
31FF
3010
3430
BC30
F870
70F4
30F2
31B3
3333
3231
2830
6C30
4430
C030
8030
ENDCHAR
STARTCHAR 2970
ENCODING 10608
SWIDTH 362 0
DWIDTH 16 0
BBX 16 16 0 -2
BITMAP
3088
30FC
3088
3088
BD8C
F90F
7300
33FC
308C
308C
3048
7878
6C30
4C7C
C1CF
8702
ENDCHAR
STARTCHAR 2971
ENCODING 10609
SWIDTH 362 0
DWIDTH 16 0
BBX 16 16 0 -2
BITMAP
3030
3030
3036
343E
BDF0
F830
7032
31FE
3030
3030
3033
2830
6C30
4430
C030
8030
ENDCHAR
STARTCHAR 2972
ENCODING 10610
SWIDTH 362 0
DWIDTH 16 0
BBX 16 16 0 -2
BITMAP
1030
1830
1030
1533
97B6
DCB6
78FC
3078
1030
3038
3868
3C48
26CC
66C6
4383
8301
ENDCHAR
STARTCHAR 2973
ENCODING 10611
SWIDTH 362 0
DWIDTH 16 0
BBX 16 16 0 -2
BITMAP
0006
7FFE
0180
0360
0F18
190C
6104
0000
0100
2118
3B18
1BA0
0660
0C38
180F
6006
ENDCHAR
STARTCHAR 2974
ENCODING 10612
SWIDTH 362 0
DWIDTH 16 0
BBX 16 16 0 -2
BITMAP
10C0
18C0
10C0
16C0
DCFE
798C
71CC
3348
1258
3078
3830
3C30
2478
664E
40C7
8302
ENDCHAR
STARTCHAR 2975
ENCODING 10613
SWIDTH 362 0
DWIDTH 16 0
BBX 16 16 0 -2
BITMAP
3006
30FE
3080
34FF
BC83
F883
7083
30FF
3083
3080
3080
2980
6D80
4500
C300
8200
ENDCHAR
STARTCHAR 2976
ENCODING 10614
SWIDTH 362 0
DWIDTH 16 0
BBX 16 16 0 -2
BITMAP
2000
31FF
2100
2900
BD04
F9FE
F146
2144
212C
232C
6338
7318
6A38
4E6E
C4C7
8182
ENDCHAR
STARTCHAR 2977
ENCODING 10615
SWIDTH 362 0
DWIDTH 16 0
BBX 16 16 0 -2
BITMAP
2000
3FFC
2180
2180
6186
63E0
0340
0641
0C43
187F
707F
0000
4846
4463
C623
8221
ENDCHAR
STARTCHAR 2978
ENCODING 10616
SWIDTH 362 0
DWIDTH 16 0
BBX 16 16 0 -2
BITMAP
0002
7FFF
0180
0180
03B0
0798
0D8E
1986
6182
0180
0180
0100
4846
4463
C623
8221
ENDCHAR
STARTCHAR 2979
ENCODING 10617
SWIDTH 362 0
DWIDTH 16 0
BBX 16 16 0 -2
BITMAP
3030
3070
3070
34C8
BCCC
F987
738B
34CC
3088
3088
3088
2988
6D88
4508
C208
8408
ENDCHAR
STARTCHAR 297a
ENCODING 10618
SWIDTH 362 0
DWIDTH 16 0
BBX 16 16 0 -2
BITMAP
0038
3FF0
000C
330C
1998
09B0
0000
1010
1FF8
1818
1818
1FF8
1818
1818
1FF8
1010
ENDCHAR
STARTCHAR 297b
ENCODING 10619
SWIDTH 362 0
DWIDTH 16 0
BBX 16 16 0 -2
BITMAP
0606
466C
3C3C
1C1C
3636
C262
0404
0646
4444
2C2C
3C38
1838
1C38
362C
6247
C183
ENDCHAR
STARTCHAR 297c
ENCODING 10620
SWIDTH 362 0
DWIDTH 16 0
BBX 16 16 0 -2
BITMAP
0C30
6C30
4C30
4C30
4DFF
7C30
0C30
0C78
7C7C
4CFC
4CB6
4DB3
4F33
CE30
8C30
8C30
ENDCHAR
STARTCHAR 297d
ENCODING 10621
SWIDTH 362 0
DWIDTH 16 0
BBX 16 16 0 -2
BITMAP
4C60
6C40
6CC0
6CC6
6CFE
6DA4
6120
6220
7C30
6C70
4C70
4C48
CCCC
CCCE
8D87
8F02
ENDCHAR
STARTCHAR 297e
ENCODING 10622
SWIDTH 362 0
DWIDTH 16 0
BBX 16 16 0 -2
BITMAP
4743
6663
6662
6662
6662
6662
6060
6062
7E7F
6663
4642
4642
C6C2
C6C2
8682
8782
ENDCHAR
STARTCHAR 2a21
ENCODING 10785
SWIDTH 362 0
DWIDTH 16 0
BBX 16 16 0 -2
BITMAP
18C0
7060
5060
5003
FBFF
D040
9044
10FE
3CC4
F0C4
D084
1184
118C
130C
1278
1430
ENDCHAR
STARTCHAR 2a22
ENCODING 10786
SWIDTH 362 0
DWIDTH 16 0
BBX 16 16 0 -2
BITMAP
180C
783C
79E0
7C60
7E60
D864
99FE
9860
1C60
7BFF
D860
1860
1861
1861
187F
103F
ENDCHAR
STARTCHAR 2a23
ENCODING 10787
SWIDTH 362 0
DWIDTH 16 0
BBX 16 16 0 -2
BITMAP
1860
7020
5036
5400
FC00
D0F8
9098
1098
3C98
F098
D098
1198
1199
1319
121F
140F
ENDCHAR
STARTCHAR 2a24
ENCODING 10788
SWIDTH 362 0
DWIDTH 16 0
BBX 16 16 0 -2
BITMAP
1040
D860
7020
63FF
F020
1020
1820
3820
3836
5830
9820
1820
1820
1820
7033
2000
ENDCHAR
STARTCHAR 2a25
ENCODING 10789
SWIDTH 362 0
DWIDTH 16 0
BBX 16 16 0 -2
BITMAP
1002
D9FF
7062
6062
F042
10C6
189E
398C
3B00
5BFE
9986
1986
1986
1986
71FE
2102
ENDCHAR
STARTCHAR 2a26
ENCODING 10790
SWIDTH 362 0
DWIDTH 16 0
BBX 16 16 0 -2
BITMAP
1180
D980
7106
6306
F206
17F6
1936
3936
3936
59F6
9906
191D
1901
1901
71FF
21FF
ENDCHAR
STARTCHAR 2a27
ENCODING 10791
SWIDTH 362 0
DWIDTH 16 0
BBX 16 16 0 -2
BITMAP
1030
D830
7030
61FF
F133
1136
1930
39FE
3946
594C
9B6C
1B38
1A38
1E3C
74E7
2982
ENDCHAR
STARTCHAR 2a28
ENCODING 10792
SWIDTH 362 0
DWIDTH 16 0
BBX 16 16 0 -2
BITMAP
0830
5830
3060
31FF
5183
1982
1982
1982
3982
6982
C982
0982
0982
1982
79FE
3102
ENDCHAR
STARTCHAR 2a29
ENCODING 10793
SWIDTH 362 0
DWIDTH 16 0
BBX 16 16 0 -2
BITMAP
1030
D830
7020
6022
F1FE
1020
1820
3823
3BFF
5860
98C0
18C4
1986
1B3F
73E3
2101
ENDCHAR
STARTCHAR 2a2a
ENCODING 10794
SWIDTH 362 0
DWIDTH 16 0
BBX 16 16 0 -2
BITMAP
11C0
D980
7182
61FF
F330
1330
19B0
39BE
3BF6
59B6
99B4
19B4
19B1
1981
71FF
20FF
ENDCHAR
STARTCHAR 2a2b
ENCODING 10795
SWIDTH 362 0
DWIDTH 16 0
BBX 16 16 0 -2
BITMAP
0060
08C0
F8C0
2180
210C
2306
3FFE
3792
2090
2090
2090
3990
F111
C311
061F
1C1F
ENDCHAR
STARTCHAR 2a2c
ENCODING 10796
SWIDTH 362 0
DWIDTH 16 0
BBX 16 16 0 -2
BITMAP
0040
0860
F820
2023
23FF
2060
3860
3070
206C
2066
2066
3860
F060
C060
0060
0060
ENDCHAR
STARTCHAR 2a2d
ENCODING 10797
SWIDTH 362 0
DWIDTH 16 0
BBX 16 16 0 -2
BITMAP
0070
0860
F860
2064
23FC
2060
3860
3062
27FE
2070
20D0
38D8
F188
C30E
0607
0C02
ENDCHAR
STARTCHAR 2a2e
ENCODING 10798
SWIDTH 362 0
DWIDTH 16 0
BBX 16 16 0 -2
BITMAP
0002
0DFF
FC30
3030
3036
31FE
39B6
31B6
31B6
31B6
31B6
3DB6
F1B6
C13E
0030
0030
ENDCHAR
STARTCHAR 2a2f
ENCODING 10799
SWIDTH 362 0
DWIDTH 16 0
BBX 16 16 0 -2
BITMAP
0000
0DFF
FC10
3030
3030
3070
38F4
30F2
31B3
3333
3231
3C30
F030
C030
0030
0030
ENDCHAR
STARTCHAR 2a30
ENCODING 10800
SWIDTH 362 0
DWIDTH 16 0
BBX 16 16 0 -2
BITMAP
0070
0860
F862
207F
2060
2060
386C
318C
208C
2098
20D0
3870
F070
C0D8
030F
0606
ENDCHAR
STARTCHAR 2a31
ENCODING 10801
SWIDTH 362 0
DWIDTH 16 0
BBX 16 16 0 -2
BITMAP
00C0
08C0
F880
2186
21FE
2364
3A60
3060
2070
2070
20D0
38D8
F08C
C18E
0307
0C02
ENDCHAR
STARTCHAR 2a32
ENCODING 10802
SWIDTH 362 0
DWIDTH 16 0
BBX 16 16 0 -2
BITMAP
0060
0860
F8D0
20D8
2188
210C
3BF6
3607
2400
21FC
200C
380C
F018
C010
0030
0020
ENDCHAR
STARTCHAR 2a33
ENCODING 10803
SWIDTH 362 0
DWIDTH 16 0
BBX 16 16 0 -2
BITMAP
0030
0810
F898
20C8
218C
218C
3926
3367
2263
2642
20C0
3888
F18C
C11C
01E6
0180
ENDCHAR
STARTCHAR 2a34
ENCODING 10804
SWIDTH 362 0
DWIDTH 16 0
BBX 16 16 0 -2
BITMAP
1802
11FF
1040
FE40
D64E
D6C6
D6C6
D6E6
D6F6
D6D4
D684
DC84
1084
1095
11E7
1187
ENDCHAR
STARTCHAR 2a35
ENCODING 10805
SWIDTH 362 0
DWIDTH 16 0
BBX 16 16 0 -2
BITMAP
00C0
00C0
CC88
FDFC
D598
D518
D518
FE10
D430
D430
D478
FC48
C4CC
0186
0303
0601
ENDCHAR
STARTCHAR 2a36
ENCODING 10806
SWIDTH 362 0
DWIDTH 16 0
BBX 16 16 0 -2
BITMAP
000C
060C
3308
1990
19B0
0820
2004
7FFE
6184
6184
618C
618C
6184
6184
7FFC
6004
ENDCHAR
STARTCHAR 2a37
ENCODING 10807
SWIDTH 362 0
DWIDTH 16 0
BBX 16 16 0 -2
BITMAP
0008
3FFC
0000
1010
DFFA
D99B
D99A
DFFA
D99A
D99A
D99A
DFFA
D012
C002
FFFE
8002
ENDCHAR
STARTCHAR 2a38
ENCODING 10808
SWIDTH 362 0
DWIDTH 16 0
BBX 16 16 0 -2
BITMAP
0180
0190
1FF8
1998
1998
1998
1998
1FF8
1010
0002
7FFE
0420
0C20
0C20
1820
3020
ENDCHAR
STARTCHAR 2a39
ENCODING 10809
SWIDTH 362 0
DWIDTH 16 0
BBX 16 16 0 -2
BITMAP
1018
1FF8
1198
1FF8
1198
1198
1FF8
0020
0C30
0C20
FFFF
0C20
0820
1820
3020
6020
ENDCHAR
STARTCHAR 2a3a
ENCODING 10810
SWIDTH 362 0
DWIDTH 16 0
BBX 16 16 0 -2
BITMAP
0080
30C3
3FFF
3018
B010
F010
7036
3030
3210
F110
B190
2090
6010
4010
C0F0
8020
ENDCHAR
STARTCHAR 2a3b
ENCODING 10811
SWIDTH 362 0
DWIDTH 16 0
BBX 16 16 0 -2
BITMAP
0080
30C3
3FFF
B000
F7FC
7000
3002
3FFF
3180
F3FC
B004
2004
600C
600C
40F8
8030
ENDCHAR
STARTCHAR 2a3c
ENCODING 10812
SWIDTH 362 0
DWIDTH 16 0
BBX 16 16 0 -2
BITMAP
0080
30C3
3FFF
B000
F060
7040
3040
3040
37FC
F040
B040
2040
6040
6040
40C6
8000
ENDCHAR
STARTCHAR 2a3d
ENCODING 10813
SWIDTH 362 0
DWIDTH 16 0
BBX 16 16 0 -2
BITMAP
1C04
79FE
100C
1018
7C30
3030
3830
3DFF
7430
7030
D030
9030
1030
1030
10F0
1060
ENDCHAR
STARTCHAR 2a3e
ENCODING 10814
SWIDTH 362 0
DWIDTH 16 0
BBX 16 16 0 -2
BITMAP
00F8
3FC0
0180
7FFF
03C0
07E0
0D98
198E
6102
CFF0
0C30
0C20
0C21
1821
303F
C01F
ENDCHAR
STARTCHAR 2a3f
ENCODING 10815
SWIDTH 362 0
DWIDTH 16 0
BBX 16 16 0 -2
BITMAP
1C02
79FE
1030
1030
7C30
3030
3833
3C30
7430
7030
D030
9030
1030
1030
1030
1030
ENDCHAR
STARTCHAR 2a40
ENCODING 10816
SWIDTH 362 0
DWIDTH 16 0
BBX 16 16 0 -2
BITMAP
1C04
79FE
1006
1006
7C06
3006
3986
3D86
7584
7180
D180
9180
1181
1183
11FF
1000
ENDCHAR
STARTCHAR 2a41
ENCODING 10817
SWIDTH 362 0
DWIDTH 16 0
BBX 16 16 0 -2
BITMAP
3830
71B0
21B0
21B0
FDB6
23F7
71B6
79B6
69B6
E1B4
A1B4
A1B0
21B1
2181
21FF
20FF
ENDCHAR
STARTCHAR 2a42
ENCODING 10818
SWIDTH 362 0
DWIDTH 16 0
BBX 16 16 0 -2
BITMAP
39C0
7180
2180
2188
FBFC
218C
7188
7B88
6988
E1C8
A1E8
A128
2309
2209
240F
2807
ENDCHAR
STARTCHAR 2a43
ENCODING 10819
SWIDTH 362 0
DWIDTH 16 0
BBX 16 16 0 -2
BITMAP
1C1C
7870
11B0
1030
7C30
3033
3BFF
3C30
7430
7030
D030
9030
1030
1030
1030
1030
ENDCHAR
STARTCHAR 2a44
ENCODING 10820
SWIDTH 362 0
DWIDTH 16 0
BBX 16 16 0 -2
BITMAP
00F8
3F80
0186
03C0
07F0
0D98
318E
C100
00F8
1F80
0180
7FFE
0180
0180
0180
0100
ENDCHAR
STARTCHAR 2a45
ENCODING 10821
SWIDTH 362 0
DWIDTH 16 0
BBX 16 16 0 -2
BITMAP
0180
4083
7FFF
CC62
9864
307E
4180
0180
0182
7FFF
0300
0360
0618
0C0E
3803
6001
ENDCHAR
STARTCHAR 2a46
ENCODING 10822
SWIDTH 362 0
DWIDTH 16 0
BBX 16 16 0 -2
BITMAP
0106
61FE
2186
0D86
FD86
0D86
8986
5986
5980
7980
7180
3D80
F181
C183
01FF
0000
ENDCHAR
STARTCHAR 2a47
ENCODING 10823
SWIDTH 362 0
DWIDTH 16 0
BBX 16 16 0 -2
BITMAP
001C
60F0
21A0
0820
F820
1823
9BFF
D820
5820
5020
5020
1820
E020
C020
0020
0020
ENDCHAR
STARTCHAR 2a48
ENCODING 10824
SWIDTH 362 0
DWIDTH 16 0
BBX 16 16 0 -2
BITMAP
1800
16FC
548C
7C88
7088
7C88
3088
3888
3C88
7688
D688
9188
1189
1109
130F
1207
ENDCHAR
STARTCHAR 2a49
ENCODING 10825
SWIDTH 362 0
DWIDTH 16 0
BBX 16 16 0 -2
BITMAP
0180
03C0
0670
0C3C
390F
E196
1998
0DB0
0DA0
7FFE
0D80
0DB0
1998
318C
C186
0100
ENDCHAR
STARTCHAR 2a4a
ENCODING 10826
SWIDTH 362 0
DWIDTH 16 0
BBX 16 16 0 -2
BITMAP
1000
1BFF
3063
2062
4C62
D862
7062
3842
6C42
FCC2
E4C2
0886
BD86
B706
863C
0C08
ENDCHAR
STARTCHAR 2a4b
ENCODING 10827
SWIDTH 362 0
DWIDTH 16 0
BBX 16 16 0 -2
BITMAP
1070
1860
3060
2060
4C66
D863
7062
3862
6C62
FC62
E442
08C6
BCC6
B586
833C
0608
ENDCHAR
STARTCHAR 2a4c
ENCODING 10828
SWIDTH 362 0
DWIDTH 16 0
BBX 16 16 0 -2
BITMAP
0006
7FFE
4836
4466
46CE
4186
41C6
5986
5966
5B26
5A06
5FF6
4FFE
4006
401E
400C
ENDCHAR
STARTCHAR 2a4d
ENCODING 10829
SWIDTH 362 0
DWIDTH 16 0
BBX 16 16 0 -2
BITMAP
4004
7FFE
6666
6666
7FFE
4000
0004
0180
0180
0180
FFFF
0180
0180
0180
0180
0100
ENDCHAR
STARTCHAR 2a4e
ENCODING 10830
SWIDTH 362 0
DWIDTH 16 0
BBX 16 16 0 -2
BITMAP
4002
7FFF
C462
8C60
1860
307E
6180
0180
0183
0180
0980
1998
118C
2186
4182
0100
ENDCHAR
STARTCHAR 2a4f
ENCODING 10831
SWIDTH 362 0
DWIDTH 16 0
BBX 16 16 0 -2
BITMAP
4830
7C30
6C3E
6CF8
7DB0
7C30
6DFE
6C30
6C30
7C33
4FFF
4C30
CC30
CC30
BC30
8830
ENDCHAR
STARTCHAR 2a50
ENCODING 10832
SWIDTH 362 0
DWIDTH 16 0
BBX 16 16 0 -2
BITMAP
4800
7DFE
6800
6800
6800
7802
69FE
6858
7858
78D8
48D8
48D8
C999
C919
BB1F
9E0F
ENDCHAR
STARTCHAR 2a51
ENCODING 10833
SWIDTH 362 0
DWIDTH 16 0
BBX 16 16 0 -2
BITMAP
4830
7C30
6820
69FE
6826
7826
6826
6826
7BFF
7860
4868
4844
C8C6
C883
B903
9E01
ENDCHAR
STARTCHAR 2a52
ENCODING 10834
SWIDTH 362 0
DWIDTH 16 0
BBX 16 16 0 -2
BITMAP
4830
7C30
6836
6832
6833
7830
6830
6830
7830
7878
4878
484C
C8CC
C886
B903
9E01
ENDCHAR
STARTCHAR 2a53
ENCODING 10835
SWIDTH 362 0
DWIDTH 16 0
BBX 16 16 0 -2
BITMAP
4804
7DFE
68C4
68CC
68CC
78CE
68FF
68E2
78A6
78B6
499C
491C
CB1C
CB3E
BE63
99C1
ENDCHAR
STARTCHAR 2a54
ENCODING 10836
SWIDTH 362 0
DWIDTH 16 0
BBX 16 16 0 -2
BITMAP
48C0
7CC0
6880
69FF
696B
796B
6A6B
6A5B
78DB
78D3
49B3
4923
CA63
C8C6
B99E
980C
ENDCHAR
STARTCHAR 2a55
ENCODING 10837
SWIDTH 362 0
DWIDTH 16 0
BBX 16 16 0 -2
BITMAP
48C7
7CC6
6CC6
6CC6
7CC6
7CC6
6CC0
6CC2
6CFF
7CC3
4CC2
4C82
CC82
CD82
BD02
8A02
ENDCHAR
STARTCHAR 2a56
ENCODING 10838
SWIDTH 362 0
DWIDTH 16 0
BBX 16 16 0 -2
BITMAP
4830
7C30
6830
6832
69FE
7830
6830
6833
79FF
7830
4870
4868
C8CC
C886
B903
9E01
ENDCHAR
STARTCHAR 2a57
ENCODING 10839
SWIDTH 362 0
DWIDTH 16 0
BBX 16 16 0 -2
BITMAP
4998
7D18
6918
6918
6918
7918
69FF
6918
7918
7918
4918
4918
C919
C959
B99F
990F
ENDCHAR
STARTCHAR 2a58
ENCODING 10840
SWIDTH 362 0
DWIDTH 16 0
BBX 16 16 0 -2
BITMAP
4800
7DFF
6810
6830
6830
7870
68F4
68F2
79B3
7B33
4E31
4830
C830
C830
B830
9830
ENDCHAR
STARTCHAR 2a59
ENCODING 10841
SWIDTH 362 0
DWIDTH 16 0
BBX 16 16 0 -2
BITMAP
4830
7C28
6824
6824
6832
7830
6820
6870
7870
7870
68D0
48D0
4891
C911
BB1F
9E1F
ENDCHAR
STARTCHAR 2a5a
ENCODING 10842
SWIDTH 362 0
DWIDTH 16 0
BBX 16 16 0 -2
BITMAP
48C0
7CC0
6CC3
6D83
6D03
7F03
6CFB
6C03
6C03
7C03
6CFB
4C03
4C03
CC06
9C1E
880C
ENDCHAR
STARTCHAR 2a5b
ENCODING 10843
SWIDTH 362 0
DWIDTH 16 0
BBX 16 16 0 -2
BITMAP
4810
7C68
6848
68CC
6884
7986
6903
6BFF
7866
7866
6866
4846
48C6
C88C
F93C
9E18
ENDCHAR
STARTCHAR 2a5c
ENCODING 10844
SWIDTH 362 0
DWIDTH 16 0
BBX 16 16 0 -2
BITMAP
0130
7FB0
4830
4830
4830
7F38
413C
4136
4133
7F33
4931
4830
4830
4830
FFB0
0030
ENDCHAR
STARTCHAR 2a5d
ENCODING 10845
SWIDTH 362 0
DWIDTH 16 0
BBX 16 16 0 -2
BITMAP
0180
0380
06C0
0DE0
19B8
318F
EFE6
0180
0184
7FFE
0000
1FF8
1818
1818
1818
1810
ENDCHAR
STARTCHAR 2a5e
ENCODING 10846
SWIDTH 362 0
DWIDTH 16 0
BBX 16 16 0 -2
BITMAP
1C18
1A13
FE7F
1A10
0300
0180
0083
0180
0180
01C0
01B0
0198
0180
0180
0180
0100
ENDCHAR
STARTCHAR 2a5f
ENCODING 10847
SWIDTH 362 0
DWIDTH 16 0
BBX 16 16 0 -2
BITMAP
1C18
1A13
FE7F
1810
0004
3FFC
0C20
0C20
0C33
0C30
0C20
0820
1820
1020
3020
6020
ENDCHAR
STARTCHAR 2a60
ENCODING 10848
SWIDTH 362 0
DWIDTH 16 0
BBX 16 16 0 -2
BITMAP
1C18
1A13
FE7F
1810
0000
3FFC
0180
0180
0186
0380
03C0
0680
0481
0881
30FF
607F
ENDCHAR
STARTCHAR 2a61
ENCODING 10849
SWIDTH 362 0
DWIDTH 16 0
BBX 16 16 0 -2
BITMAP
1C18
1A13
FE7F
1810
0002
FFFF
0180
218C
3FFE
2184
2184
2184
218C
219C
2188
0100
ENDCHAR
STARTCHAR 2a62
ENCODING 10850
SWIDTH 362 0
DWIDTH 16 0
BBX 16 16 0 -2
BITMAP
1C18
1A13
FE7F
1810
0000
1FF8
1B18
1998
1898
FFFF
1818
1818
1818
3018
6078
C030
ENDCHAR
STARTCHAR 2a63
ENCODING 10851
SWIDTH 362 0
DWIDTH 16 0
BBX 16 16 0 -2
BITMAP
1C18
1A13
FE7F
1910
0180
0180
1D90
198C
1986
3192
6198
4130
00E0
0380
0E00
7000
ENDCHAR
STARTCHAR 2a64
ENCODING 10852
SWIDTH 362 0
DWIDTH 16 0
BBX 16 16 0 -2
BITMAP
1C18
1A13
FE7F
1810
0180
1980
3188
3FFC
2180
4180
0182
FFFF
0180
0180
0180
0100
ENDCHAR
STARTCHAR 2a65
ENCODING 10853
SWIDTH 362 0
DWIDTH 16 0
BBX 16 16 0 -2
BITMAP
1C18
1A13
FE7F
1810
0600
5F06
70FE
60C6
60C6
60C6
60C6
66C6
7CDE
60CC
00C0
00C0
ENDCHAR
STARTCHAR 2a66
ENCODING 10854
SWIDTH 362 0
DWIDTH 16 0
BBX 16 16 0 -2
BITMAP
1C18
1A13
FE7F
1810
0030
67F8
7980
6180
60C6
60C0
60C0
6060
6060
6F31
781F
2007
ENDCHAR
STARTCHAR 2a67
ENCODING 10855
SWIDTH 362 0
DWIDTH 16 0
BBX 16 16 0 -2
BITMAP
1C18
1A13
FE7F
1810
0000
1806
31FE
2606
6C06
7806
1806
3006
2406
6E06
FA3C
4018
ENDCHAR
STARTCHAR 2a68
ENCODING 10856
SWIDTH 362 0
DWIDTH 16 0
BBX 16 16 0 -2
BITMAP
1C18
1A13
FE7F
1810
0006
7FFE
6660
6660
6660
6460
6C3E
7800
6000
6000
3FFF
0000
ENDCHAR
STARTCHAR 2a69
ENCODING 10857
SWIDTH 362 0
DWIDTH 16 0
BBX 16 16 0 -2
BITMAP
1C18
1A13
FE7F
1810
0008
100C
1008
1008
7FFE
1008
1008
FFFF
1008
1008
1078
1018
ENDCHAR
STARTCHAR 2a6a
ENCODING 10858
SWIDTH 362 0
DWIDTH 16 0
BBX 16 16 0 -2
BITMAP
1C18
1A13
FE7F
1810
0030
1E70
03C0
0778
381C
0030
0430
0360
01C0
03E0
0C3F
700E
ENDCHAR
STARTCHAR 2a6b
ENCODING 10859
SWIDTH 362 0
DWIDTH 16 0
BBX 16 16 0 -2
BITMAP
1C18
1A13
FE7F
1810
0000
00FC
1FC0
100C
1FFE
1004
100C
300C
3000
2000
4000
8000
ENDCHAR
STARTCHAR 2a6c
ENCODING 10860
SWIDTH 362 0
DWIDTH 16 0
BBX 16 16 0 -2
BITMAP
1C18
1A13
FE7F
1910
0180
03C0
0660
0C38
180F
3E37
C4F0
0780
0408
0408
07F8
07F8
ENDCHAR
STARTCHAR 2a6d
ENCODING 10861
SWIDTH 362 0
DWIDTH 16 0
BBX 16 16 0 -2
BITMAP
00C0
00FC
0080
3FFF
2183
2106
3FF8
2100
21FC
2400
2630
66E0
6782
4E04
C7FC
83FC
ENDCHAR
STARTCHAR 2a6e
ENCODING 10862
SWIDTH 362 0
DWIDTH 16 0
BBX 16 16 0 -2
BITMAP
0100
7FFF
0300
070C
0CD0
1CE0
6F38
CE1F
0D06
0180
0180
7FFF
0180
0180
0180
0100
ENDCHAR
STARTCHAR 2a6f
ENCODING 10863
SWIDTH 362 0
DWIDTH 16 0
BBX 16 16 0 -2
BITMAP
0040
4020
3033
10C0
0040
307E
F8C6
30C6
7886
7986
190C
323C
3418
7800
CFFF
01FC
ENDCHAR
STARTCHAR 2a70
ENCODING 10864
SWIDTH 362 0
DWIDTH 16 0
BBX 16 16 0 -2
BITMAP
0004
41FE
3186
1186
01FE
3186
F986
31FE
7986
7906
1B06
331E
360C
7800
CFFF
01FC
ENDCHAR
STARTCHAR 2a71
ENCODING 10865
SWIDTH 362 0
DWIDTH 16 0
BBX 16 16 0 -2
BITMAP
0040
4060
3062
110C
0088
3098
F8D8
3070
7870
7870
18DC
318F
3606
7C00
CFFF
01FC
ENDCHAR
STARTCHAR 2a72
ENCODING 10866
SWIDTH 362 0
DWIDTH 16 0
BBX 16 16 0 -2
BITMAP
0002
43FF
3020
13FE
0326
3326
FB26
3326
7B26
7B3E
1B26
3020
3020
7820
CFFF
01FC
ENDCHAR
STARTCHAR 2a73
ENCODING 10867
SWIDTH 362 0
DWIDTH 16 0
BBX 16 16 0 -2
BITMAP
0002
43FF
3030
1030
0078
30E4
F9A6
3323
7A20
7820
1820
3020
3020
7800
CFFF
01FC
ENDCHAR
STARTCHAR 2a74
ENCODING 10868
SWIDTH 362 0
DWIDTH 16 0
BBX 16 16 0 -2
BITMAP
0040
4060
3060
1062
07FE
3060
F8F0
30D0
7898
79CC
1B67
3633
3000
7800
CFFF
01FC
ENDCHAR
STARTCHAR 2a75
ENCODING 10869
SWIDTH 362 0
DWIDTH 16 0
BBX 16 16 0 -2
BITMAP
01A2
FFBF
2032
2036
3634
633C
6236
7232
7A33
6A31
6631
663F
6677
7EF0
F7F0
C3B0
ENDCHAR
STARTCHAR 2a76
ENCODING 10870
SWIDTH 362 0
DWIDTH 16 0
BBX 16 16 0 -2
BITMAP
0022
7F3F
6332
6336
6334
7F3C
6336
6332
6333
7F31
6331
633F
6337
FF30
F030
4030
ENDCHAR
STARTCHAR 2a77
ENCODING 10871
SWIDTH 362 0
DWIDTH 16 0
BBX 16 16 0 -2
BITMAP
3022
303F
61B2
7FB6
C1B4
81BC
7DB6
6DB2
6DB3
6DB1
7DB1
69BF
01B7
0130
0F30
0630
ENDCHAR
STARTCHAR 2a78
ENCODING 10872
SWIDTH 362 0
DWIDTH 16 0
BBX 16 16 0 -2
BITMAP
3022
303F
3F32
6336
4634
8D3C
7FB6
01B2
01B3
01B1
7FB1
01BF
01B7
7FB0
0130
0030
ENDCHAR
STARTCHAR 2a79
ENCODING 10873
SWIDTH 362 0
DWIDTH 16 0
BBX 16 16 0 -2
BITMAP
9800
FBFF
D830
D030
F030
E130
D1B0
D9BE
C9B0
C9B0
C9B0
F9B0
D1B0
C1B0
C1B3
C000
ENDCHAR
STARTCHAR 2a7a
ENCODING 10874
SWIDTH 362 0
DWIDTH 16 0
BBX 16 16 0 -2
BITMAP
9800
FB03
DBFF
D333
F333
E333
D333
DB33
CBFF
CB33
CB33
FB33
D333
C333
C3FF
C200
ENDCHAR
STARTCHAR 2a7b
ENCODING 10875
SWIDTH 362 0
DWIDTH 16 0
BBX 16 16 0 -2
BITMAP
98C0
F8C0
D982
D1FF
F318
E310
D1D0
D99F
CBF3
C992
C996
F990
D191
C181
C1FF
C0FF
ENDCHAR
STARTCHAR 2a7c
ENCODING 10876
SWIDTH 362 0
DWIDTH 16 0
BBX 16 16 0 -2
BITMAP
9860
F860
D8D0
D0D8
F18C
E10E
D3FB
DE05
C9FE
C80C
C80C
F998
D0F0
C060
C030
C030
ENDCHAR
STARTCHAR 2a7d
ENCODING 10877
SWIDTH 362 0
DWIDTH 16 0
BBX 16 16 0 -2
BITMAP
0180
0188
3FFC
018C
018F
018C
0188
3FF8
0180
398C
09D0
03B0
0D9C
F18E
C782
0300
ENDCHAR
STARTCHAR 2a7e
ENCODING 10878
SWIDTH 362 0
DWIDTH 16 0
BBX 16 16 0 -2
BITMAP
0180
0186
7FFE
0180
1FF8
0183
FFFF
0008
1FF8
1198
1198
1FF8
3018
2018
6078
C030
ENDCHAR
STARTCHAR 2b21
ENCODING 11041
SWIDTH 362 0
DWIDTH 16 0
BBX 16 16 0 -2
BITMAP
0002
FFFF
0300
0600
4C06
6006
6026
67F6
6426
6426
6426
67E6
6426
6006
7FFE
4002
ENDCHAR
STARTCHAR 2b22
ENCODING 11042
SWIDTH 362 0
DWIDTH 16 0
BBX 16 16 0 -2
BITMAP
01F8
3F80
0180
7FFF
1190
1998
199B
1998
1998
7FFF
0380
07E0
0DB8
199F
7187
C100
ENDCHAR
STARTCHAR 2b23
ENCODING 11043
SWIDTH 362 0
DWIDTH 16 0
BBX 16 16 0 -2
BITMAP
1C70
1860
7F60
1860
5B60
4360
4360
7F60
4360
7F60
1860
1961
FF61
1863
187F
183E
ENDCHAR
STARTCHAR 2b24
ENCODING 11044
SWIDTH 362 0
DWIDTH 16 0
BBX 16 16 0 -2
BITMAP
0300
0184
7FFE
0830
0C20
0660
06C6
0180
0180
0183
FFFF
0DB0
198C
3186
6182
0100
ENDCHAR
STARTCHAR 2b25
ENCODING 11045
SWIDTH 362 0
DWIDTH 16 0
BBX 16 16 0 -2
BITMAP
0300
0183
FFFF
0000
1FF8
1018
1018
1018
1018
1FF8
0180
1990
318C
2186
4782
0300
ENDCHAR
STARTCHAR 2b26
ENCODING 11046
SWIDTH 362 0
DWIDTH 16 0
BBX 16 16 0 -2
BITMAP
0300
0182
7FFE
0010
1FF8
1818
1818
1FF8
1010
000C
7FFE
6004
7FFC
6004
600C
600C
ENDCHAR
STARTCHAR 2b27
ENCODING 11047
SWIDTH 362 0
DWIDTH 16 0
BBX 16 16 0 -2
BITMAP
0300
0180
FFFF
0C00
1B0C
1B0C
330C
330C
73FC
F30C
B30C
33FC
3000
3000
3FFF
3000
ENDCHAR
STARTCHAR 2b28
ENCODING 11048
SWIDTH 362 0
DWIDTH 16 0
BBX 16 16 0 -2
BITMAP
1C60
1820
1BFF
3603
3400
61FC
6000
A000
2006
20D8
20D8
2098
2199
2119
231F
2C0F
ENDCHAR
STARTCHAR 2b29
ENCODING 11049
SWIDTH 362 0
DWIDTH 16 0
BBX 16 16 0 -2
BITMAP
1C60
1A20
1BFF
3633
3430
6020
6032
A070
2070
20F8
20A8
21AC
2327
2623
2020
2020
ENDCHAR
STARTCHAR 2b2a
ENCODING 11050
SWIDTH 362 0
DWIDTH 16 0
BBX 16 16 0 -2
BITMAP
1C02
1BFE
1820
3020
31FE
6020
6032
A18C
218C
218C
27FF
218C
218C
210C
230C
260C
ENDCHAR
STARTCHAR 2b2b
ENCODING 11051
SWIDTH 362 0
DWIDTH 16 0
BBX 16 16 0 -2
BITMAP
1860
1860
107E
306C
3078
67FF
6060
A0CC
21FC
2318
2622
2FFF
3820
2020
20E0
2060
ENDCHAR
STARTCHAR 2b2c
ENCODING 11052
SWIDTH 362 0
DWIDTH 16 0
BBX 16 16 0 -2
BITMAP
1C02
1BFF
1800
310C
31FE
6104
6104
A104
21FC
2000
210C
218C
20D8
20D0
2013
2000
ENDCHAR
STARTCHAR 2b2d
ENCODING 11053
SWIDTH 362 0
DWIDTH 16 0
BBX 16 16 0 -2
BITMAP
1C04
1BFE
18C4
30C4
37FF
60C4
60CC
A0CC
2080
21FE
2386
2386
2786
2D86
21FE
2184
ENDCHAR
STARTCHAR 2b2e
ENCODING 11054
SWIDTH 362 0
DWIDTH 16 0
BBX 16 16 0 -2
BITMAP
1C06
1BFE
1B06
3306
3306
63FE
6000
A07E
21E0
2020
2020
23FE
2020
2020
2020
27FF
ENDCHAR
STARTCHAR 2b2f
ENCODING 11055
SWIDTH 362 0
DWIDTH 16 0
BBX 16 16 0 -2
BITMAP
1C30
1930
1B20
3326
33FE
6220
6420
A7FF
2000
2306
23FE
2306
2306
2306
23FE
2302
ENDCHAR
STARTCHAR 2b30
ENCODING 11056
SWIDTH 362 0
DWIDTH 16 0
BBX 16 16 0 -2
BITMAP
1052
37FF
325A
225E
625C
67DC
E25E
E25A
625B
67D9
6259
665F
665F
64D8
6FD8
7990
ENDCHAR
STARTCHAR 2b31
ENCODING 11057
SWIDTH 362 0
DWIDTH 16 0
BBX 16 16 0 -2
BITMAP
1C60
18CC
1BFE
3304
33FC
6304
630C
A30C
2307
23FE
270C
243C
2064
21C4
263C
2008
ENDCHAR
STARTCHAR 2b32
ENCODING 11058
SWIDTH 362 0
DWIDTH 16 0
BBX 16 16 0 -2
BITMAP
0C60
1860
18F0
10D8
318C
3306
77FB
F460
B060
33FE
3060
31E8
3366
3262
34E3
3860
ENDCHAR
STARTCHAR 2b33
ENCODING 11059
SWIDTH 362 0
DWIDTH 16 0
BBX 16 16 0 -2
BITMAP
1C60
186C
1864
37FF
3060
67FE
6666
A666
27FE
2666
2666
27FE
2666
2666
267E
262C
ENDCHAR
STARTCHAR 2b34
ENCODING 11060
SWIDTH 362 0
DWIDTH 16 0
BBX 16 16 0 -2
BITMAP
1C70
1862
1FFF
3060
33FE
6266
6266
A3FE
2266
2266
23FC
2060
27FF
2060
2060
2060
ENDCHAR
STARTCHAR 2b35
ENCODING 11061
SWIDTH 362 0
DWIDTH 16 0
BBX 16 16 0 -2
BITMAP
1C04
19FE
1906
3106
3106
6104
6000
A1FE
2020
2020
2033
2070
206C
20C6
2183
2701
ENDCHAR
STARTCHAR 2b36
ENCODING 11062
SWIDTH 362 0
DWIDTH 16 0
BBX 16 16 0 -2
BITMAP
0180
0380
0340
0630
0C1C
37FF
E002
7F26
1B36
1B26
1BA6
3326
1326
1326
339E
000C
ENDCHAR
STARTCHAR 2b37
ENCODING 11063
SWIDTH 362 0
DWIDTH 16 0
BBX 16 16 0 -2
BITMAP
0180
0380
0660
0C30
181C
3FFF
6007
DF26
132C
1F68
13D8
1FD0
3368
333C
6F36
C614
ENDCHAR
STARTCHAR 2b38
ENCODING 11064
SWIDTH 362 0
DWIDTH 16 0
BBX 16 16 0 -2
BITMAP
0830
0C30
0660
7FFF
0300
0608
0F18
33B0
46C0
1CC0
71E0
07D8
0CCE
70C7
C782
0300
ENDCHAR
STARTCHAR 2b39
ENCODING 11065
SWIDTH 362 0
DWIDTH 16 0
BBX 16 16 0 -2
BITMAP
4002
7FFF
C302
8618
1FF8
1018
1FF8
1018
1018
1C18
1830
1BF8
1E00
1802
1FFE
0FFE
ENDCHAR
STARTCHAR 2b3a
ENCODING 11066
SWIDTH 362 0
DWIDTH 16 0
BBX 16 16 0 -2
BITMAP
4002
7FFF
C002
8000
7E30
0036
00FE
7F24
346C
3468
243C
643E
64C3
4401
C7FF
87FF
ENDCHAR
STARTCHAR 2b3b
ENCODING 11067
SWIDTH 362 0
DWIDTH 16 0
BBX 16 16 0 -2
BITMAP
0030
C032
63FF
2020
0B36
1336
1326
3326
23FE
6272
E070
C0B8
612E
6227
6C20
0020
ENDCHAR
STARTCHAR 2b3c
ENCODING 11068
SWIDTH 362 0
DWIDTH 16 0
BBX 16 16 0 -2
BITMAP
0402
C7FF
66DB
26DB
0E9B
179F
170F
360B
27FF
678F
E78B
C7FB
678B
6603
660F
0406
ENDCHAR
STARTCHAR 2b3d
ENCODING 11069
SWIDTH 362 0
DWIDTH 16 0
BBX 16 16 0 -2
BITMAP
01C0
C198
61F8
2310
0B36
1766
1266
3266
2366
6376
E070
C0D0
6091
6191
631F
0C1F
ENDCHAR
STARTCHAR 2b3e
ENCODING 11070
SWIDTH 362 0
DWIDTH 16 0
BBX 16 16 0 -2
BITMAP
0060
C060
60F0
20D8
098C
1306
17FB
3460
2060
67FE
E060
C168
6366
6262
65E2
0060
ENDCHAR
STARTCHAR 2b3f
ENCODING 11071
SWIDTH 362 0
DWIDTH 16 0
BBX 16 16 0 -2
BITMAP
0183
FF83
0032
7F32
6132
6132
6132
7F32
4032
0332
6332
2232
3602
1782
FC1E
4006
ENDCHAR
STARTCHAR 2b40
ENCODING 11072
SWIDTH 362 0
DWIDTH 16 0
BBX 16 16 0 -2
BITMAP
2183
3F83
219A
2192
3F92
0012
2092
7FD2
6892
6692
6292
6692
7882
5082
C79E
8186
ENDCHAR
STARTCHAR 2b41
ENCODING 11073
SWIDTH 362 0
DWIDTH 16 0
BBX 16 16 0 -2
BITMAP
0C03
1C03
1E32
3332
61B2
FEB2
8032
3F32
0332
0632
4F32
6332
6102
6102
7F1E
4106
ENDCHAR
STARTCHAR 2b42
ENCODING 11074
SWIDTH 362 0
DWIDTH 16 0
BBX 16 16 0 -2
BITMAP
3003
3203
3F32
6632
7FB2
6DB2
6DB2
7FB2
6DB2
6DB2
7FB2
61B2
6182
4182
C79E
8306
ENDCHAR
STARTCHAR 2b43
ENCODING 11075
SWIDTH 362 0
DWIDTH 16 0
BBX 16 16 0 -2
BITMAP
4300
667E
2436
7F36
2436
24F6
2476
2436
FF3E
242E
2467
6447
64C4
44CC
C5BC
8718
ENDCHAR
STARTCHAR 2b44
ENCODING 11076
SWIDTH 362 0
DWIDTH 16 0
BBX 16 16 0 -2
BITMAP
0200
FF7E
3016
2016
6416
C256
FF36
D936
183E
1A36
7E27
1866
1846
1EC4
F8BC
4118
ENDCHAR
STARTCHAR 2b45
ENCODING 11077
SWIDTH 362 0
DWIDTH 16 0
BBX 16 16 0 -2
BITMAP
0C03
0C03
0C9A
FFD2
2D12
6D92
6D92
7FD2
DE52
0C12
0A12
1B12
3182
20C2
40DE
8006
ENDCHAR
STARTCHAR 2b46
ENCODING 11078
SWIDTH 362 0
DWIDTH 16 0
BBX 16 16 0 -2
BITMAP
0C18
0C18
0D98
0C18
491B
7F9B
499B
499B
7F9B
5C13
1E33
3F33
6B22
C866
885E
088C
ENDCHAR
STARTCHAR 2b47
ENCODING 11079
SWIDTH 362 0
DWIDTH 16 0
BBX 16 16 0 -2
BITMAP
1810
1818
FF10
187F
5E13
4312
4232
4232
7E22
3C62
3C46
3C9C
2F0D
6C01
4FFF
87FF
ENDCHAR
STARTCHAR 2b48
ENCODING 11080
SWIDTH 362 0
DWIDTH 16 0
BBX 16 16 0 -2
BITMAP
7018
6018
6198
C018
821B
7F1B
7B1B
6F1B
6F9B
F313
5B33
4B33
FFA2
0366
1E5E
0C8C
ENDCHAR
STARTCHAR 2b49
ENCODING 11081
SWIDTH 362 0
DWIDTH 16 0
BBX 16 16 0 -2
BITMAP
4002
7FFF
40C0
4080
5FFE
4498
4C98
4DDC
5BF4
5320
4330
4618
4C0E
5804
C003
4000
ENDCHAR
STARTCHAR 2b4a
ENCODING 11082
SWIDTH 362 0
DWIDTH 16 0
BBX 16 16 0 -2
BITMAP
021C
3318
19B0
0920
3FFC
318C
3188
3FF8
3188
3188
3FF8
0180
FFFF
0180
0180
0100
ENDCHAR
STARTCHAR 2b4b
ENCODING 11083
SWIDTH 362 0
DWIDTH 16 0
BBX 16 16 0 -2
BITMAP
3000
227F
7F63
4362
4262
7E62
4262
4262
7E62
4462
4E62
587E
606C
4160
7F60
7E60
ENDCHAR
STARTCHAR 2b4c
ENCODING 11084
SWIDTH 362 0
DWIDTH 16 0
BBX 16 16 0 -2
BITMAP
2002
7FFF
6048
604C
7FFF
6040
6CCE
6CC6
6C46
6FFE
6C46
4FFE
4C46
CC46
8C5E
8C4C
ENDCHAR
STARTCHAR 2b4d
ENCODING 11085
SWIDTH 362 0
DWIDTH 16 0
BBX 16 16 0 -2
BITMAP
1886
18FE
1886
1886
7E86
188E
1880
1AFE
FEA6
30A6
30B4
649C
669C
DE9E
F2B3
40E1
ENDCHAR
STARTCHAR 2b4e
ENCODING 11086
SWIDTH 362 0
DWIDTH 16 0
BBX 16 16 0 -2
BITMAP
0100
7FFF
4103
C182
999C
0BB0
06C0
0C38
181F
EFF6
0430
0260
03C0
03E0
0E3E
701C
ENDCHAR
STARTCHAR 2b4f
ENCODING 11087
SWIDTH 362 0
DWIDTH 16 0
BBX 16 16 0 -2
BITMAP
4604
7EFE
4606
4606
4606
4604
4000
4404
7EFE
404C
4448
7E38
4038
407C
4187
4702
ENDCHAR
STARTCHAR 2b50
ENCODING 11088
SWIDTH 362 0
DWIDTH 16 0
BBX 16 16 0 -2
BITMAP
1C00
1C02
167F
3326
21A6
7F26
C826
0834
7F1C
081C
6A18
6B18
49BC
C966
B8C3
1981
ENDCHAR
STARTCHAR 2b51
ENCODING 11089
SWIDTH 362 0
DWIDTH 16 0
BBX 16 16 0 -2
BITMAP
0060
0020
DB33
DB03
DE62
D840
D8CC
D8CC
DFFF
D988
D998
D9D8
C078
007C
00C6
0702
ENDCHAR
STARTCHAR 2b52
ENCODING 11090
SWIDTH 362 0
DWIDTH 16 0
BBX 16 16 0 -2
BITMAP
0030
0034
D9FE
D826
D837
D836
D826
D9FC
D820
D9FE
D820
D823
C3FF
0020
0020
0020
ENDCHAR
STARTCHAR 2b53
ENCODING 11091
SWIDTH 362 0
DWIDTH 16 0
BBX 16 16 0 -2
BITMAP
0000
03FF
DB00
DB00
DBFE
DB10
DB10
DB10
DB7E
DB10
DB10
DB12
C3FE
0300
0303
0300
ENDCHAR
STARTCHAR 2b54
ENCODING 11092
SWIDTH 362 0
DWIDTH 16 0
BBX 16 16 0 -2
BITMAP
00C0
00C0
D880
DFFF
D998
D998
D99A
D9DE
D97C
D918
DB18
DB3C
C224
0666
04C3
0301
ENDCHAR
STARTCHAR 2b55
ENCODING 11093
SWIDTH 362 0
DWIDTH 16 0
BBX 16 16 0 -2
BITMAP
0060
0060
D842
DFFF
D8C0
D8C6
D9FE
D986
DBC6
DEC6
D886
D8FE
C186
0186
011E
020C
ENDCHAR
STARTCHAR 2b56
ENCODING 11094
SWIDTH 362 0
DWIDTH 16 0
BBX 16 16 0 -2
BITMAP
0002
03FF
D840
D882
DBFF
DA5B
DA5A
DA5A
DA5A
DA5A
DA5A
DA5A
C25A
025A
025E
0206
ENDCHAR
STARTCHAR 2b57
ENCODING 11095
SWIDTH 362 0
DWIDTH 16 0
BBX 16 16 0 -2
BITMAP
0030
0030
DB27
D9A6
D9AC
D8A8
D822
DBFF
D8D8
D8D8
D8D8
D898
C199
0319
061F
0C0F
ENDCHAR
STARTCHAR 2b58
ENCODING 11096
SWIDTH 362 0
DWIDTH 16 0
BBX 16 16 0 -2
BITMAP
0088
00FC
D888
D888
D88C
D98F
D926
DA30
D820
DFFF
D820
D9A4
C326
0223
0423
0020
ENDCHAR
STARTCHAR 2b59
ENCODING 11097
SWIDTH 362 0
DWIDTH 16 0
BBX 16 16 0 -2
BITMAP
0060
0020
DBFF
DA03
DA18
D83C
D9E0
D860
D866
DBFE
D860
D860
C061
0061
007F
003F
ENDCHAR
STARTCHAR 2b5a
ENCODING 11098
SWIDTH 362 0
DWIDTH 16 0
BBX 16 16 0 -2
BITMAP
0102
01B3
D932
D932
D932
D932
DB32
DB32
D932
D932
D932
DB32
C332
0332
0232
0402
ENDCHAR
STARTCHAR 2b5b
ENCODING 11099
SWIDTH 362 0
DWIDTH 16 0
BBX 16 16 0 -2
BITMAP
0106
008C
D8C8
D9FE
D820
D820
D820
D820
DBFF
D860
D870
D8CC
C086
0183
0303
0C00
ENDCHAR
STARTCHAR 2b5c
ENCODING 11100
SWIDTH 362 0
DWIDTH 16 0
BBX 16 16 0 -2
BITMAP
0000
03DF
D984
D984
D984
D984
D98D
D98C
D984
D984
D984
D904
C304
0304
0604
0C04
ENDCHAR
STARTCHAR 2b5d
ENCODING 11101
SWIDTH 362 0
DWIDTH 16 0
BBX 16 16 0 -2
BITMAP
0002
03FF
D830
D860
D9C6
D906
D906
D906
D906
D9FE
D906
D906
C106
0106
01FE
0102
ENDCHAR
STARTCHAR 2b5e
ENCODING 11102
SWIDTH 362 0
DWIDTH 16 0
BBX 16 16 0 -2
BITMAP
0030
0030
D876
D870
D8D8
D88E
D9FF
DE02
DBFE
D8C0
D8CC
D88C
C00C
000C
0078
0030
ENDCHAR
STARTCHAR 2b5f
ENCODING 11103
SWIDTH 362 0
DWIDTH 16 0
BBX 16 16 0 -2
BITMAP
0030
0030
DB36
DB36
DB26
DBFE
DB26
DB26
DBFE
DB24
D836
D83C
C039
007D
018F
0607
ENDCHAR
STARTCHAR 2b60
ENCODING 11104
SWIDTH 362 0
DWIDTH 16 0
BBX 16 16 0 -2
BITMAP
0186
00FC
D83C
D8EE
D9C2
D860
D863
D8C0
D8D0
D8D0
D8B0
D9A0
C364
02C2
0CFF
00C3
ENDCHAR
STARTCHAR 2b61
ENCODING 11105
SWIDTH 362 0
DWIDTH 16 0
BBX 16 16 0 -2
BITMAP
0070
0060
D840
DBFF
DA03
DA03
DA5B
DA5B
DA5B
DA5B
DA5B
DA7B
C243
0203
020F
0206
ENDCHAR
STARTCHAR 2b62
ENCODING 11106
SWIDTH 362 0
DWIDTH 16 0
BBX 16 16 0 -2
BITMAP
001E
03F0
DB00
DB00
DB03
DB00
DB00
DB00
DBFE
DBC6
DAC6
DAC6
C6C6
04C6
04FE
00C2
ENDCHAR
STARTCHAR 2b63
ENCODING 11107
SWIDTH 362 0
DWIDTH 16 0
BBX 16 16 0 -2
BITMAP
000E
00F8
DB80
DB0E
DB78
DB40
DB50
DB53
DB5C
DB58
DA58
DA4C
C64E
0457
0C63
0840
ENDCHAR
STARTCHAR 2b64
ENCODING 11108
SWIDTH 362 0
DWIDTH 16 0
BBX 16 16 0 -2
BITMAP
4006
7FFE
4106
4196
49B6
4DA6
45DE
43C6
42C6
46C6
44CE
4CCE
58FE
7006
4006
4006
ENDCHAR
STARTCHAR 2b65
ENCODING 11109
SWIDTH 362 0
DWIDTH 16 0
BBX 16 16 0 -2
BITMAP
4006
7FFE
4666
4466
4C7E
5B3E
6196
5FFE
4206
43F6
4626
4426
4DE6
58C6
4006
4006
ENDCHAR
STARTCHAR 2b66
ENCODING 11110
SWIDTH 362 0
DWIDTH 16 0
BBX 16 16 0 -2
BITMAP
20DC
30D8
2098
2098
23FE
7898
2098
2098
2098
27FF
3800
7188
C184
4306
0602
0C02
ENDCHAR
STARTCHAR 2b67
ENCODING 11111
SWIDTH 362 0
DWIDTH 16 0
BBX 16 16 0 -2
BITMAP
3060
3044
30FE
318C
3378
7C30
3060
31F0
3033
3063
34E6
39BC
E01C
4038
00E0
0380
ENDCHAR
STARTCHAR 2b68
ENCODING 11112
SWIDTH 362 0
DWIDTH 16 0
BBX 16 16 0 -2
BITMAP
20C0
30C4
20FE
20C4
21CC
7928
2238
2038
206C
20C7
39FF
7286
C086
4086
00FE
0084
ENDCHAR
STARTCHAR 2b69
ENCODING 11113
SWIDTH 362 0
DWIDTH 16 0
BBX 16 16 0 -2
BITMAP
3030
3020
31FF
3183
3183
7D83
31FF
3183
3183
3183
35FF
3983
E183
4183
01FF
0102
ENDCHAR
STARTCHAR 2b6a
ENCODING 11114
SWIDTH 362 0
DWIDTH 16 0
BBX 16 16 0 -2
BITMAP
0600
0E30
1818
3FCC
1800
1818
3018
2C34
6662
F673
4380
0180
3FFC
0180
0182
FFFF
ENDCHAR
STARTCHAR 2b6b
ENCODING 11115
SWIDTH 362 0
DWIDTH 16 0
BBX 16 16 0 -2
BITMAP
18C0
18D8
30CA
37FF
704C
D06C
9030
1079
11CF
1707
0180
0180
7FFE
0180
0182
FFFF
ENDCHAR
STARTCHAR 2b6c
ENCODING 11116
SWIDTH 362 0
DWIDTH 16 0
BBX 16 16 0 -2
BITMAP
0180
0106
7FFE
0264
0460
00F0
0998
030C
0607
1D02
0180
0184
7FFE
0180
0182
FFFF
ENDCHAR
STARTCHAR 2b6d
ENCODING 11117
SWIDTH 362 0
DWIDTH 16 0
BBX 16 16 0 -2
BITMAP
0010
1FF8
1818
1FF8
1818
1FF8
1898
1860
1A30
1C1E
1984
0180
7FFE
0180
0182
FFFF
ENDCHAR
STARTCHAR 2b6e
ENCODING 11118
SWIDTH 362 0
DWIDTH 16 0
BBX 16 16 0 -2
BITMAP
2060
3220
23FF
2603
2418
7818
201B
2018
2118
2198
3898
7098
C018
4018
0078
0030
ENDCHAR
STARTCHAR 2b6f
ENCODING 11119
SWIDTH 362 0
DWIDTH 16 0
BBX 16 16 0 -2
BITMAP
2202
33FF
2232
2232
2222
7BFE
2222
2222
2272
227A
3A4A
72CE
C38E
4302
03FE
0202
ENDCHAR
STARTCHAR 2b70
ENCODING 11120
SWIDTH 362 0
DWIDTH 16 0
BBX 16 16 0 -2
BITMAP
2008
31FC
20C8
20DF
2083
7983
211E
222C
2030
2022
3BFE
70A8
C1AC
4326
0623
0420
ENDCHAR
STARTCHAR 2b71
ENCODING 11121
SWIDTH 362 0
DWIDTH 16 0
BBX 16 16 0 -2
BITMAP
3030
3060
31C6
3186
3186
7D86
3186
3186
3180
3182
35FF
3982
E182
4182
01FE
0102
ENDCHAR
STARTCHAR 2b72
ENCODING 11122
SWIDTH 362 0
DWIDTH 16 0
BBX 16 16 0 -2
BITMAP
2070
3060
2040
23FF
2203
7A03
225B
225B
225B
225B
3A5B
727B
C243
4203
020F
0206
ENDCHAR
STARTCHAR 2b73
ENCODING 11123
SWIDTH 362 0
DWIDTH 16 0
BBX 16 16 0 -2
BITMAP
21D8
3190
2196
2112
2310
7B7F
2710
2712
231A
231E
3B1C
730C
C31D
4335
03E7
0303
ENDCHAR
STARTCHAR 2b74
ENCODING 11124
SWIDTH 362 0
DWIDTH 16 0
BBX 16 16 0 -2
BITMAP
0002
7FFF
1840
1F40
337E
7E40
CC41
0843
307F
4180
0180
0188
3FF8
0180
0182
FFFF
ENDCHAR
STARTCHAR 2b75
ENCODING 11125
SWIDTH 362 0
DWIDTH 16 0
BBX 16 16 0 -2
BITMAP
0C60
0C60
2C60
6D62
6F7E
6C60
6C61
7F7F
F03F
4180
0180
0188
1FF8
0180
0182
FFFF
ENDCHAR
STARTCHAR 2b76
ENCODING 11126
SWIDTH 362 0
DWIDTH 16 0
BBX 16 16 0 -2
BITMAP
181C
1818
3F5A
2358
7658
9C58
0CFF
1818
3018
C198
0180
0188
1FF8
0180
0182
FFFF
ENDCHAR
STARTCHAR 2b77
ENCODING 11127
SWIDTH 362 0
DWIDTH 16 0
BBX 16 16 0 -2
BITMAP
0180
0180
0182
7FFF
0180
0180
018C
0000
1010
1818
1818
FF7F
1818
1818
1A1A
7E7E
ENDCHAR
STARTCHAR 2b78
ENCODING 11128
SWIDTH 362 0
DWIDTH 16 0
BBX 16 16 0 -2
BITMAP
0400
0FF0
0C30
1A60
21C0
03C0
0670
1C3F
67E6
1980
1998
3FF8
6180
1FF8
0182
7FFE
ENDCHAR
STARTCHAR 2b79
ENCODING 11129
SWIDTH 362 0
DWIDTH 16 0
BBX 16 16 0 -2
BITMAP
0300
0182
7FFE
3668
366C
6466
4C66
18E0
2400
1FF0
1C60
33C0
21C0
03F8
0C1F
7006
ENDCHAR
STARTCHAR 2b7a
ENCODING 11130
SWIDTH 362 0
DWIDTH 16 0
BBX 16 16 0 -2
BITMAP
0400
0FF0
0C30
1A60
21C0
03C0
0670
1C1F
7196
19B0
0DA0
FFFF
0980
19B8
318E
4106
ENDCHAR
STARTCHAR 2b7b
ENCODING 11131
SWIDTH 362 0
DWIDTH 16 0
BBX 16 16 0 -2
BITMAP
0C60
0C60
6D62
6F7E
6C61
6F61
FE7F
C600
0610
07F8
0E30
1B20
20C0
0180
0700
3C00
ENDCHAR
STARTCHAR 2b7c
ENCODING 11132
SWIDTH 362 0
DWIDTH 16 0
BBX 16 16 0 -2
BITMAP
0300
0306
7FFE
0C30
1918
318F
7FFF
C300
0660
1CE0
1D98
0738
0C60
39E0
0718
3C0C
ENDCHAR
STARTCHAR 2b7d
ENCODING 11133
SWIDTH 362 0
DWIDTH 16 0
BBX 16 16 0 -2
BITMAP
0180
0300
7FFE
0620
0C18
1B0F
67F7
CC70
32C0
0380
0710
0FF8
3C18
C418
0418
0410
ENDCHAR
STARTCHAR 2b7e
ENCODING 11134
SWIDTH 362 0
DWIDTH 16 0
BBX 16 16 0 -2
BITMAP
2060
6030
6033
6830
FC20
E860
68D3
68D6
499C
D988
FB88
368C
3886
6C93
C0E3
00C0
ENDCHAR
STARTCHAR 2c21
ENCODING 11297
SWIDTH 362 0
DWIDTH 16 0
BBX 16 16 0 -2
BITMAP
2020
6030
6010
69FF
FC30
E860
684C
68CC
48F8
D832
F866
30CC
3918
6C3C
C0E6
0383
ENDCHAR
STARTCHAR 2c22
ENCODING 11298
SWIDTH 362 0
DWIDTH 16 0
BBX 16 16 0 -2
BITMAP
2002
63FF
618C
698C
FDFC
E98C
698C
69FC
498C
D98C
F98F
300C
380C
6C0C
C00C
000C
ENDCHAR
STARTCHAR 2c23
ENCODING 11299
SWIDTH 362 0
DWIDTH 16 0
BBX 16 16 0 -2
BITMAP
2102
61FF
6110
6910
FD10
E912
69FF
6902
4902
D902
F9FE
3110
3910
6D10
C333
0100
ENDCHAR
STARTCHAR 2c24
ENCODING 11300
SWIDTH 362 0
DWIDTH 16 0
BBX 16 16 0 -2
BITMAP
2030
6032
6133
69B6
FCB4
E8B4
6830
69FF
4848
D848
F8C8
30C8
3888
6D89
C30F
0607
ENDCHAR
STARTCHAR 2c25
ENCODING 11301
SWIDTH 362 0
DWIDTH 16 0
BBX 16 16 0 -2
BITMAP
21C0
6180
6182
69FF
FF03
EA13
69FB
699B
49FB
D99B
F99B
3193
3803
6C06
C01E
000C
ENDCHAR
STARTCHAR 2c26
ENCODING 11302
SWIDTH 362 0
DWIDTH 16 0
BBX 16 16 0 -2
BITMAP
0C60
0C60
6C60
6F7E
6C60
6C61
6F63
FC7F
C400
0630
FFFF
0C60
0CC0
03E0
0638
780C
ENDCHAR
STARTCHAR 2c27
ENCODING 11303
SWIDTH 362 0
DWIDTH 16 0
BBX 16 16 0 -2
BITMAP
2018
601E
601A
6B1B
FFFF
EB18
6B1B
6BFB
4B7A
DB7E
FB7E
326C
3BED
6E5D
C637
04C3
ENDCHAR
STARTCHAR 2c28
ENCODING 11304
SWIDTH 362 0
DWIDTH 16 0
BBX 16 16 0 -2
BITMAP
0190
19B0
0DA6
7FFE
0DA0
1998
318C
4500
0620
0433
FFFF
0860
1840
03E0
0738
3C0C
ENDCHAR
STARTCHAR 2c29
ENCODING 11305
SWIDTH 362 0
DWIDTH 16 0
BBX 16 16 0 -2
BITMAP
2020
6030
61FF
6B03
FC08
E83C
68E0
6860
4862
D9FF
F860
3060
3861
6C61
C07F
003F
ENDCHAR
STARTCHAR 2c2a
ENCODING 11306
SWIDTH 362 0
DWIDTH 16 0
BBX 16 16 0 -2
BITMAP
20CC
60CC
60C8
68C8
FDFE
E8C8
68C8
68C8
48C8
DBFF
F800
30CC
3886
6D82
C303
0601
ENDCHAR
STARTCHAR 2c2b
ENCODING 11307
SWIDTH 362 0
DWIDTH 16 0
BBX 16 16 0 -2
BITMAP
2000
61EF
60C4
68C4
FCC4
E8C4
68CD
68CC
48C4
D8C4
F884
3184
3984
6D04
C304
0604
ENDCHAR
STARTCHAR 2c2c
ENCODING 11308
SWIDTH 362 0
DWIDTH 16 0
BBX 16 16 0 -2
BITMAP
2030
6020
6046
6883
FDFF
E9C1
6802
68FF
48B2
D89A
F88A
309E
39F2
6DA2
C11E
0206
ENDCHAR
STARTCHAR 2c2d
ENCODING 11309
SWIDTH 362 0
DWIDTH 16 0
BBX 16 16 0 -2
BITMAP
20C0
60C2
60BE
6988
FD88
EB88
6B88
6FFF
4988
D988
F988
3188
3988
6D88
C18E
0100
ENDCHAR
STARTCHAR 2c2e
ENCODING 11310
SWIDTH 362 0
DWIDTH 16 0
BBX 16 16 0 -2
BITMAP
3002
24FE
FE10
6C10
4810
7810
3E33
C630
3010
2410
FE10
6C10
4810
7810
3C10
C410
ENDCHAR
STARTCHAR 2c2f
ENCODING 11311
SWIDTH 362 0
DWIDTH 16 0
BBX 16 16 0 -2
BITMAP
0300
0186
7FFE
3668
366C
6466
4C66
18E0
2040
0FF0
00C0
0182
7FFE
0180
0780
0300
ENDCHAR
STARTCHAR 2c30
ENCODING 11312
SWIDTH 362 0
DWIDTH 16 0
BBX 16 16 0 -2
BITMAP
0180
4083
7FFF
C102
8180
7FFF
0800
1818
301E
6432
0660
03C0
01C0
0778
1C1F
7006
ENDCHAR
STARTCHAR 2c31
ENCODING 11313
SWIDTH 362 0
DWIDTH 16 0
BBX 16 16 0 -2
BITMAP
0180
4083
7FFF
C182
8C80
2C14
6FF6
47E2
0030
0C70
0660
03C0
01C0
0370
0C3E
700C
ENDCHAR
STARTCHAR 2c32
ENCODING 11314
SWIDTH 362 0
DWIDTH 16 0
BBX 16 16 0 -2
BITMAP
0180
4083
7FFF
C002
9FF0
1810
1810
1810
1FF0
0000
3018
300C
3008
3008
3008
3008
ENDCHAR
STARTCHAR 2c33
ENCODING 11315
SWIDTH 362 0
DWIDTH 16 0
BBX 16 16 0 -2
BITMAP
0180
4083
7FFF
C602
87F0
0C70
36C0
0380
0600
1CC8
61FC
0618
19B0
00C0
0700
3C00
ENDCHAR
STARTCHAR 2c34
ENCODING 11316
SWIDTH 362 0
DWIDTH 16 0
BBX 16 16 0 -2
BITMAP
01C0
0180
0D90
1998
118C
2186
4780
0300
1C1C
1818
5858
7A7A
DBDB
9999
7878
1818
ENDCHAR
STARTCHAR 2c35
ENCODING 11317
SWIDTH 362 0
DWIDTH 16 0
BBX 16 16 0 -2
BITMAP
1860
1048
10FC
1198
37FE
3D84
39FE
39E4
39EC
39EE
2962
6B3E
6A1F
4C01
CFFF
87FF
ENDCHAR
STARTCHAR 2c36
ENCODING 11318
SWIDTH 362 0
DWIDTH 16 0
BBX 16 16 0 -2
BITMAP
4004
7FFE
6006
7FFE
60C4
60C0
7FFE
60C0
6FFC
6CCC
4CCC
4DC8
C1F0
C2DE
8CCE
10C0
ENDCHAR
STARTCHAR 2c37
ENCODING 11319
SWIDTH 362 0
DWIDTH 16 0
BBX 16 16 0 -2
BITMAP
2004
7FFE
6006
6006
7FFE
6060
6030
6018
6FFF
6C16
6FF0
4C10
CC10
8FF0
8004
7FFE
ENDCHAR
STARTCHAR 2c38
ENCODING 11320
SWIDTH 362 0
DWIDTH 16 0
BBX 16 16 0 -2
BITMAP
2006
7FFE
6006
7FFE
6310
630C
6606
6FFB
7A18
63F8
6218
43F8
4618
C418
8C78
1830
ENDCHAR
STARTCHAR 2c39
ENCODING 11321
SWIDTH 362 0
DWIDTH 16 0
BBX 16 16 0 -2
BITMAP
2006
7FFE
6006
7FFE
6106
6330
67F8
6E60
73C0
61C0
6664
58FE
431C
C4F0
81E0
0F00
ENDCHAR
STARTCHAR 2c3a
ENCODING 11322
SWIDTH 362 0
DWIDTH 16 0
BBX 16 16 0 -2
BITMAP
3086
30CC
3068
31FF
F430
B430
B432
B5FE
B430
B430
B433
B430
FC30
0030
0030
0030
ENDCHAR
STARTCHAR 2c3b
ENCODING 11323
SWIDTH 362 0
DWIDTH 16 0
BBX 16 16 0 -2
BITMAP
0180
7186
6184
7FFC
0100
0380
0660
0C30
181C
3FFF
C180
0180
1FF8
0180
0182
7FFE
ENDCHAR
STARTCHAR 2c3c
ENCODING 11324
SWIDTH 362 0
DWIDTH 16 0
BBX 16 16 0 -2
BITMAP
0180
7186
6184
7FFC
0180
0380
0660
0C30
19DE
3187
C988
19FC
1980
1980
1986
7FFE
ENDCHAR
STARTCHAR 2c3d
ENCODING 11325
SWIDTH 362 0
DWIDTH 16 0
BBX 16 16 0 -2
BITMAP
0300
0182
7FFE
3668
366C
6466
4C62
09E0
3040
0180
0180
318C
218C
218C
318C
200C
ENDCHAR
STARTCHAR 2c3e
ENCODING 11326
SWIDTH 362 0
DWIDTH 16 0
BBX 16 16 0 -2
BITMAP
3030
3030
3022
31FE
F420
B526
B5AC
B4A8
B422
B7FF
B470
B458
FCC8
018E
0307
0603
ENDCHAR
STARTCHAR 2c3f
ENCODING 11327
SWIDTH 362 0
DWIDTH 16 0
BBX 16 16 0 -2
BITMAP
3030
3034
31FE
3026
F437
B436
B426
B5FC
B420
B5FE
B420
B422
FDFE
0020
0020
0020
ENDCHAR
STARTCHAR 2c40
ENCODING 11328
SWIDTH 362 0
DWIDTH 16 0
BBX 16 16 0 -2
BITMAP
3000
31EF
30C4
30C4
F4C4
B4C4
B4CD
B4CC
B4C4
B4C4
B484
B584
FD84
0104
0304
0604
ENDCHAR
STARTCHAR 2c41
ENCODING 11329
SWIDTH 362 0
DWIDTH 16 0
BBX 16 16 0 -2
BITMAP
2003
33F3
208F
298B
E9EB
A9EB
AB6B
AB6B
AFEB
ACCB
A8CB
A88B
F983
0303
020F
0406
ENDCHAR
STARTCHAR 2c42
ENCODING 11330
SWIDTH 362 0
DWIDTH 16 0
BBX 16 16 0 -2
BITMAP
0180
7186
6184
7FFC
0000
7FFE
6006
6FF6
6006
6066
6FE6
6C66
6FE6
6806
601E
400C
ENDCHAR
STARTCHAR 2c43
ENCODING 11331
SWIDTH 362 0
DWIDTH 16 0
BBX 16 16 0 -2
BITMAP
3060
307C
30CC
3088
F5B6
B436
B436
B7FF
B436
B436
B5FE
B432
FC30
0030
00F0
0060
ENDCHAR
STARTCHAR 2c44
ENCODING 11332
SWIDTH 362 0
DWIDTH 16 0
BBX 16 16 0 -2
BITMAP
0190
19B0
0D30
3FFC
0300
0202
7FFE
0C30
1FFC
303F
E032
0FF0
0C00
0C08
0FF8
07F8
ENDCHAR
STARTCHAR 2c45
ENCODING 11333
SWIDTH 362 0
DWIDTH 16 0
BBX 16 16 0 -2
BITMAP
0604
7E7E
6646
6646
7E7C
6042
6266
7E7E
0000
0003
FFFF
0C00
0C18
180C
3006
C002
ENDCHAR
STARTCHAR 2c46
ENCODING 11334
SWIDTH 362 0
DWIDTH 16 0
BBX 16 16 0 -2
BITMAP
3002
31FF
3030
FC20
B5E6
B583
B582
B582
B582
B5FE
BD82
BD82
3182
3182
31FE
3102
ENDCHAR
STARTCHAR 2c47
ENCODING 11335
SWIDTH 362 0
DWIDTH 16 0
BBX 16 16 0 -2
BITMAP
30C0
30C0
3082
FDFF
B503
B693
B4FB
B49B
B4FB
B49B
BCDB
B8D3
3003
3006
301E
300C
ENDCHAR
STARTCHAR 2c48
ENCODING 11336
SWIDTH 362 0
DWIDTH 16 0
BBX 16 16 0 -2
BITMAP
0180
6083
7FFF
6080
60C0
7FFF
6080
61C6
634C
6638
6E30
7A18
420C
42C6
C383
8301
ENDCHAR
STARTCHAR 2c49
ENCODING 11337
SWIDTH 362 0
DWIDTH 16 0
BBX 16 16 0 -2
BITMAP
0180
6083
7FFF
60C8
67FC
60CC
7FFF
60C8
67F8
60C0
67F8
60C0
5FFE
40C0
C0C0
80C0
ENDCHAR
STARTCHAR 2c4a
ENCODING 11338
SWIDTH 362 0
DWIDTH 16 0
BBX 16 16 0 -2
BITMAP
0180
6083
7FFF
6008
67FC
640C
6408
6408
6408
67FC
6446
646C
4430
459C
C70F
8402
ENDCHAR
STARTCHAR 2c4b
ENCODING 11339
SWIDTH 362 0
DWIDTH 16 0
BBX 16 16 0 -2
BITMAP
0002
13FF
7858
1858
33FE
335E
7B5E
6FDE
0B8E
5B86
5B06
33FE
3306
3800
6FFF
C3FC
ENDCHAR
STARTCHAR 2c4c
ENCODING 11340
SWIDTH 362 0
DWIDTH 16 0
BBX 16 16 0 -2
BITMAP
0000
13FF
7B03
1B02
337A
335A
7B5A
6F5A
0B7A
5B42
5B02
33FE
3302
3800
6FFF
C3FC
ENDCHAR
STARTCHAR 2c4d
ENCODING 11341
SWIDTH 362 0
DWIDTH 16 0
BBX 16 16 0 -2
BITMAP
0300
0182
7FFE
3668
366C
6466
4DE6
18C0
3018
0018
3FF8
3004
3FFE
000C
007C
0018
ENDCHAR
STARTCHAR 2c4e
ENCODING 11342
SWIDTH 362 0
DWIDTH 16 0
BBX 16 16 0 -2
BITMAP
0604
7E7E
0606
7E7C
62C6
4346
0206
1E3C
0C1C
0003
FFFF
0C00
0C18
180C
3006
C002
ENDCHAR
STARTCHAR 2c4f
ENCODING 11343
SWIDTH 362 0
DWIDTH 16 0
BBX 16 16 0 -2
BITMAP
0802
7DFF
0810
0830
49E6
6983
4182
C182
FD82
0DFE
0D82
0D82
0982
1982
79FE
3182
ENDCHAR
STARTCHAR 2c50
ENCODING 11344
SWIDTH 362 0
DWIDTH 16 0
BBX 16 16 0 -2
BITMAP
0180
0084
3FFC
0630
0220
3FFF
2000
2018
20F0
278C
2C3C
60E0
670E
403C
C1E0
9F00
ENDCHAR
STARTCHAR 2c51
ENCODING 11345
SWIDTH 362 0
DWIDTH 16 0
BBX 16 16 0 -2
BITMAP
0002
7BC6
3104
3108
3130
3102
3346
330C
3118
3130
2123
6102
6104
4108
C110
8160
ENDCHAR
STARTCHAR 2c52
ENCODING 11346
SWIDTH 362 0
DWIDTH 16 0
BBX 16 16 0 -2
BITMAP
3023
37E3
624B
424F
D24B
B24B
224B
67FB
E24B
E24B
624B
664B
6643
6443
6C4F
6842
ENDCHAR
STARTCHAR 2c53
ENCODING 11347
SWIDTH 362 0
DWIDTH 16 0
BBX 16 16 0 -2
BITMAP
1830
1830
3020
23FF
5820
1820
3020
61FE
6000
A006
23FE
2306
2306
2306
23FE
2302
ENDCHAR
STARTCHAR 2c54
ENCODING 11348
SWIDTH 362 0
DWIDTH 16 0
BBX 16 16 0 -2
BITMAP
3010
3014
2016
3010
3FFF
B810
A018
A3F8
2198
2198
2188
21ED
278D
2207
2007
2003
ENDCHAR
STARTCHAR 2c55
ENCODING 11349
SWIDTH 362 0
DWIDTH 16 0
BBX 16 16 0 -2
BITMAP
30CC
30CC
2088
3088
3BFE
B888
A088
A088
2088
27FF
2000
20CC
2186
2302
2303
2601
ENDCHAR
STARTCHAR 2c56
ENCODING 11350
SWIDTH 362 0
DWIDTH 16 0
BBX 16 16 0 -2
BITMAP
3002
33FF
2060
30C0
3884
B906
A3FF
A331
2030
2030
21FE
2030
2030
2030
2033
2000
ENDCHAR
STARTCHAR 2c57
ENCODING 11351
SWIDTH 362 0
DWIDTH 16 0
BBX 16 16 0 -2
BITMAP
31C0
3198
21F8
3310
3B32
BF00
A34C
A34C
2344
2344
234C
235C
2249
2641
247F
207F
ENDCHAR
STARTCHAR 2c58
ENCODING 11352
SWIDTH 362 0
DWIDTH 16 0
BBX 16 16 0 -2
BITMAP
1008
1FFC
1008
1FC8
1048
1048
1FC8
1008
1FF8
1008
0980
0CC0
4816
CC13
CFF1
07F0
ENDCHAR
STARTCHAR 2c59
ENCODING 11353
SWIDTH 362 0
DWIDTH 16 0
BBX 16 16 0 -2
BITMAP
0180
0180
018C
0180
0180
1FF8
1818
1818
1818
1FF8
0000
0D80
4CCC
4C13
CFF3
87F1
ENDCHAR
STARTCHAR 2c5a
ENCODING 11354
SWIDTH 362 0
DWIDTH 16 0
BBX 16 16 0 -2
BITMAP
0980
1980
1998
3180
2180
FFFF
0340
0630
0C0F
7007
8980
0CC0
4816
CC13
CFF1
07F0
ENDCHAR
STARTCHAR 2c5b
ENCODING 11355
SWIDTH 362 0
DWIDTH 16 0
BBX 16 16 0 -2
BITMAP
0C00
0C00
0FFC
1B64
3364
6764
05C4
08E4
313C
0638
0980
0CC0
4816
CC13
CFF1
07F0
ENDCHAR
STARTCHAR 2c5c
ENCODING 11356
SWIDTH 362 0
DWIDTH 16 0
BBX 16 16 0 -2
BITMAP
3060
3030
23FF
300C
3888
BA5B
A27B
A233
223B
227B
226F
22CF
2383
2203
23FF
2202
ENDCHAR
STARTCHAR 2c5d
ENCODING 11357
SWIDTH 362 0
DWIDTH 16 0
BBX 16 16 0 -2
BITMAP
3000
31FF
2000
3104
39FE
B986
A186
A186
21FE
2186
2186
21FE
2184
2000
2003
2000
ENDCHAR
STARTCHAR 2c5e
ENCODING 11358
SWIDTH 362 0
DWIDTH 16 0
BBX 16 16 0 -2
BITMAP
3070
3060
2064
33FE
3860
B860
A062
A070
2060
2060
2066
2060
2060
2060
2063
2000
ENDCHAR
STARTCHAR 2c5f
ENCODING 11359
SWIDTH 362 0
DWIDTH 16 0
BBX 16 16 0 -2
BITMAP
3060
3040
27FF
30C0
3890
B998
A198
A318
237E
2718
2518
2118
2118
2118
21FF
2100
ENDCHAR
STARTCHAR 2c60
ENCODING 11360
SWIDTH 362 0
DWIDTH 16 0
BBX 16 16 0 -2
BITMAP
7060
6044
63FE
60C6
70C6
F884
E13C
E618
6608
66DB
6FDF
66DB
66DB
64D3
6FBE
79E6
ENDCHAR
STARTCHAR 2c61
ENCODING 11361
SWIDTH 362 0
DWIDTH 16 0
BBX 16 16 0 -2
BITMAP
3106
30FC
207C
31CE
3A42
B860
A0C3
A0C0
20D0
2090
21B0
2120
2364
26C2
2CFF
20C3
ENDCHAR
STARTCHAR 2c62
ENCODING 11362
SWIDTH 362 0
DWIDTH 16 0
BBX 16 16 0 -2
BITMAP
7180
6182
637E
6318
7218
FE18
EE18
EBFF
6218
6218
6218
6218
6218
6218
621A
6200
ENDCHAR
STARTCHAR 2c63
ENCODING 11363
SWIDTH 362 0
DWIDTH 16 0
BBX 16 16 0 -2
BITMAP
1830
183C
1836
1B32
1F30
18FF
1830
1833
DE36
C316
C21C
C218
C21D
C23D
FE67
C183
ENDCHAR
STARTCHAR 2c64
ENCODING 11364
SWIDTH 362 0
DWIDTH 16 0
BBX 16 16 0 -2
BITMAP
20F8
3F00
3006
3006
2006
3FFE
2004
2002
27FE
2466
2466
67FE
6466
4466
C7FE
8402
ENDCHAR
STARTCHAR 2c65
ENCODING 11365
SWIDTH 362 0
DWIDTH 16 0
BBX 16 16 0 -2
BITMAP
3070
3060
306F
3063
7866
306C
33FF
3830
7060
F0C0
31FE
3340
3640
3040
707F
207F
ENDCHAR
STARTCHAR 2c66
ENCODING 11366
SWIDTH 362 0
DWIDTH 16 0
BBX 16 16 0 -2
BITMAP
3030
31B0
31B0
31FE
7930
3330
3230
39FF
7070
F078
30FC
30F6
31B7
3333
7630
2030
ENDCHAR
STARTCHAR 2c67
ENCODING 11367
SWIDTH 362 0
DWIDTH 16 0
BBX 16 16 0 -2
BITMAP
3030
31B0
31A0
31A4
79FE
3320
3220
3822
73FE
F058
30D8
30D8
3099
3199
731F
260F
ENDCHAR
STARTCHAR 2c68
ENCODING 11368
SWIDTH 362 0
DWIDTH 16 0
BBX 16 16 0 -2
BITMAP
30C0
30C8
31FC
3118
7B33
3300
3346
3B46
7346
F346
334E
324C
3241
3641
767F
247F
ENDCHAR
STARTCHAR 2c69
ENCODING 11369
SWIDTH 362 0
DWIDTH 16 0
BBX 16 16 0 -2
BITMAP
3180
3180
3102
33FF
7A02
3732
31FA
3992
71F2
F192
31B2
31B2
3006
3006
703C
2008
ENDCHAR
STARTCHAR 2c6a
ENCODING 11370
SWIDTH 362 0
DWIDTH 16 0
BBX 16 16 0 -2
BITMAP
3060
30E2
338F
3303
7B02
3302
3302
3B02
73CE
F302
3302
3302
3302
33FE
7302
2000
ENDCHAR
STARTCHAR 2c6b
ENCODING 11371
SWIDTH 362 0
DWIDTH 16 0
BBX 16 16 0 -2
BITMAP
3030
3030
3022
33FF
7820
3126
31AC
38A8
7020
F3FF
3070
3048
30CC
3186
7303
2601
ENDCHAR
STARTCHAR 2c6c
ENCODING 11372
SWIDTH 362 0
DWIDTH 16 0
BBX 16 16 0 -2
BITMAP
3030
3030
33FF
3020
79FE
3026
3136
3936
7322
F3FF
3073
3077
30DE
308E
7307
2602
ENDCHAR
STARTCHAR 2c6d
ENCODING 11373
SWIDTH 362 0
DWIDTH 16 0
BBX 16 16 0 -2
BITMAP
3002
33FF
3058
3058
7ADE
33DB
325A
3A5A
72DA
F2DA
339E
3302
3202
3202
73FE
2202
ENDCHAR
STARTCHAR 2c6e
ENCODING 11374
SWIDTH 362 0
DWIDTH 16 0
BBX 16 16 0 -2
BITMAP
3030
3237
3326
31A4
79AC
30AA
31FF
3802
7002
F002
31FE
3002
3002
3002
7002
2002
ENDCHAR
STARTCHAR 2c6f
ENCODING 11375
SWIDTH 362 0
DWIDTH 16 0
BBX 16 16 0 -2
BITMAP
3030
3030
3327
3126
79AC
30A8
3022
3BFF
70D8
F0D8
3098
3198
3198
3119
731F
260F
ENDCHAR
STARTCHAR 2c70
ENCODING 11376
SWIDTH 362 0
DWIDTH 16 0
BBX 16 16 0 -2
BITMAP
3004
31FE
304C
304F
78C3
30C3
3186
3B0E
7630
F030
33FF
30B0
31B6
3333
7633
2030
ENDCHAR
STARTCHAR 2c71
ENCODING 11377
SWIDTH 362 0
DWIDTH 16 0
BBX 16 16 0 -2
BITMAP
301E
31F8
3100
3100
7903
3100
3100
3900
717E
F146
3346
3346
3246
3646
747E
2042
ENDCHAR
STARTCHAR 2c72
ENCODING 11378
SWIDTH 362 0
DWIDTH 16 0
BBX 16 16 0 -2
BITMAP
0030
6030
2030
0DFF
FC30
0C30
8836
58C6
5846
784C
706C
3C38
F038
C07C
00C7
0702
ENDCHAR
STARTCHAR 2c73
ENCODING 11379
SWIDTH 362 0
DWIDTH 16 0
BBX 16 16 0 -2
BITMAP
0470
7E60
0C60
3840
10FF
FFC4
3FCC
3C4C
386C
5828
D838
9838
1838
186E
78C7
3382
ENDCHAR
STARTCHAR 2c74
ENCODING 11380
SWIDTH 362 0
DWIDTH 16 0
BBX 16 16 0 -2
BITMAP
1060
3040
20C0
FCC2
CCFF
CD8C
CD8C
CCC8
FC58
CC58
CC70
CC30
FC78
C8CC
0187
0702
ENDCHAR
STARTCHAR 2c75
ENCODING 11381
SWIDTH 362 0
DWIDTH 16 0
BBX 16 16 0 -2
BITMAP
0006
0180
7FFC
6384
6664
6C24
619C
2188
01F8
0180
1FF0
0430
03C0
01C0
0670
783C
ENDCHAR
STARTCHAR 2c76
ENCODING 11382
SWIDTH 362 0
DWIDTH 16 0
BBX 16 16 0 -2
BITMAP
3030
3030
6130
7FA0
C17F
8966
7DE6
6DA4
693C
693C
7918
6918
031C
0336
1E67
0DC3
ENDCHAR
STARTCHAR 2c77
ENCODING 11383
SWIDTH 362 0
DWIDTH 16 0
BBX 16 16 0 -2
BITMAP
20C0
30C0
3186
FFB0
2110
2312
3DFF
2D92
6D92
6D92
6D92
4D92
CD9E
CD96
B810
1810
ENDCHAR
STARTCHAR 2c78
ENCODING 11384
SWIDTH 362 0
DWIDTH 16 0
BBX 16 16 0 -2
BITMAP
0030
0030
FB27
D9A6
D9AC
D820
D9FE
F820
D820
D823
DBFF
D820
F820
8020
0020
0020
ENDCHAR
STARTCHAR 2c79
ENCODING 11385
SWIDTH 362 0
DWIDTH 16 0
BBX 16 16 0 -2
BITMAP
0030
0030
F820
DBFF
D820
D820
D822
F9FE
D870
D870
D8F8
D9AC
F927
8227
0420
0020
ENDCHAR
STARTCHAR 2c7a
ENCODING 11386
SWIDTH 362 0
DWIDTH 16 0
BBX 16 16 0 -2
BITMAP
0002
03FF
F900
D900
D900
D9FE
D906
F906
D906
D906
D9FE
D900
F900
8100
0303
0000
ENDCHAR
STARTCHAR 2c7b
ENCODING 11387
SWIDTH 362 0
DWIDTH 16 0
BBX 16 16 0 -2
BITMAP
000E
03F8
FB30
DB30
DB30
DB30
DBFF
FB30
DB10
DB18
DB18
DB08
FB4D
83C7
030B
0001
ENDCHAR
STARTCHAR 2c7c
ENCODING 11388
SWIDTH 362 0
DWIDTH 16 0
BBX 16 16 0 -2
BITMAP
0070
0060
F870
D8D8
D88C
D907
DB33
FC60
D8DC
D938
D860
D9CE
F81C
8030
00E0
0700
ENDCHAR
STARTCHAR 2c7d
ENCODING 11389
SWIDTH 362 0
DWIDTH 16 0
BBX 16 16 0 -2
BITMAP
2018
600C
6008
7FF8
6180
7FFE
60C0
6361
7C39
201F
1FFF
1818
1FF8
1818
1FF8
1010
ENDCHAR
STARTCHAR 2c7e
ENCODING 11390
SWIDTH 362 0
DWIDTH 16 0
BBX 16 16 0 -2
BITMAP
0180
0182
7FFF
4384
33CC
1E70
0C30
181F
3007
DFF8
1818
1818
1FF8
1818
1FF8
1010
ENDCHAR
STARTCHAR 2d21
ENCODING 11553
SWIDTH 362 0
DWIDTH 16 0
BBX 16 16 0 -2
BITMAP
1008
1FFC
1008
1FF8
1008
1FF8
0008
7FFE
0180
0180
1980
11FC
1180
1180
3183
0000
ENDCHAR
STARTCHAR 2d22
ENCODING 11554
SWIDTH 362 0
DWIDTH 16 0
BBX 16 16 0 -2
BITMAP
1018
1FF8
1018
1FF8
1018
1FF8
0000
007E
7E46
1846
1846
1846
1846
FC4E
E040
0040
ENDCHAR
STARTCHAR 2d23
ENCODING 11555
SWIDTH 362 0
DWIDTH 16 0
BBX 16 16 0 -2
BITMAP
0002
03FF
F830
D830
DB33
DB33
DB33
FB2B
DB6F
DB47
DB87
DB03
FB03
8303
030F
0306
ENDCHAR
STARTCHAR 2d24
ENCODING 11556
SWIDTH 362 0
DWIDTH 16 0
BBX 16 16 0 -2
BITMAP
1010
1FF8
1818
1818
1FF8
1818
1818
1810
0000
3FFC
364C
3648
3648
3648
364A
FFFF
ENDCHAR
STARTCHAR 2d25
ENCODING 11557
SWIDTH 362 0
DWIDTH 16 0
BBX 16 16 0 -2
BITMAP
00C0
00C0
F9FC
D98C
DBCC
DA58
D870
F830
D85C
D88F
DB77
DE18
F800
8060
0038
0018
ENDCHAR
STARTCHAR 2d26
ENCODING 11558
SWIDTH 362 0
DWIDTH 16 0
BBX 16 16 0 -2
BITMAP
1018
1018
1FF8
1018
1FF8
0C00
0FF0
1C30
33E0
41C0
0770
1D9F
70C6
0200
0180
00C0
ENDCHAR
STARTCHAR 2d27
ENCODING 11559
SWIDTH 362 0
DWIDTH 16 0
BBX 16 16 0 -2
BITMAP
4830
7C70
6870
68C8
68CC
6986
6B1B
6E01
6804
69FE
480C
4888
C8F0
C870
B830
9818
ENDCHAR
STARTCHAR 2d28
ENCODING 11560
SWIDTH 362 0
DWIDTH 16 0
BBX 16 16 0 -2
BITMAP
3030
3030
3034
7DFE
3030
3030
7832
7DFF
7030
F078
B0FC
30B4
3137
3233
3430
3030
ENDCHAR
STARTCHAR 2d29
ENCODING 11561
SWIDTH 362 0
DWIDTH 16 0
BBX 16 16 0 -2
BITMAP
3030
3030
3020
7C24
31FE
3020
7820
7C23
73FF
F040
B0C0
30C4
3186
311F
33E3
3101
ENDCHAR
STARTCHAR 2d2a
ENCODING 11562
SWIDTH 362 0
DWIDTH 16 0
BBX 16 16 0 -2
BITMAP
3070
3060
3063
7CF8
30D0
3092
79FF
7D93
7392
F792
B592
3192
3196
319E
3014
3010
ENDCHAR
STARTCHAR 2d2b
ENCODING 11563
SWIDTH 362 0
DWIDTH 16 0
BBX 16 16 0 -2
BITMAP
3002
31FF
3062
7C62
3042
30C2
789E
7D8C
7300
F3FE
B186
3186
3186
3186
31FE
3102
ENDCHAR
STARTCHAR 2d2c
ENCODING 11564
SWIDTH 362 0
DWIDTH 16 0
BBX 16 16 0 -2
BITMAP
3104
31FE
3186
7D86
3186
3186
79FE
7D80
7182
F1FF
B182
3182
3182
3182
31FE
3102
ENDCHAR
STARTCHAR 2d2d
ENCODING 11565
SWIDTH 362 0
DWIDTH 16 0
BBX 16 16 0 -2
BITMAP
300C
3078
31B0
7C30
3032
31FF
7830
7C78
7078
F0FC
B0B6
31B7
3333
3630
3030
3030
ENDCHAR
STARTCHAR 2d2e
ENCODING 11566
SWIDTH 362 0
DWIDTH 16 0
BBX 16 16 0 -2
BITMAP
11B0
1930
1932
FFFF
1930
19F0
1930
180C
1FFC
0180
0183
0180
0D90
198C
3186
4102
ENDCHAR
STARTCHAR 2d2f
ENCODING 11567
SWIDTH 362 0
DWIDTH 16 0
BBX 16 16 0 -2
BITMAP
0180
0180
3FFC
0180
0DB0
0C30
0C36
0C30
0830
09A0
0183
0180
0DB0
199C
3186
4102
ENDCHAR
STARTCHAR 2d30
ENCODING 11568
SWIDTH 362 0
DWIDTH 16 0
BBX 16 16 0 -2
BITMAP
3030
3030
3036
7C30
3030
31B6
7984
7D84
758D
F18C
B184
3184
3184
3304
3304
3604
ENDCHAR
STARTCHAR 2d31
ENCODING 11569
SWIDTH 362 0
DWIDTH 16 0
BBX 16 16 0 -2
BITMAP
3004
31FE
300C
FC48
3030
3033
7BFF
7C72
7070
F0F0
B0B0
B1B0
3330
3430
30F0
3060
ENDCHAR
STARTCHAR 2d32
ENCODING 11570
SWIDTH 362 0
DWIDTH 16 0
BBX 16 16 0 -2
BITMAP
3000
33FF
3030
7C30
3030
3130
79B0
7DBE
71B0
F1B0
B1B0
31B0
31B0
31B0
31B3
3000
ENDCHAR
STARTCHAR 2d33
ENCODING 11571
SWIDTH 362 0
DWIDTH 16 0
BBX 16 16 0 -2
BITMAP
0C30
0C30
FFFF
0830
0830
7FFF
C006
C184
0186
7FFE
0180
0DB0
199C
3186
6182
0100
ENDCHAR
STARTCHAR 2d34
ENCODING 11572
SWIDTH 362 0
DWIDTH 16 0
BBX 16 16 0 -2
BITMAP
0180
0180
0186
03C0
07E0
0DB8
198E
71B3
9FF8
1810
1FF0
1810
1830
1830
1812
FFFF
ENDCHAR
STARTCHAR 2d35
ENCODING 11573
SWIDTH 362 0
DWIDTH 16 0
BBX 16 16 0 -2
BITMAP
3006
31FE
3186
7D86
3186
31FE
7830
7C20
71FF
F063
B063
3043
30C3
3083
311E
360C
ENDCHAR
STARTCHAR 2d36
ENCODING 11574
SWIDTH 362 0
DWIDTH 16 0
BBX 16 16 0 -2
BITMAP
3030
3020
3060
7C40
30C4
3182
799F
7FE3
7101
F1FE
B186
3186
3186
3186
31FE
3182
ENDCHAR
STARTCHAR 2d37
ENCODING 11575
SWIDTH 362 0
DWIDTH 16 0
BBX 16 16 0 -2
BITMAP
3100
3190
211F
7B5B
23FB
637B
727B
7F5B
EDDB
A8DB
209B
219F
231E
2318
2618
2C10
ENDCHAR
STARTCHAR 2d38
ENCODING 11576
SWIDTH 362 0
DWIDTH 16 0
BBX 16 16 0 -2
BITMAP
3002
31FF
317A
7D7A
317A
317A
797A
7FFF
717A
F17A
B17A
337A
337A
327A
327A
34CE
ENDCHAR
STARTCHAR 2d39
ENCODING 11577
SWIDTH 362 0
DWIDTH 16 0
BBX 16 16 0 -2
BITMAP
301E
33F0
3300
7F02
33FE
3304
7B7E
7F46
7346
F346
B34E
325C
3641
3641
347F
307F
ENDCHAR
STARTCHAR 2d3a
ENCODING 11578
SWIDTH 362 0
DWIDTH 16 0
BBX 16 16 0 -2
BITMAP
3010
3048
30CC
7CC4
3186
3103
7A03
7C04
71FE
F186
B186
3186
3186
3186
31FE
3080
ENDCHAR
STARTCHAR 2d3b
ENCODING 11579
SWIDTH 362 0
DWIDTH 16 0
BBX 16 16 0 -2
BITMAP
0002
7FFF
0800
1FFC
380C
780C
D80C
1FFC
180C
0180
0183
0180
0D90
198C
3186
4102
ENDCHAR
STARTCHAR 2d3c
ENCODING 11580
SWIDTH 362 0
DWIDTH 16 0
BBX 16 16 0 -2
BITMAP
1C30
1830
5B20
5B62
5B7F
5B5E
DB58
5B18
1818
D998
D91C
D934
D924
D966
FF43
0081
ENDCHAR
STARTCHAR 2d3d
ENCODING 11581
SWIDTH 362 0
DWIDTH 16 0
BBX 16 16 0 -2
BITMAP
1802
19FF
1980
1980
5980
59FE
5F86
5986
5986
5986
59FE
5F80
F180
C180
0183
0000
ENDCHAR
STARTCHAR 2d3e
ENCODING 11582
SWIDTH 362 0
DWIDTH 16 0
BBX 16 16 0 -2
BITMAP
00C0
00C0
1C80
18FC
1880
1883
FFFF
FFFF
0018
3F18
3118
3118
3F18
3118
0078
0030
ENDCHAR
STARTCHAR 2d3f
ENCODING 11583
SWIDTH 362 0
DWIDTH 16 0
BBX 16 16 0 -2
BITMAP
0040
FC60
6020
69FF
7C04
4C06
C904
D98C
B98C
1888
30C8
30D8
60D8
4050
8003
0000
ENDCHAR
STARTCHAR 2d40
ENCODING 11584
SWIDTH 362 0
DWIDTH 16 0
BBX 16 16 0 -2
BITMAP
0030
FC30
6030
6830
7C33
4C30
C830
D830
B936
19FE
3186
3186
6186
4186
81FE
0102
ENDCHAR
STARTCHAR 2d41
ENCODING 11585
SWIDTH 362 0
DWIDTH 16 0
BBX 16 16 0 -2
BITMAP
0030
FC30
6030
69FF
7D33
4D36
4930
D9FE
B946
194C
336C
3338
6238
463C
84E7
0B82
ENDCHAR
STARTCHAR 2d42
ENCODING 11586
SWIDTH 362 0
DWIDTH 16 0
BBX 16 16 0 -2
BITMAP
0030
1C30
7820
303E
3020
7C20
313C
318C
3584
FD84
3184
31FD
3101
3003
3FFF
0FFE
ENDCHAR
STARTCHAR 2d43
ENCODING 11587
SWIDTH 362 0
DWIDTH 16 0
BBX 16 16 0 -2
BITMAP
300E
3078
6110
7F90
C110
897E
7D10
6D10
6910
697F
7910
6910
0310
0311
1E1F
0C1F
ENDCHAR
STARTCHAR 2d44
ENCODING 11588
SWIDTH 362 0
DWIDTH 16 0
BBX 16 16 0 -2
BITMAP
2040
3020
1033
0060
8860
4860
78E3
10B6
319C
3398
6398
E58C
618C
61B7
61C3
2080
ENDCHAR
STARTCHAR 2d45
ENCODING 11589
SWIDTH 362 0
DWIDTH 16 0
BBX 16 16 0 -2
BITMAP
2030
3030
1326
01A4
89A8
4820
7BFF
1020
30A0
31A4
61A6
E122
6323
6223
6020
2020
ENDCHAR
STARTCHAR 2d46
ENCODING 11590
SWIDTH 362 0
DWIDTH 16 0
BBX 16 16 0 -2
BITMAP
2104
31FE
1104
0104
89FC
4904
7904
11FC
3140
3146
612E
E138
6118
617E
61C7
2102
ENDCHAR
STARTCHAR 2d47
ENCODING 11591
SWIDTH 362 0
DWIDTH 16 0
BBX 16 16 0 -2
BITMAP
2030
3030
1033
0030
8820
4822
79FE
100C
300F
300C
6188
E0C8
6008
6008
6078
2018
ENDCHAR
STARTCHAR 2d48
ENCODING 11592
SWIDTH 362 0
DWIDTH 16 0
BBX 16 16 0 -2
BITMAP
2002
33FF
1020
0026
8BFE
4B26
7B26
13FE
3326
3326
67FF
E306
6306
6306
631E
230C
ENDCHAR
STARTCHAR 2d49
ENCODING 11593
SWIDTH 362 0
DWIDTH 16 0
BBX 16 16 0 -2
BITMAP
2030
3030
13FF
0020
8B36
4B36
7B26
1326
3326
3366
6070
E0F8
61AE
6327
6420
2020
ENDCHAR
STARTCHAR 2d4a
ENCODING 11594
SWIDTH 362 0
DWIDTH 16 0
BBX 16 16 0 -2
BITMAP
2004
33FE
1018
0030
8820
48A6
7FF8
10B0
31B8
312C
6327
E227
6460
60E0
6043
2000
ENDCHAR
STARTCHAR 2d4b
ENCODING 11595
SWIDTH 362 0
DWIDTH 16 0
BBX 16 16 0 -2
BITMAP
2030
303C
107C
01A0
8824
49FE
7820
1022
33FE
3070
60F8
E0AC
6127
6223
6C20
2020
ENDCHAR
STARTCHAR 2d4c
ENCODING 11596
SWIDTH 362 0
DWIDTH 16 0
BBX 16 16 0 -2
BITMAP
419C
2198
0318
035B
8A7F
D65B
565B
1A5B
325B
227F
625B
E218
6218
6218
6218
2218
ENDCHAR
STARTCHAR 2d4d
ENCODING 11597
SWIDTH 362 0
DWIDTH 16 0
BBX 16 16 0 -2
BITMAP
2010
3048
10CC
0084
8987
4B07
7FFE
11C4
31BC
318C
618C
E1FC
6164
6304
633C
2608
ENDCHAR
STARTCHAR 2d4e
ENCODING 11598
SWIDTH 362 0
DWIDTH 16 0
BBX 16 16 0 -2
BITMAP
01C0
0180
0F9C
0FF0
0DA0
1998
318F
C784
0100
FFFF
0C00
1FFC
380C
780C
980C
180C
ENDCHAR
STARTCHAR 2d4f
ENCODING 11599
SWIDTH 362 0
DWIDTH 16 0
BBX 16 16 0 -2
BITMAP
01C0
0180
0F9C
0FF0
0DA0
0990
118C
2187
C782
0100
3018
36CC
3648
3648
364A
FFFF
ENDCHAR
STARTCHAR 2d50
ENCODING 11600
SWIDTH 362 0
DWIDTH 16 0
BBX 16 16 0 -2
BITMAP
2060
3020
1033
00D8
8858
4858
79DC
115A
335B
32DB
66D9
E4D8
6098
6198
6378
2230
ENDCHAR
STARTCHAR 2d51
ENCODING 11601
SWIDTH 362 0
DWIDTH 16 0
BBX 16 16 0 -2
BITMAP
2060
3068
1068
03FE
8860
4864
79FE
1060
37FF
3064
6026
E03C
6038
607D
61CF
2303
ENDCHAR
STARTCHAR 2d52
ENCODING 11602
SWIDTH 362 0
DWIDTH 16 0
BBX 16 16 0 -2
BITMAP
2000
33DF
1184
0184
8984
4984
798D
118C
3184
3184
6184
E104
6304
6304
6604
2C04
ENDCHAR
STARTCHAR 2d53
ENCODING 11603
SWIDTH 362 0
DWIDTH 16 0
BBX 16 16 0 -2
BITMAP
2002
33FF
1030
0060
8BC6
4B06
7B06
1306
3306
33FE
6306
E306
6306
6306
63FE
2302
ENDCHAR
STARTCHAR 2d54
ENCODING 11604
SWIDTH 362 0
DWIDTH 16 0
BBX 16 16 0 -2
BITMAP
2060
3060
10C4
0186
8B1F
4BC3
7907
11FE
3186
31BE
618E
E19E
61F6
6346
631E
260C
ENDCHAR
STARTCHAR 2d55
ENCODING 11605
SWIDTH 362 0
DWIDTH 16 0
BBX 16 16 0 -2
BITMAP
20C0
30FC
1198
0310
8A3E
4866
7866
17FF
3066
3066
63FE
E064
6060
6060
61E0
20C0
ENDCHAR
STARTCHAR 2d56
ENCODING 11606
SWIDTH 362 0
DWIDTH 16 0
BBX 16 16 0 -2
BITMAP
4180
2182
037E
0318
8A18
D618
5618
1A7F
3218
2218
6218
E218
6218
6218
621B
2200
ENDCHAR
STARTCHAR 2d57
ENCODING 11607
SWIDTH 362 0
DWIDTH 16 0
BBX 16 16 0 -2
BITMAP
2020
3070
1070
00C8
888C
4987
7B07
17FC
3020
3020
6024
E1FC
6020
6020
6022
23FF
ENDCHAR
STARTCHAR 2d58
ENCODING 11608
SWIDTH 362 0
DWIDTH 16 0
BBX 16 16 0 -2
BITMAP
3058
3058
30DE
30DE
BC5E
F85E
73FE
3358
325A
33FF
30DB
78DB
6C9B
4D9E
C318
8C10
ENDCHAR
STARTCHAR 2d59
ENCODING 11609
SWIDTH 362 0
DWIDTH 16 0
BBX 16 16 0 -2
BITMAP
3030
3030
3030
31FF
BC30
F830
7032
31FF
3030
3078
30FC
78FC
69B7
4333
C630
8030
ENDCHAR
STARTCHAR 2d5a
ENCODING 11610
SWIDTH 362 0
DWIDTH 16 0
BBX 16 16 0 -2
BITMAP
3000
33FF
3006
3006
BD66
F936
7126
3126
3126
31E6
3126
7806
6C06
4C06
C03E
800C
ENDCHAR
STARTCHAR 2d5b
ENCODING 11611
SWIDTH 362 0
DWIDTH 16 0
BBX 16 16 0 -2
BITMAP
30C6
30C4
3084
3084
BFFF
F884
7084
3084
3084
30FC
3084
7884
6C84
4C84
C0FC
8084
ENDCHAR
STARTCHAR 2d5c
ENCODING 11612
SWIDTH 362 0
DWIDTH 16 0
BBX 16 16 0 -2
BITMAP
3030
3028
3024
3020
BDFE
F820
71AC
31AC
31AC
31AC
31AC
79AC
6D2C
4F27
C620
8020
ENDCHAR
STARTCHAR 2d5d
ENCODING 11613
SWIDTH 362 0
DWIDTH 16 0
BBX 16 16 0 -2
BITMAP
3000
31FF
3060
3060
BC60
F840
70C0
30FE
30C6
31C6
33C6
7AC6
6CC6
4CC6
C0FE
8080
ENDCHAR
STARTCHAR 2d5e
ENCODING 11614
SWIDTH 362 0
DWIDTH 16 0
BBX 16 16 0 -2
BITMAP
3102
31FF
3132
3132
BD32
F9FE
7132
3132
3132
31FE
3132
7830
6C30
4C30
C030
8030
ENDCHAR
STARTCHAR 2d5f
ENCODING 11615
SWIDTH 362 0
DWIDTH 16 0
BBX 16 16 0 -2
BITMAP
3030
3030
31B7
31B6
BDB6
F9B6
71B6
31FE
3030
3032
31B3
7932
6D32
4D32
C332
8102
ENDCHAR
STARTCHAR 2d60
ENCODING 11616
SWIDTH 362 0
DWIDTH 16 0
BBX 16 16 0 -2
BITMAP
3060
33C3
337F
337B
BF7B
FB7B
737B
337B
337B
33FB
33DB
7B5F
6CDE
4C98
C118
8618
ENDCHAR
STARTCHAR 2d61
ENCODING 11617
SWIDTH 362 0
DWIDTH 16 0
BBX 16 16 0 -2
BITMAP
0002
7FFF
218C
638C
63C4
6664
682C
601C
0180
0118
1B38
0FE0
0660
0C38
381F
6006
ENDCHAR
STARTCHAR 2d62
ENCODING 11618
SWIDTH 362 0
DWIDTH 16 0
BBX 16 16 0 -2
BITMAP
3020
3030
31FF
3303
BC04
F8C0
7080
3084
309E
30F0
3080
7880
6C81
4C83
C0FF
807E
ENDCHAR
STARTCHAR 2d63
ENCODING 11619
SWIDTH 362 0
DWIDTH 16 0
BBX 16 16 0 -2
BITMAP
3030
3030
3030
3033
BC3F
F830
7030
3030
3136
3103
3102
7902
6D02
4D02
C1FE
8102
ENDCHAR
STARTCHAR 2d64
ENCODING 11620
SWIDTH 362 0
DWIDTH 16 0
BBX 16 16 0 -2
BITMAP
3070
3060
3040
30C0
BC86
F983
733F
33E1
3101
31FE
3186
7986
6D86
4D86
C1FE
8102
ENDCHAR
STARTCHAR 2d65
ENCODING 11621
SWIDTH 362 0
DWIDTH 16 0
BBX 16 16 0 -2
BITMAP
31C0
3180
3182
31FF
BF30
FB30
71B0
31BE
33F6
31B6
31B4
79B4
6DB1
4D81
C1FF
80FF
ENDCHAR
STARTCHAR 2d66
ENCODING 11622
SWIDTH 362 0
DWIDTH 16 0
BBX 16 16 0 -2
BITMAP
201C
3198
2198
2918
BF3F
FEDB
F6DB
239B
211B
239B
62DB
77D3
7E73
4826
C05E
818C
ENDCHAR
STARTCHAR 2d67
ENCODING 11623
SWIDTH 362 0
DWIDTH 16 0
BBX 16 16 0 -2
BITMAP
0180
0182
7FFF
4386
33CC
1E70
0C38
199F
E186
3198
1BB0
0BC0
0660
0C38
380F
6006
ENDCHAR
STARTCHAR 2d68
ENCODING 11624
SWIDTH 362 0
DWIDTH 16 0
BBX 16 16 0 -2
BITMAP
0180
0180
0184
01FE
0180
0180
1FF8
1018
1018
1018
1018
1018
0000
4446
4623
C221
ENDCHAR
STARTCHAR 2d69
ENCODING 11625
SWIDTH 362 0
DWIDTH 16 0
BBX 16 16 0 -2
BITMAP
0E60
7C40
7CFE
7C86
7DFE
7F5E
7E5E
7A56
7A5E
5B4D
59E3
D9FF
D8C0
9860
983F
101E
ENDCHAR
STARTCHAR 2d6a
ENCODING 11626
SWIDTH 362 0
DWIDTH 16 0
BBX 16 16 0 -2
BITMAP
0000
68FE
66C6
C6C6
8EC6
0CC6
6CFE
38C6
18C6
18C6
3CFE
3CC6
66C6
44C6
80C6
0000
ENDCHAR
STARTCHAR 2d6b
ENCODING 11627
SWIDTH 362 0
DWIDTH 16 0
BBX 16 16 0 -2
BITMAP
0800
0CFE
78C6
30C6
38C6
6CC6
4CFE
80C6
0CC6
4CC6
38FE
38C6
3CC6
6EC6
46C7
8000
ENDCHAR
STARTCHAR 2d6c
ENCODING 11628
SWIDTH 362 0
DWIDTH 16 0
BBX 16 16 0 -2
BITMAP
1820
7030
51FF
5303
FE04
D0C0
9080
1084
3C9E
F0F0
D080
1080
1081
1083
10FF
107E
ENDCHAR
STARTCHAR 2d6d
ENCODING 11629
SWIDTH 362 0
DWIDTH 16 0
BBX 16 16 0 -2
BITMAP
1800
71FF
516B
516B
FD6B
D16B
916B
114B
3D4F
F1CF
D183
1103
1103
1103
11FF
1100
ENDCHAR
STARTCHAR 2d6e
ENCODING 11630
SWIDTH 362 0
DWIDTH 16 0
BBX 16 16 0 -2
BITMAP
1830
7070
5070
50C8
FCCC
D186
931B
1201
3C04
F1FE
D00C
1088
10F0
1070
1030
1018
ENDCHAR
STARTCHAR 2d6f
ENCODING 11631
SWIDTH 362 0
DWIDTH 16 0
BBX 16 16 0 -2
BITMAP
18C0
70C0
5082
51FF
FD18
D390
90D0
109E
3DF6
F096
D094
1094
1091
1081
10FF
107F
ENDCHAR
STARTCHAR 2d70
ENCODING 11632
SWIDTH 362 0
DWIDTH 16 0
BBX 16 16 0 -2
BITMAP
080C
59FC
3020
3020
5022
9FFF
1820
1820
3924
69FE
C906
0906
0906
1906
79FE
3104
ENDCHAR
STARTCHAR 2d71
ENCODING 11633
SWIDTH 362 0
DWIDTH 16 0
BBX 16 16 0 -2
BITMAP
1030
D830
7022
63FF
F020
1326
19AC
38A8
383B
5870
9870
1848
18CC
1986
7303
2601
ENDCHAR
STARTCHAR 2d72
ENCODING 11634
SWIDTH 362 0
DWIDTH 16 0
BBX 16 16 0 -2
BITMAP
0802
59FF
3030
3020
51E6
9986
1986
1986
3986
69FE
C986
0986
0986
1986
79FE
3102
ENDCHAR
ENDFONT
